<svg width="100" height="49" viewBox="0 0 100 49" fill="none" xmlns="http://www.w3.org/2000/svg">
<g id="elemento decorativo">
<path id="Vector" d="M98.7716 29.7307C98.541 29.7925 98.3017 29.8213 98.0997 29.8578C98.0174 29.8799 97.9471 29.8811 97.8768 29.8823C96.1861 30.1589 94.5184 30.3236 92.9515 30.3378C91.8436 30.3525 90.7104 30.3387 89.6267 30.3116C88.5967 30.2878 87.5876 30.276 86.55 30.2895C81.308 30.3536 76.0132 30.2204 70.8104 29.9037L70.5952 29.8908C66.2906 29.6333 61.8411 29.3617 57.546 28.6784C54.5984 28.216 51.61 27.5353 48.7336 26.8775C47.5298 26.6004 46.3096 26.3277 45.1103 26.067L33.7311 23.5782C32.121 23.2336 30.5439 22.8802 28.9711 22.5433C26.444 22.0035 23.9333 21.4593 21.3436 20.8834C21.1942 20.8529 21.1007 20.7015 21.1313 20.5523C21.1619 20.403 21.3133 20.3095 21.4627 20.34C24.0525 20.9159 26.5631 21.4601 29.0902 21.9999C30.663 22.3368 32.2357 22.6738 33.8502 23.0348L45.2294 25.5236C46.4452 25.7799 47.649 26.057 48.8736 26.3461C51.75 27.004 54.722 27.6891 57.6487 28.1394C61.9229 28.8107 66.3559 29.0867 70.644 29.3487L70.8592 29.3615C76.062 29.6782 81.3404 29.8159 86.5659 29.7561C87.587 29.747 88.617 29.7709 89.6426 29.7782C90.722 29.7888 91.8595 29.8191 92.9466 29.7924C94.4926 29.7662 96.1274 29.6103 97.8016 29.3381C97.8675 29.3204 97.9542 29.3148 98.0409 29.3092C98.4493 29.2527 99.0477 29.1805 99.1868 28.8434C99.2427 28.7226 99.2086 28.6612 99.2042 28.6448C99.1271 28.4891 98.757 28.359 98.5823 28.2999C98.2121 28.1699 97.7873 28.2308 97.3745 28.2709C88.253 29.2687 79.0462 29.3548 70.0184 28.5287C68.7511 28.4097 67.4554 28.3159 66.1552 28.2058C61.2488 27.8097 56.1689 27.4248 51.5295 26.1812C47.2933 25.0588 42.9156 24.1331 38.6707 23.2423C36.8575 22.8639 35.0443 22.4856 33.2431 22.0864L28.292 20.9968C27.3003 20.7864 26.3909 20.5539 25.4859 20.3378C24.1822 20.017 22.9576 19.7278 21.5595 19.4499C21.4102 19.4193 21.3167 19.268 21.3473 19.1187C21.3778 18.9695 21.5293 18.876 21.6786 18.9065C23.0932 19.18 24.3222 19.4856 25.6259 19.8065C26.5309 20.0225 27.4359 20.2386 28.4112 20.4535L33.3622 21.543C35.1634 21.9422 36.9766 22.3206 38.7899 22.6989C43.0347 23.5897 47.4289 24.511 51.686 25.6455C56.2836 26.865 61.335 27.2752 66.204 27.6636C67.5207 27.7694 68.8165 27.8631 70.0837 27.9821C79.0741 28.8006 88.2481 28.7233 97.3322 27.7178C97.7779 27.6689 98.2939 27.6189 98.7761 27.7718C99.1463 27.9019 99.5582 28.0561 99.7255 28.4169C99.8113 28.6056 99.8192 28.8327 99.7196 29.0534C99.5563 29.4322 99.1832 29.6204 98.8045 29.7219L98.7716 29.7307Z" fill="currentColor"/>
<path id="Vector_2" d="M43.1148 24.679C43.1148 24.679 43.0654 24.6923 43.049 24.6967L25.7434 20.9034C24.4859 20.6231 23.1954 20.3516 21.9673 19.8518C21.8882 19.8201 21.8661 19.7378 21.8859 19.6796C21.9176 19.6005 21.9999 19.5785 22.0582 19.5981C23.2654 20.0859 24.5559 20.3574 25.7925 20.6257L43.0981 24.419C43.0981 24.419 43.2278 24.5077 43.196 24.5867C43.1928 24.6405 43.1478 24.6702 43.0984 24.6834L43.1148 24.679Z" fill="currentColor"/>
<path id="Vector_3" d="M94.8775 29.0282C91.0756 29.6589 87.3115 29.5741 83.141 29.4217C82.0155 29.3706 80.8779 29.3403 79.7568 29.3056C77.0017 29.2325 74.1511 29.1321 71.3564 28.911C69.8575 28.7835 68.318 28.7022 66.8443 28.6033C63.9179 28.4174 60.8838 28.2251 57.9209 27.8373C53.3086 27.2214 48.7068 26.2498 44.2321 24.9621C44.1574 24.9468 44.1189 24.869 44.1342 24.7943C44.1495 24.7197 44.2439 24.6767 44.3021 24.6964C48.7559 25.9721 53.3412 26.9481 57.9536 27.564C60.9 27.9562 63.9341 28.1485 66.8605 28.3344C68.3342 28.4333 69.8737 28.5146 71.3726 28.6421C74.1673 28.8633 77.0135 28.9472 79.773 29.0367C80.8941 29.0714 82.0317 29.1017 83.1572 29.1528C87.3112 29.3096 91.0754 29.3944 94.8442 28.7726C94.9101 28.7549 94.9936 28.8031 94.9992 28.8898C95.0168 28.9556 94.9642 29.0226 94.8983 29.0403L94.8775 29.0282Z" fill="currentColor"/>
<g id="Group">
<path id="Vector_4" d="M13.0403 35.4713C12.925 35.5022 12.7877 35.4508 12.7195 35.328C12.6469 35.1887 12.7104 35.0306 12.8333 34.9624C17.999 32.3084 22.3208 30.1275 27.0054 28.3784C32.5406 26.3133 37.5389 25.2738 42.3009 25.1971C42.8961 25.1787 43.4626 25.1856 44.0007 25.2178C44.1621 25.2275 44.2677 25.3579 44.27 25.4984C44.2603 25.6597 44.1342 25.7817 43.9892 25.7676C43.4555 25.7519 42.9054 25.7406 42.3268 25.7545C37.635 25.8301 32.6861 26.8563 27.2167 28.9038C22.5486 30.6484 18.2389 32.8085 13.0897 35.4581C13.0732 35.4625 13.0567 35.4669 13.0403 35.4713Z" fill="currentColor"/>
<path id="Vector_5" d="M13.0495 34.781C12.9342 34.8119 12.7969 34.7605 12.7331 34.6542C12.6605 34.5149 12.7032 34.3448 12.8261 34.2765C17.4899 31.5278 22.1848 29.1587 26.0911 27.6005C30.9544 25.6625 35.6222 24.641 39.9506 24.5924C40.4798 24.5916 41.0629 24.5941 41.6033 24.7668C41.7571 24.8138 41.8341 24.9695 41.7826 25.1067C41.7312 25.244 41.5797 25.3375 41.4424 25.2861C40.9811 25.1451 40.4474 25.1294 39.9555 25.1378C35.6974 25.1852 31.0955 26.1891 26.298 28.1095C22.4247 29.6588 17.7418 32.007 13.1109 34.7469C13.0945 34.7514 13.0615 34.7602 13.0451 34.7646L13.0495 34.781Z" fill="currentColor"/>
<path id="Vector_6" d="M11.518 37.1666C11.2052 37.2505 10.9273 37.2015 10.7339 37.0064C10.5613 36.8234 10.4907 36.5601 10.5607 36.2944C10.6034 36.1242 10.6878 35.9782 10.7975 35.8606C10.5767 35.761 10.3141 35.6374 10.1239 35.3885C9.98864 35.2131 9.9225 34.9663 9.95192 34.7468C9.9737 34.5646 10.0746 34.4141 10.2216 34.3042C10.4136 34.1645 10.6497 34.1895 10.8067 34.1827L11.5347 34.1992C11.7499 34.2121 11.9234 34.2009 12.109 34.1688C12.513 34.0958 12.8511 34.0405 13.0654 34.2476C13.2589 34.4427 13.2065 34.7742 13.1465 35.143C13.1083 35.3296 13.07 35.5162 13.0109 35.6908C12.8062 36.31 12.3105 36.8309 11.7112 37.0972C11.6453 37.1149 11.5795 37.1325 11.5136 37.1502L11.518 37.1666ZM11.5419 35.8728C11.4564 35.9486 11.3752 36.0409 11.2941 36.1332C11.2129 36.2255 11.1361 36.3342 11.1088 36.4297C11.0935 36.5044 11.0947 36.5746 11.1408 36.6152C11.1914 36.6722 11.344 36.6489 11.5207 36.5839C11.9806 36.3901 12.3502 35.9913 12.5034 35.5093C12.5505 35.3556 12.5931 35.1855 12.6237 35.0362C12.674 34.8287 12.6805 34.7211 12.6793 34.6509C12.5717 34.6445 12.3368 34.6898 12.238 34.7162C12.0031 34.7616 11.7549 34.7575 11.5605 34.7567L10.8325 34.7401C10.8325 34.7401 10.6217 34.7437 10.5767 34.7734C10.5603 34.7778 10.5526 34.8151 10.5406 34.836C10.5253 34.9106 10.5473 34.9929 10.5979 35.0499C10.7078 35.1968 10.9242 35.2799 11.1242 35.3674C11.1824 35.3871 11.2197 35.3947 11.2406 35.4068C11.3547 35.3057 11.4996 35.3197 11.6128 35.4129C11.726 35.506 11.7372 35.6794 11.644 35.7925C11.6319 35.8134 11.6034 35.8387 11.5749 35.8639L11.5419 35.8728Z" fill="currentColor"/>
<path id="Vector_7" d="M8.85783 40.807C8.0016 41.0365 7.11748 40.8325 6.25423 40.6405C5.44919 40.4682 4.69355 40.2827 3.96465 40.4603C3.86585 40.4868 3.74942 40.4475 3.67357 40.362C3.61418 40.2721 3.61625 40.148 3.66448 40.0646C4.23996 39.1167 5.04948 38.3178 6.01188 37.7601C6.45412 37.5005 6.91399 37.3068 7.32447 37.1262L10.9694 35.5147C11.0923 35.4465 11.2713 35.5219 11.3275 35.6656C11.3836 35.8093 11.3201 35.9674 11.1807 36.04L7.53583 37.6516C7.14182 37.8277 6.68195 38.0215 6.2847 38.2514C5.58459 38.6683 4.95709 39.2244 4.45925 39.8693C5.10817 39.8541 5.74737 40.0003 6.3657 40.1344C7.24983 40.3384 8.0922 40.5184 8.84846 40.2452C9.64206 39.9796 10.2913 39.2413 10.8457 38.0169C11.0254 37.6337 11.1677 37.2428 11.2936 36.8564C11.345 36.7191 11.5009 36.6421 11.6502 36.6726C11.7875 36.724 11.881 36.8753 11.8296 37.0126C11.6916 37.4199 11.5372 37.8316 11.3455 38.2357C10.7232 39.6017 9.97193 40.4203 9.02249 40.7629C8.95662 40.7806 8.89076 40.7982 8.8249 40.8159L8.85783 40.807Z" fill="currentColor"/>
<path id="Vector_8" d="M4.28596 39.8807C4.28596 39.8807 4.25302 39.8895 4.23656 39.894C3.44385 39.9653 2.61795 39.7809 1.92466 39.3671C1.40278 39.066 1.11908 38.6658 1.09559 38.2488C1.07885 37.9888 1.16532 37.7187 1.35499 37.4386C1.80667 36.7532 2.59028 36.3845 3.28067 36.129C5.56916 35.2512 8.07342 34.9153 10.5212 35.1589C10.6661 35.1729 10.7926 35.3154 10.762 35.4647C10.7523 35.6261 10.6217 35.7316 10.4603 35.7219C8.10366 35.4892 5.68614 35.8195 3.45911 36.6632C2.85104 36.8966 2.17828 37.218 1.79453 37.7617C1.68161 37.9331 1.61809 38.0912 1.6369 38.2272C1.6504 38.5411 1.99762 38.7831 2.18991 38.908C2.77882 39.2616 3.49271 39.4231 4.1822 39.3618C4.33922 39.355 4.47328 39.4602 4.48004 39.6171C4.49884 39.7531 4.40563 39.8663 4.2739 39.9016L4.28596 39.8807Z" fill="currentColor"/>
<path id="Vector_9" d="M10.6588 34.7515C10.6588 34.7515 10.5183 34.7539 10.4556 34.7177C9.70414 34.2842 8.88677 33.8683 8.01471 33.6434C7.08883 33.4153 6.20498 33.4758 5.49488 33.7895C5.03941 33.9997 4.63128 34.3207 4.21108 34.6626C3.87646 34.9286 3.52537 35.199 3.14459 35.4245C3.47742 35.547 3.83877 35.6442 4.1913 35.7084C4.34067 35.739 4.44621 35.8694 4.42003 36.0351C4.38944 36.1844 4.23801 36.2779 4.09305 36.2639C3.48354 36.1626 2.90138 35.9659 2.35099 35.6901C2.25102 35.6463 2.18722 35.54 2.1937 35.4324C2.20018 35.3249 2.27693 35.2161 2.37572 35.1896C2.92674 35.0067 3.39193 34.6352 3.86916 34.2427C4.30582 33.8965 4.75894 33.5458 5.27586 33.3014C6.31411 32.8292 7.41994 32.9386 8.15911 33.1285C9.10586 33.3687 9.96498 33.8087 10.7374 34.2542C10.8626 34.3265 10.9111 34.5075 10.8388 34.6327C10.8026 34.6953 10.7455 34.7459 10.6797 34.7635L10.6588 34.7515Z" fill="currentColor"/>
<path id="Vector_10" d="M2.64184 38.4868C2.64184 38.4868 2.5551 38.4924 2.52982 38.4639C2.37487 38.3467 2.2364 38.2251 2.09351 38.087C2.04294 38.03 2.05383 37.9389 2.09441 37.8927C2.15145 37.8422 2.23819 37.8366 2.28876 37.8936C2.41077 38.0196 2.54925 38.1412 2.69978 38.242C2.76682 38.2946 2.7724 38.3813 2.73182 38.4274C2.71976 38.4483 2.69124 38.4735 2.65831 38.4824L2.64184 38.4868Z" fill="currentColor"/>
<path id="Vector_11" d="M2.69316 38.0855C2.59644 37.9879 2.51177 37.8695 2.41504 37.772L2.69316 38.0855Z" fill="currentColor"/>
<path id="Vector_12" d="M2.91694 37.8667C2.84109 37.7812 2.7817 37.6913 2.73438 37.5806L2.91694 37.8667Z" fill="currentColor"/>
<path id="Vector_13" d="M3.2525 37.6708C3.19311 37.5809 3.1546 37.503 3.09521 37.4131L3.2525 37.6708Z" fill="currentColor"/>
<path id="Vector_14" d="M3.58847 37.4752C3.49615 37.3941 3.44882 37.2833 3.42236 37.1846L3.58847 37.4752Z" fill="currentColor"/>
<path id="Vector_15" d="M4.00447 37.3811C3.99448 37.2779 3.94715 37.1671 3.84277 37.1069L4.00447 37.3811Z" fill="currentColor"/>
<path id="Vector_16" d="M4.33143 37.1522C4.33143 37.1522 4.26764 37.0458 4.25 36.98L4.33143 37.1522Z" fill="currentColor"/>
<path id="Vector_17" d="M4.57249 36.9996C4.52957 36.9053 4.48224 36.7945 4.42285 36.7046L4.57249 36.9996Z" fill="currentColor"/>
<path id="Vector_18" d="M5.08201 36.7924C5.07202 36.6893 5.0291 36.5949 4.97412 36.5215L5.08201 36.7924Z" fill="currentColor"/>
<path id="Vector_19" d="M5.53414 36.6363C5.5121 36.554 5.48564 36.4553 5.43066 36.3818L5.53414 36.6363Z" fill="currentColor"/>
<path id="Vector_20" d="M6.13011 36.4233C6.13011 36.4233 6.09925 36.3081 6.03662 36.272L6.13011 36.4233Z" fill="currentColor"/>
<path id="Vector_21" d="M6.71641 36.3723C6.71641 36.3723 6.68114 36.2407 6.60205 36.209L6.71641 36.3723Z" fill="currentColor"/>
<path id="Vector_22" d="M5.67601 34.7287C5.6572 34.5927 5.60106 34.449 5.54932 34.3218L5.67601 34.7287Z" fill="currentColor"/>
<path id="Vector_23" d="M6.14727 34.7083C6.14727 34.7083 6.01878 34.6898 5.98468 34.6284C5.90324 34.4562 5.8174 34.2675 5.73597 34.0954C5.71833 34.0295 5.72922 33.9384 5.81155 33.9164C5.91035 33.8899 5.96856 33.9096 5.99061 33.9919C6.07204 34.164 6.15788 34.3527 6.23931 34.5249C6.25695 34.5907 6.24606 34.6818 6.16373 34.7038L6.14727 34.7083Z" fill="currentColor"/>
<path id="Vector_24" d="M6.58819 34.3783C6.50793 34.2763 6.45178 34.1326 6.4165 34.001L6.58819 34.3783Z" fill="currentColor"/>
<path id="Vector_25" d="M7.13415 34.3735C7.02537 34.2968 6.95275 34.1575 6.91748 34.0259L7.13415 34.3735Z" fill="currentColor"/>
<path id="Vector_26" d="M7.67622 34.4217C7.57949 34.3242 7.51128 34.2013 7.49248 34.0653L7.67622 34.4217Z" fill="currentColor"/>
<path id="Vector_27" d="M8.23396 34.3957C8.17457 34.3058 8.13165 34.2115 8.07227 34.1216L8.23396 34.3957Z" fill="currentColor"/>
<path id="Vector_28" d="M8.79083 34.2998C8.79083 34.2998 8.68645 34.2396 8.68528 34.1693L8.79083 34.2998Z" fill="currentColor"/>
<path id="Vector_29" d="M10.1687 35.0946C10.1687 35.0946 10.1357 35.1034 10.1193 35.1078L9.29452 34.9937C9.29452 34.9937 9.16487 34.905 9.18016 34.8303C9.19546 34.7557 9.2525 34.7051 9.34365 34.716L10.1684 34.8301C10.1684 34.8301 10.298 34.9188 10.2828 34.9935C10.2795 35.0472 10.2389 35.0934 10.1895 35.1066L10.1687 35.0946Z" fill="currentColor"/>
<path id="Vector_30" d="M10.1924 34.7885C10.1924 34.7885 10.143 34.8017 10.1221 34.7896C9.9101 34.723 9.68164 34.6608 9.43672 34.6029C9.36204 34.5877 9.30706 34.5142 9.33883 34.4352C9.35412 34.3605 9.42763 34.3055 9.50231 34.3208C9.74723 34.3786 9.99215 34.4365 10.2086 34.5196C10.2832 34.5348 10.3217 34.6127 10.29 34.6917C10.2659 34.7335 10.2418 34.7752 10.1924 34.7885Z" fill="currentColor"/>
<path id="Vector_31" d="M8.88175 36.2858C8.88175 36.2858 8.77414 36.2793 8.74445 36.2344C8.69388 36.1774 8.70476 36.0863 8.76181 36.0357C8.92089 35.9049 9.13495 35.8476 9.30401 35.8199L10.3173 35.5837C10.3173 35.5837 10.4666 35.6142 10.4843 35.68C10.5019 35.7458 10.4493 35.8129 10.3878 35.847L9.37456 36.0832C9.22637 36.1229 9.06171 36.167 8.95967 36.2473C8.94321 36.2517 8.92674 36.2561 8.91027 36.2605L8.88175 36.2858Z" fill="currentColor"/>
<path id="Vector_32" d="M9.87009 37.2734C9.87009 37.2734 9.76248 37.2669 9.7372 37.2384C9.68663 37.1814 9.69751 37.0903 9.75456 37.0398C10.0113 36.8123 10.2888 36.5968 10.5917 36.4098C10.6532 36.3757 10.7443 36.3866 10.7784 36.448C10.8125 36.5094 10.8016 36.6005 10.7402 36.6346C10.4538 36.8171 10.1927 37.0282 9.94801 37.2348C9.93155 37.2393 9.91508 37.2437 9.88215 37.2525L9.87009 37.2734Z" fill="currentColor"/>
<path id="Vector_33" d="M10.1008 37.7405C10.1008 37.7405 10.035 37.7581 9.99322 37.734C9.93059 37.6979 9.90855 37.6156 9.94472 37.553C10.1256 37.24 10.3735 36.9796 10.6719 36.7762C10.729 36.7256 10.8201 36.7365 10.8586 36.8143C10.8927 36.8757 10.8983 36.9624 10.8204 37.0009C10.5504 37.1791 10.3311 37.4142 10.1743 37.6855C10.1502 37.7272 10.1173 37.7361 10.0844 37.7449L10.1008 37.7405Z" fill="currentColor"/>
<path id="Vector_34" d="M10.624 38.1115C10.624 38.1115 10.5746 38.1248 10.5537 38.1127C10.479 38.0975 10.4361 38.0031 10.4723 37.9405C10.5981 37.5541 10.8031 37.1993 11.0542 36.8851C11.1113 36.8346 11.1936 36.8125 11.2442 36.8695C11.3112 36.9221 11.3168 37.0088 11.2597 37.0593C11.0207 37.3527 10.8398 37.6657 10.726 38.0313C10.7019 38.073 10.6778 38.1147 10.6284 38.128L10.624 38.1115Z" fill="currentColor"/>
<path id="Vector_35" d="M5.95565 39.592C5.8798 39.5065 5.78748 39.4254 5.68311 39.3652L5.95565 39.592Z" fill="currentColor"/>
<path id="Vector_36" d="M6.12542 39.3699C6.12542 39.3699 5.99459 39.211 5.9846 39.1078L6.12542 39.3699Z" fill="currentColor"/>
<path id="Vector_37" d="M6.46902 39.1368C6.42169 39.0261 6.35348 38.9033 6.30615 38.7925L6.46902 39.1368Z" fill="currentColor"/>
<path id="Vector_38" d="M6.80148 38.9947C6.72122 38.8928 6.67389 38.782 6.65949 38.6624L6.80148 38.9947Z" fill="currentColor"/>
<path id="Vector_39" d="M7.20641 38.7276C7.17996 38.6289 7.14909 38.5137 7.07324 38.4282L7.20641 38.7276Z" fill="currentColor"/>
<path id="Vector_40" d="M7.57646 38.5932C7.47973 38.4957 7.44446 38.3641 7.42565 38.228L7.57646 38.5932Z" fill="currentColor"/>
<path id="Vector_41" d="M8.04184 38.4861C7.96158 38.3841 7.88131 38.2822 7.83398 38.1714L8.04184 38.4861Z" fill="currentColor"/>
<path id="Vector_42" d="M8.55987 38.312C8.46756 38.231 8.40376 38.1246 8.36084 38.0303L8.55987 38.312Z" fill="currentColor"/>
<path id="Vector_43" d="M9.03744 38.1843C8.97365 38.0779 8.90985 37.9716 8.82959 37.8696L9.03744 38.1843Z" fill="currentColor"/>
<path id="Vector_44" d="M11.7149 36.3206C11.7149 36.3206 11.6073 36.3142 11.5611 36.2737C11.5106 36.2167 11.5215 36.1256 11.5785 36.075C11.8111 35.8892 12.0184 35.6749 12.1631 35.4245L12.2113 35.3411C12.2957 35.195 12.3966 35.0445 12.5436 34.9346C12.6006 34.884 12.6918 34.8949 12.7303 34.9727C12.7644 35.0341 12.77 35.1208 12.6921 35.1593C12.59 35.2396 12.5133 35.3483 12.4409 35.4735L12.3927 35.557C12.2195 35.8327 11.9881 36.0887 11.739 36.2789C11.7226 36.2833 11.7061 36.2877 11.6896 36.2921L11.7149 36.3206Z" fill="currentColor"/>
<path id="Vector_45" d="M11.8564 35.4004C11.8564 35.4004 11.7279 35.3819 11.6938 35.3205C11.6762 35.2547 11.6871 35.1636 11.7694 35.1415C12.1305 34.9743 12.4619 34.762 12.7636 34.5048C12.8206 34.4542 12.9118 34.4651 12.9623 34.5221C13.0129 34.5791 13.002 34.6702 12.945 34.7207C12.6312 34.9988 12.2713 35.2363 11.8938 35.408C11.8938 35.408 11.8938 35.408 11.8773 35.4125L11.8564 35.4004Z" fill="currentColor"/>
<path id="Vector_46" d="M11.4051 35.0983C11.4051 35.0983 11.2569 35.138 11.1745 35.1601C11.1087 35.1777 11.0252 35.1295 11.0031 35.0473C10.9855 34.9814 11.0217 34.9188 11.1161 34.8759C11.4662 34.7997 11.8241 34.6862 12.1434 34.4948C12.2093 34.4772 12.3004 34.488 12.3345 34.5494C12.3522 34.6152 12.3413 34.7063 12.2798 34.7405C12.0011 34.8857 11.7179 35.0145 11.4051 35.0983Z" fill="currentColor"/>
</g>
<g id="Group_2">
<path id="Vector_47" d="M28.9053 14.8538C28.362 14.9994 27.7492 14.9519 27.2406 14.7002C26.8527 14.5043 26.6493 14.2061 26.6731 13.8999C26.6937 13.6474 26.8637 13.4255 27.1139 13.3056C27.2698 13.2285 27.4433 13.2173 27.5959 13.1941C27.5297 12.9472 27.4548 12.6675 27.5204 12.3854C27.5662 12.1614 27.7241 11.9604 27.9085 11.8581C28.0764 11.7602 28.2455 11.7325 28.4157 11.7751C28.6442 11.8373 28.8003 12.0248 28.9014 12.1388L29.3533 12.7055C29.4841 12.8645 29.5941 13.0114 29.7446 13.1121C30.0589 13.363 30.3315 13.5898 30.2912 13.9004C30.2629 14.1902 29.9886 14.3519 29.6648 14.5268C29.4969 14.6247 29.3246 14.7061 29.1644 14.7667C29.082 14.7888 28.9997 14.8108 28.9174 14.8329L28.9053 14.8538ZM27.4197 13.788C27.4197 13.788 27.3703 13.8012 27.3374 13.8101C27.2715 13.8277 27.2189 13.8947 27.2156 13.9485C27.2168 14.0187 27.3179 14.1327 27.4805 14.2126C27.9265 14.4282 28.4646 14.4604 28.9454 14.2787C29.0891 14.2225 29.245 14.1455 29.3799 14.0564C29.5643 13.9541 29.6543 13.8947 29.6949 13.8486C29.619 13.7631 29.4388 13.6173 29.3673 13.5483C29.1871 13.4026 29.0354 13.2316 28.9002 13.0562L28.4483 12.4895C28.4483 12.4895 28.3175 12.3305 28.2593 12.3108C28.2428 12.3153 28.2099 12.3241 28.1769 12.3329C28.1155 12.367 28.0672 12.4505 28.0475 12.5087C28.0093 12.6953 28.0831 12.9048 28.1404 13.1187C28.158 13.1845 28.1669 13.2174 28.1713 13.2339C28.3162 13.248 28.4053 13.3828 28.4076 13.5233C28.41 13.6637 28.2838 13.7857 28.1433 13.7881C28.1104 13.7969 28.0895 13.7849 28.0521 13.7773C27.9281 13.7752 27.816 13.7523 27.6964 13.7668C27.6096 13.7724 27.502 13.7659 27.4197 13.788Z" fill="currentColor"/>
<path id="Vector_48" d="M25.9835 15.2137C24.6168 15.5799 23.5572 15.5111 22.7222 15.0293C21.8828 14.5312 21.4218 13.667 20.9861 12.8314C20.6142 12.1021 20.2347 11.4102 19.6358 10.9534C19.5479 10.8888 19.5005 10.778 19.54 10.6616C19.5629 10.5496 19.6485 10.4738 19.7681 10.4594C20.8693 10.2878 21.9916 10.3927 23.0439 10.7633C23.514 10.9371 23.9556 11.1363 24.3852 11.3563L27.9578 13.0974C28.0995 13.1652 28.16 13.3254 28.0921 13.467C28.0242 13.6087 27.8595 13.6528 27.7222 13.6014L24.1496 11.8603C23.7409 11.6523 23.3158 11.4488 22.8709 11.3035C22.0933 11.0356 21.285 10.9171 20.4505 10.9644C20.8804 11.4488 21.1917 12.018 21.4866 12.5915C21.9134 13.3942 22.3106 14.152 23.0039 14.5659C23.718 14.9918 24.7271 15.0036 25.9906 14.6474C26.4023 14.5371 26.7886 14.3983 27.1706 14.243C27.3023 14.2077 27.4725 14.2503 27.5287 14.394C27.5848 14.5377 27.5213 14.6958 27.3775 14.752C26.9791 14.9116 26.5598 15.0592 26.1317 15.174C26.0823 15.1872 26.0164 15.2048 25.967 15.2181L25.9835 15.2137Z" fill="currentColor"/>
<path id="Vector_49" d="M27.794 12.9469C27.6787 12.9778 27.5623 12.9385 27.4985 12.8321C26.147 10.8839 24.35 9.24897 22.2593 8.09844C21.6792 7.77769 21.0124 7.46254 20.3437 7.53588C20.1373 7.55591 19.9815 7.63294 19.8794 7.71319C19.6557 7.93188 19.6792 8.34886 19.7244 8.58365C19.8349 9.2595 20.1683 9.9109 20.6684 10.3942C20.7695 10.5082 20.7807 10.6815 20.6666 10.7827C20.5525 10.8838 20.379 10.895 20.2779 10.781C19.702 10.2122 19.3257 9.4665 19.1843 8.67547C19.0794 8.0863 19.1997 7.61316 19.509 7.31863C19.7087 7.14168 19.9633 7.03817 20.2894 7.00371C21.1106 6.90712 21.8774 7.26603 22.5366 7.61849C24.6899 8.80515 26.554 10.4926 27.9604 12.5143C28.0451 12.6327 28.0233 12.8149 27.8884 12.904C27.8554 12.9128 27.8225 12.9217 27.806 12.9261L27.794 12.9469Z" fill="currentColor"/>
<path id="Vector_50" d="M28.5668 12.4048C28.5668 12.4048 28.5668 12.4048 28.5503 12.4092C28.4021 12.4489 28.2516 12.3481 28.2284 12.1956C28.0693 11.3388 27.8642 10.4414 27.4747 9.64629C27.0554 8.80624 26.4366 8.14315 25.7324 7.82038C25.2699 7.60921 24.7801 7.49355 24.2408 7.39112C23.8136 7.31159 23.382 7.21561 22.9701 7.06144C23.0956 7.39817 23.2376 7.73049 23.4246 8.03312C23.4972 8.17239 23.4545 8.34255 23.3316 8.41075C23.2087 8.47896 23.022 8.44081 22.9538 8.31799C22.6513 7.78177 22.4102 7.21144 22.268 6.61465C22.2371 6.49946 22.2809 6.39954 22.3665 6.3237C22.4565 6.26432 22.5805 6.26635 22.6805 6.31011C23.1815 6.59914 23.7625 6.72565 24.3764 6.84333C24.9157 6.94576 25.4758 7.06022 26.0009 7.30752C26.8094 7.69051 27.5206 8.43469 27.9872 9.3855C28.4152 10.2585 28.6292 11.1888 28.797 12.0785C28.8367 12.2266 28.7314 12.3607 28.5997 12.396L28.5668 12.4048Z" fill="currentColor"/>
<path id="Vector_51" d="M20.4253 8.69602C20.4253 8.69602 20.4088 8.70043 20.3924 8.70485C20.3265 8.72249 20.2551 8.65345 20.2495 8.56677C20.2339 8.37694 20.2348 8.18269 20.2566 8.0005C20.2554 7.93026 20.3289 7.87529 20.3992 7.8741C20.4739 7.88936 20.5244 7.94636 20.5256 8.01659C20.5203 8.19438 20.515 8.37216 20.5097 8.54995C20.5273 8.61577 20.4703 8.66633 20.4044 8.68398L20.4253 8.69602Z" fill="currentColor"/>
<path id="Vector_52" d="M20.661 8.4561C20.6751 8.31123 20.6936 8.18281 20.7078 8.03793L20.661 8.4561Z" fill="currentColor"/>
<path id="Vector_53" d="M20.9841 8.47554C20.9906 8.36798 21.03 8.2516 21.0903 8.14727L20.9841 8.47554Z" fill="currentColor"/>
<path id="Vector_54" d="M21.3376 8.61011C21.3376 8.61011 21.3923 8.41908 21.4361 8.31916L21.3376 8.61011Z" fill="currentColor"/>
<path id="Vector_55" d="M21.7078 8.74019C21.7142 8.63263 21.7537 8.51625 21.8139 8.41192L21.7078 8.74019Z" fill="currentColor"/>
<path id="Vector_56" d="M22.0388 8.98657C22.1244 8.91074 22.1638 8.79436 22.1373 8.69563L22.0388 8.98657Z" fill="currentColor"/>
<path id="Vector_57" d="M22.421 9.09585C22.421 9.09585 22.4769 8.97506 22.4966 8.91687L22.421 9.09585Z" fill="currentColor"/>
<path id="Vector_58" d="M22.6911 9.18237C22.735 9.08245 22.7788 8.98253 22.8226 8.8826L22.6911 9.18237Z" fill="currentColor"/>
<path id="Vector_59" d="M23.1833 9.43804C23.2524 9.36661 23.3006 9.28314 23.3071 9.17559L23.1833 9.43804Z" fill="currentColor"/>
<path id="Vector_60" d="M23.6008 9.67939C23.6008 9.67939 23.7016 9.52891 23.729 9.4334L23.6008 9.67939Z" fill="currentColor"/>
<path id="Vector_61" d="M24.1271 9.99688C24.1271 9.99688 24.1874 9.89254 24.1906 9.83876L24.1271 9.99688Z" fill="currentColor"/>
<path id="Vector_62" d="M24.5558 10.4111C24.5558 10.4111 24.6281 10.2859 24.6105 10.2201L24.5558 10.4111Z" fill="currentColor"/>
<path id="Vector_63" d="M25.137 8.56196C25.2346 8.46526 25.3069 8.34006 25.3584 8.20281L25.137 8.56196Z" fill="currentColor"/>
<path id="Vector_64" d="M25.5853 8.91832C25.5853 8.91832 25.5194 8.93597 25.4942 8.90747C25.4315 8.87134 25.393 8.79348 25.4292 8.73088L25.6724 8.18952C25.6724 8.18952 25.7865 8.08841 25.8491 8.12454C25.9117 8.16067 25.9503 8.23853 25.9141 8.30113L25.6709 8.84248C25.6709 8.84248 25.6182 8.9095 25.5853 8.91832Z" fill="currentColor"/>
<path id="Vector_65" d="M26.0003 9.01836C26.0353 8.88553 26.0911 8.76474 26.1844 8.65158L26.0003 9.01836Z" fill="currentColor"/>
<path id="Vector_66" d="M26.3631 9.45068C26.3607 9.31022 26.3957 9.17739 26.489 9.06423L26.3631 9.45068Z" fill="currentColor"/>
<path id="Vector_67" d="M26.6722 9.87905C26.6863 9.73418 26.7422 9.61339 26.8189 9.50464L26.6722 9.87905Z" fill="currentColor"/>
<path id="Vector_68" d="M27.0632 10.2857C27.107 10.1858 27.1344 10.0903 27.1738 9.97393L27.0632 10.2857Z" fill="currentColor"/>
<path id="Vector_69" d="M27.483 10.6671C27.483 10.6671 27.4686 10.5475 27.5092 10.5014L27.483 10.6671Z" fill="currentColor"/>
<path id="Vector_70" d="M27.8858 12.2348C27.8858 12.2348 27.7617 12.2328 27.7276 12.1714L27.2898 11.4598C27.2898 11.4598 27.2666 11.3073 27.3281 11.2731C27.3895 11.239 27.4807 11.2499 27.5148 11.3113L27.9525 12.0229C27.9525 12.0229 27.9758 12.1754 27.9143 12.2095L27.8814 12.2184L27.8858 12.2348Z" fill="currentColor"/>
<path id="Vector_71" d="M28.1391 12.061C28.1391 12.061 27.9941 12.0469 27.9765 11.9811C27.8862 11.776 27.796 11.5709 27.6805 11.3373C27.6464 11.2759 27.6737 11.1804 27.7352 11.1463C27.7966 11.1122 27.8922 11.1395 27.9263 11.2009C28.0418 11.4345 28.1529 11.6516 28.2432 11.8567C28.2608 11.9225 28.2291 12.0016 28.1676 12.0357L28.1391 12.061Z" fill="currentColor"/>
<path id="Vector_72" d="M27.4252 12.8871C27.4252 12.8871 27.3384 12.8927 27.3131 12.8642L26.4923 12.2376C26.3582 12.1324 26.2285 12.0437 26.1 12.0252C26.0254 12.01 25.9704 11.9365 25.9857 11.8619C26.001 11.7872 26.0745 11.7323 26.1492 11.7475C26.3523 11.7813 26.5282 11.9105 26.6622 12.0157L27.4831 12.6423C27.4831 12.6423 27.5557 12.7816 27.5151 12.8277C27.5031 12.8486 27.4746 12.8739 27.4416 12.8827L27.4252 12.8871Z" fill="currentColor"/>
<path id="Vector_73" d="M27.0118 13.6505C27.0118 13.6505 26.9624 13.6638 26.9415 13.6517C26.634 13.5578 26.2979 13.4891 25.9663 13.4369C25.8916 13.4216 25.8366 13.3482 25.8519 13.2735C25.8672 13.1989 25.9242 13.1483 26.0154 13.1592C26.3635 13.207 26.704 13.2921 27.0445 13.3772C27.1191 13.3925 27.1576 13.4704 27.1424 13.545C27.1182 13.5867 27.0941 13.6285 27.0447 13.6417L27.0118 13.6505Z" fill="currentColor"/>
<path id="Vector_74" d="M26.8269 13.9468C26.8269 13.9468 26.7775 13.9601 26.7566 13.948C26.4491 13.8541 26.1262 13.8347 25.809 13.9021C25.7431 13.9198 25.6596 13.8716 25.654 13.7849C25.6364 13.7191 25.689 13.6521 25.7549 13.6344C26.1095 13.5747 26.4697 13.6016 26.8146 13.7032C26.8892 13.7185 26.9278 13.7963 26.9125 13.871C26.9048 13.9083 26.8642 13.9545 26.8148 13.9677L26.8269 13.9468Z" fill="currentColor"/>
<path id="Vector_75" d="M26.9983 14.324C26.9983 14.324 26.9819 14.3285 26.9654 14.3329C26.5976 14.3432 26.2265 14.4074 25.8775 14.5538C25.8116 14.5715 25.7325 14.5398 25.7149 14.4739C25.6972 14.4081 25.729 14.3291 25.7905 14.295C26.1724 14.1397 26.5644 14.0876 26.9651 14.0684C27.0354 14.0672 27.1068 14.1362 27.108 14.2065C27.1256 14.2723 27.0686 14.3229 27.0027 14.3405L26.9983 14.324Z" fill="currentColor"/>
<path id="Vector_76" d="M21.6077 11.9238C21.6307 11.8119 21.6327 11.6879 21.6183 11.5683L21.6077 11.9238Z" fill="currentColor"/>
<path id="Vector_77" d="M21.8845 11.9027C21.8745 11.7996 21.9183 11.6997 21.9874 11.6282L21.8845 11.9027Z" fill="currentColor"/>
<path id="Vector_78" d="M22.2835 12.0073C22.3393 11.8865 22.3831 11.7866 22.439 11.6658L22.2835 12.0073Z" fill="currentColor"/>
<path id="Vector_79" d="M22.613 12.1837C22.6316 12.0553 22.6918 11.9509 22.773 11.8586L22.613 12.1837Z" fill="currentColor"/>
<path id="Vector_80" d="M23.07 12.308C23.1347 12.2201 23.1994 12.1322 23.2224 12.0203L23.07 12.308Z" fill="currentColor"/>
<path id="Vector_81" d="M23.4202 12.4965C23.4387 12.3681 23.511 12.2429 23.6087 12.1462L23.4202 12.4965Z" fill="currentColor"/>
<path id="Vector_82" d="M23.7972 12.7834C23.8157 12.6549 23.8551 12.5385 23.911 12.4178L23.7972 12.7834Z" fill="currentColor"/>
<path id="Vector_83" d="M24.2654 13.0813C24.2675 12.9573 24.3069 12.841 24.3672 12.7366L24.2654 13.0813Z" fill="currentColor"/>
<path id="Vector_84" d="M24.6751 13.3597C24.7145 13.2433 24.7539 13.1269 24.7768 13.0149L24.6751 13.3597Z" fill="currentColor"/>
<path id="Vector_85" d="M29.4236 14.2212C29.4236 14.2212 29.3742 14.2344 29.3534 14.2224C29.2369 14.183 29.1052 14.2183 28.9526 14.2416L28.8538 14.268C28.5277 14.3025 28.1884 14.2876 27.8688 14.2145C27.7941 14.1992 27.7392 14.1258 27.7709 14.0467C27.7862 13.9721 27.8597 13.9171 27.9388 13.9488C28.2211 14.0143 28.523 14.0216 28.8118 13.9795L28.9106 13.953C29.0841 13.9418 29.2531 13.9141 29.4398 13.9523C29.5145 13.9676 29.553 14.0454 29.5377 14.1201C29.518 14.1782 29.4895 14.2035 29.4401 14.2168L29.4236 14.2212Z" fill="currentColor"/>
<path id="Vector_86" d="M29.8969 14.0765C29.8969 14.0765 29.864 14.0853 29.8475 14.0898C29.4247 14.0267 29.0216 13.9054 28.6382 13.726C28.5756 13.6898 28.5371 13.612 28.5897 13.545C28.6259 13.4824 28.7038 13.4438 28.7709 13.4964C29.1169 13.6682 29.4992 13.7775 29.9011 13.8285C29.9758 13.8438 30.0307 13.9172 30.0154 13.9919C30.0122 14.0456 29.9716 14.0918 29.9222 14.105L29.8969 14.0765Z" fill="currentColor"/>
<path id="Vector_87" d="M29.488 13.6044C29.488 13.6044 29.4386 13.6176 29.3968 13.5935C29.0223 13.447 28.6883 13.2543 28.3784 13.0199C28.3113 12.9673 28.3058 12.8806 28.3628 12.8301C28.4154 12.763 28.5022 12.7574 28.5527 12.8144C28.8418 13.0368 29.1549 13.2175 29.5086 13.352C29.5877 13.3837 29.6097 13.466 29.59 13.5241C29.5659 13.5659 29.5374 13.5912 29.488 13.6044Z" fill="currentColor"/>
<path id="Vector_88" d="M41.1321 23.7996C41.1321 23.7996 41.0124 23.814 40.9498 23.7779C36.3863 21.6321 32.6636 18.0794 29.2364 14.6415C29.1353 14.5275 29.1241 14.3541 29.2382 14.253C29.3479 14.1354 29.5258 14.1406 29.6269 14.2546C33.0124 17.6685 36.7054 21.1762 41.1897 23.2903C41.3314 23.3582 41.392 23.5183 41.3241 23.66C41.2923 23.739 41.2188 23.794 41.1529 23.8116L41.1321 23.7996Z" fill="currentColor"/>
<path id="Vector_89" d="M43.1298 24.076C43.1298 24.076 42.9893 24.0784 42.9267 24.0422C38.1386 21.3217 33.6882 18.0169 29.7006 14.2C29.583 14.0904 29.5883 13.9127 29.6859 13.8159C29.7791 13.7028 29.9735 13.7036 30.0702 13.8012C34.0281 17.573 38.4368 20.8538 43.1831 23.5502C43.3083 23.6225 43.3568 23.8035 43.2845 23.9287C43.2483 23.9913 43.1913 24.0419 43.1254 24.0595L43.1298 24.076Z" fill="currentColor"/>
</g>
<g id="Group_3">
<path id="Vector_90" d="M60.4913 27.7479C60.376 27.7787 60.2596 27.7394 60.2002 27.6495C59.9506 27.3107 59.2109 26.5918 58.6525 26.0889C57.0029 24.6085 56.0983 22.6816 55.207 20.8041C54.8768 20.0989 54.5214 19.3652 54.1419 18.6733C53.3443 17.2115 52.3415 15.84 51.1587 14.5873C50.464 13.8387 49.6748 13.1331 48.9231 12.435C47.6591 11.2746 46.3446 10.0572 45.3374 8.66921L45.1725 8.44886C44.8294 7.95878 44.4951 7.50162 43.9941 7.21259C43.9315 7.17646 43.8733 7.15678 43.8568 7.1612C43.4823 10.2421 44.3388 13.5046 46.2974 16.4013C48.0437 18.9669 50.6374 21.2701 53.9818 23.2135C55.3387 23.9963 56.5354 24.8396 57.8199 25.7476L58.0583 25.913C58.2968 26.0784 58.7507 26.5211 59.1541 26.9069C59.3223 27.0735 59.4652 27.2115 59.5828 27.3211C59.7004 27.4307 59.695 27.6085 59.5974 27.7052C59.5042 27.8183 59.3307 27.8296 59.2131 27.72C59.1164 27.6224 58.9526 27.4723 58.7845 27.3057C58.4317 26.977 57.9733 26.5178 57.7557 26.3645L57.5173 26.1991C56.2536 25.3031 55.0614 24.4762 53.721 23.689C50.2931 21.6975 47.6367 19.3581 45.8519 16.7147C43.8131 13.7161 42.9377 10.3175 43.3681 7.11577C43.379 7.02467 43.4052 6.85893 43.5357 6.7534C43.7233 6.59731 44.0044 6.59254 44.2923 6.74469C44.8977 7.09394 45.2704 7.62896 45.6388 8.14754L45.8037 8.36789C46.7648 9.7153 48.0705 10.8998 49.3136 12.0482C50.0818 12.7418 50.8589 13.4683 51.5745 14.229C52.7825 15.5102 53.815 16.9266 54.6423 18.4334C55.0263 19.1418 55.3817 19.8754 55.7162 20.5971C56.5735 22.4132 57.4648 24.2908 59.0266 25.7065C59.3288 25.9782 60.3114 26.879 60.6501 27.3526C60.7347 27.471 60.7294 27.6488 60.5945 27.7378C60.5615 27.7467 60.533 27.7719 60.5001 27.7808L60.4913 27.7479Z" fill="currentColor"/>
<path id="Vector_91" d="M59.7907 27.6355C59.7907 27.6355 59.683 27.629 59.6534 27.5841C58.9871 26.8102 58.0554 26.231 57.1654 25.6758C56.5304 25.2816 55.8909 24.8709 55.3205 24.3888C54.8886 24.0284 54.4973 23.6218 54.1224 23.2108L51.4294 20.4051C49.6409 18.5386 47.8228 16.6272 46.3614 14.532C44.7218 12.1672 43.7608 9.8321 43.496 7.59266C43.4784 7.52683 43.5266 7.44337 43.6134 7.43776C43.6792 7.42011 43.7507 7.48915 43.7683 7.55497C44.0198 9.74505 44.9676 12.0308 46.5819 14.3671C48.0225 16.4503 49.8527 18.3408 51.6202 20.1952L54.3133 23.0009C54.7002 23.391 55.075 23.8021 55.5069 24.1625C56.0564 24.6326 56.708 25.0224 57.3266 25.421C58.2374 25.9882 59.19 26.5795 59.8815 27.3818C59.9321 27.4388 59.9212 27.5299 59.8642 27.5805C59.8477 27.5849 59.8312 27.5893 59.8148 27.5937L59.7907 27.6355Z" fill="currentColor"/>
<path id="Vector_92" d="M57.4474 25.7414C57.4474 25.7414 57.3398 25.735 57.3145 25.7065C55.0172 23.3239 53.2356 20.6267 52.0203 17.6719C51.6196 16.7035 51.2716 15.668 51.4066 14.5912C51.4219 14.5166 51.479 14.466 51.5701 14.4769C51.6448 14.4921 51.6954 14.5491 51.7009 14.6358C51.5647 15.6423 51.9039 16.6449 52.2958 17.5805C53.4979 20.4859 55.275 23.1666 57.5306 25.5251C57.5812 25.5821 57.5703 25.6732 57.5297 25.7194C57.5133 25.7238 57.4848 25.7491 57.4683 25.7535L57.4474 25.7414Z" fill="currentColor"/>
<path id="Vector_93" d="M53.9544 23.0444C53.9544 23.0444 53.8676 23.05 53.8215 23.0095C51.9169 21.3682 49.8247 19.8829 47.5911 18.5943C47.5284 18.5582 47.5064 18.4759 47.5426 18.4133C47.5787 18.3507 47.6611 18.3287 47.7237 18.3648C49.9782 19.6654 52.0869 21.1463 53.9958 22.8041C54.0464 22.861 54.052 22.9477 54.0114 22.9939C53.9949 22.9983 53.9664 23.0236 53.9335 23.0324L53.9544 23.0444Z" fill="currentColor"/>
<path id="Vector_94" d="M50.5945 16.6963C50.5945 16.6963 50.4451 16.6658 50.4231 16.5835C50.3458 16.1633 50.252 15.7476 50.1747 15.3274C50.1527 15.2451 50.2053 15.1781 50.2877 15.156C50.3535 15.1384 50.437 15.1865 50.4591 15.2688C50.5364 15.689 50.6301 16.1048 50.7074 16.525C50.7251 16.5908 50.6768 16.6743 50.611 16.6919L50.5945 16.6963Z" fill="currentColor"/>
<path id="Vector_95" d="M49.9713 16.0166C49.9713 16.0166 49.8219 15.9861 49.7998 15.9038L49.5923 14.8659C49.5923 14.8659 49.6229 14.7167 49.7053 14.6946C49.7876 14.6725 49.8546 14.7251 49.8767 14.8074L50.0842 15.8453C50.0842 15.8453 50.0536 15.9945 49.9877 16.0122L49.9713 16.0166Z" fill="currentColor"/>
<path id="Vector_96" d="M49.3597 15.3163C49.3597 15.3163 49.2147 15.3022 49.1927 15.22C49.1012 14.9446 49.0472 14.6769 49.0381 14.3796C49.0369 14.3093 49.0895 14.2423 49.1763 14.2367C49.2466 14.2355 49.3136 14.2881 49.3192 14.3748C49.3359 14.6348 49.3691 14.8905 49.4517 15.1329C49.4694 15.1987 49.4376 15.2778 49.3597 15.3163Z" fill="currentColor"/>
<path id="Vector_97" d="M48.8003 14.7429C48.8003 14.7429 48.6509 14.7124 48.6333 14.6466C48.5804 14.4491 48.5604 14.2428 48.5734 14.0277C48.5722 13.9575 48.6413 13.886 48.716 13.9013C48.7862 13.9001 48.8577 13.9692 48.8424 14.0438C48.8371 14.2216 48.8527 14.4114 48.8803 14.5804C48.8979 14.6462 48.8497 14.7297 48.7838 14.7473L48.8003 14.7429Z" fill="currentColor"/>
<path id="Vector_98" d="M48.223 14.1041C48.1407 14.1261 48.0692 14.0571 48.068 13.9869L47.9852 13.48C47.9852 13.48 48.0158 13.3307 48.1025 13.3251C48.1684 13.3074 48.2563 13.3721 48.2574 13.4423L48.3403 13.9492C48.3403 13.9492 48.3053 14.082 48.2395 14.0997L48.223 14.1041Z" fill="currentColor"/>
<path id="Vector_99" d="M47.6735 13.634C47.6735 13.634 47.6735 13.634 47.6571 13.6385C47.5912 13.6561 47.5033 13.5915 47.5021 13.5212L47.4357 13.0099C47.4357 13.0099 47.4707 12.8771 47.5366 12.8595C47.5366 12.8595 47.5366 12.8595 47.553 12.855C47.6189 12.8374 47.7068 12.902 47.708 12.9723L47.7744 13.4836C47.7744 13.4836 47.7394 13.6164 47.6735 13.634Z" fill="currentColor"/>
<path id="Vector_100" d="M47.2403 12.939C47.1841 12.7953 47.1939 12.634 47.2662 12.5088L47.2403 12.939Z" fill="currentColor"/>
<path id="Vector_101" d="M48.6517 18.4688C48.6164 18.3372 48.5976 18.2011 48.5832 18.0815L48.6517 18.4688Z" fill="currentColor"/>
<path id="Vector_102" d="M48.1826 18.3654C48.1826 18.3654 48.1496 18.3743 48.1332 18.3787C48.0585 18.3634 48.0079 18.3064 48.0067 18.2362C48.0285 18.054 48.0009 17.885 47.9074 17.7337C47.8898 17.6679 47.9006 17.5768 47.9621 17.5427C48.028 17.525 48.1191 17.5359 48.1532 17.5973C48.2599 17.798 48.2843 18.0207 48.2758 18.2523C48.2725 18.3061 48.232 18.3522 48.1661 18.3698L48.1826 18.3654Z" fill="currentColor"/>
<path id="Vector_103" d="M47.7162 17.679C47.7138 17.5385 47.6906 17.386 47.6883 17.2455L47.7162 17.679Z" fill="currentColor"/>
<path id="Vector_104" d="M47.3808 17.1515C47.374 16.9945 47.3837 16.8332 47.4143 16.6839L47.3808 17.1515Z" fill="currentColor"/>
<path id="Vector_105" d="M54.5826 21.3064C54.5826 21.3064 54.5661 21.3109 54.5496 21.3153C54.4838 21.3329 54.4123 21.2639 54.4067 21.1772C54.3944 20.9336 54.4106 20.6647 54.4685 20.4199C54.4838 20.3453 54.5573 20.2903 54.632 20.3055C54.7067 20.3208 54.7617 20.3943 54.7299 20.4733C54.684 20.6973 54.659 20.9332 54.6669 21.1604C54.6846 21.2262 54.6275 21.2768 54.5617 21.2944L54.5826 21.3064Z" fill="currentColor"/>
<path id="Vector_106" d="M54.2274 20.8374C54.2274 20.8374 54.2109 20.8418 54.1944 20.8462C54.1286 20.8639 54.0571 20.7948 54.0516 20.7082L54.0225 20.2045C54.0225 20.2045 53.9631 20.1146 53.9334 20.0696C53.8531 19.9677 53.752 19.8537 53.7661 19.7088C53.7814 19.6342 53.8549 19.5792 53.9296 19.5945C54.0043 19.6097 54.0593 19.6832 54.044 19.7578C54.0484 19.7743 54.1034 19.8477 54.1495 19.8883C54.2254 19.9738 54.3056 20.0757 54.3156 20.1788L54.3447 20.6825C54.3447 20.6825 54.3053 20.7989 54.2394 20.8165L54.2274 20.8374Z" fill="currentColor"/>
<path id="Vector_107" d="M53.5301 19.419C53.5607 19.2697 53.5913 19.1204 53.6098 18.992L53.5301 19.419Z" fill="currentColor"/>
</g>
<g id="Group_4">
<path id="Vector_108" d="M23.5082 42.3314C23.4094 42.3579 23.3106 42.3843 23.1986 42.3615C23.0701 42.343 22.8701 42.2555 22.7502 42.0054C22.3651 41.2268 22.8968 40.3789 23.3902 39.7175C27.1382 34.8685 33.6271 31.2251 40.7268 29.9929C41.6545 29.8325 42.591 29.705 43.4945 29.5864C44.8932 29.4056 46.3249 29.216 47.7212 28.8947C48.2975 28.7403 49.5654 28.4006 50.6554 28.0556C51.7827 27.7183 52.4699 27.5165 52.6554 27.4845C52.8036 27.4447 52.9421 27.5664 52.9818 27.7145C53.0215 27.8626 52.9041 28.0175 52.7515 28.0407C52.6033 28.0804 51.6977 28.3231 50.8174 28.5942C49.7065 28.9272 48.4474 29.2998 47.8503 29.4422C46.4374 29.7678 44.9893 29.9619 43.5742 30.147C42.6706 30.2657 41.7341 30.3932 40.8229 30.5491C33.8429 31.7669 27.5054 35.3168 23.8386 40.0736C23.2354 40.8525 23.0581 41.3762 23.2507 41.7655C23.2507 41.7655 23.2639 41.8149 23.3012 41.8225C23.3386 41.8301 23.433 41.7872 23.4824 41.774L30.5324 39.3029C31.8068 38.8556 33.0976 38.4039 34.3126 37.8667C36.8489 36.7286 39.1016 35.1902 41.2972 33.7024C41.7021 33.4352 42.1026 33.1515 42.5075 32.8843C43.6158 32.1465 44.4705 31.5823 45.31 31.0928C47.4104 29.8422 52.1729 28.0547 54.9373 27.7019C55.09 27.6787 55.224 27.7838 55.2472 27.9364C55.2705 28.0889 55.1487 28.2273 55.0126 28.2461C52.314 28.5812 47.6503 30.3423 45.5949 31.5632C44.7719 32.0483 43.9127 32.596 42.8253 33.3459C42.4204 33.6131 42.0199 33.8968 41.6315 34.1596C39.4238 35.6683 37.1591 37.2275 34.5733 38.3789C33.3254 38.9249 32.0226 39.3974 30.7438 39.8283L23.6773 42.3037C23.6773 42.3037 23.5785 42.3302 23.5291 42.3434L23.5082 42.3314Z" fill="currentColor"/>
<path id="Vector_109" d="M23.2148 42.0924C23.2148 42.0924 23.1072 42.086 23.0819 42.0575C23.0313 42.0005 23.0422 41.9094 23.0828 41.8633C24.8424 40.263 26.9745 38.9334 28.637 37.9588C35.5811 33.8407 43.264 30.6357 51.4431 28.4264C52.1511 28.2367 52.8756 28.0426 53.3902 27.6578C53.4473 27.6073 53.5384 27.6181 53.5769 27.696C53.6275 27.753 53.6166 27.8441 53.5387 27.8826C52.9791 28.2971 52.2381 28.4956 51.5301 28.6853C43.3466 30.8781 35.701 34.0907 28.7734 38.2045C27.1273 39.1746 25.0117 40.4999 23.2642 42.0792C23.2477 42.0836 23.2313 42.088 23.1983 42.0969L23.2148 42.0924Z" fill="currentColor"/>
<path id="Vector_110" d="M32.944 34.406C32.0219 34.6531 31.091 34.8672 30.1633 35.0276L29.891 35.0653C29.3674 35.1527 28.8272 35.2445 28.3256 35.4142C28.2433 35.4363 28.1807 35.4002 28.1465 35.3387C28.1289 35.2729 28.1607 35.1939 28.2221 35.1598C28.7358 34.9692 29.2924 34.873 29.837 34.7976L30.1092 34.7599C32.4059 34.3738 34.6638 33.6454 36.8394 32.939C38.4968 32.4067 40.2158 31.8403 41.9459 31.4472C42.0117 31.4296 42.0952 31.4777 42.1129 31.5436C42.1305 31.6094 42.0823 31.6929 42.0164 31.7105C40.2863 32.1035 38.5839 32.6655 36.9428 33.1934C35.6432 33.6122 34.3151 34.0563 32.9649 34.418L32.944 34.406Z" fill="currentColor"/>
<path id="Vector_111" d="M31.4145 39.3664C31.4145 39.3664 31.286 39.3479 31.2563 39.303C31.2222 39.2416 31.2496 39.1461 31.311 39.112C32.6148 38.4452 33.9591 37.7322 35.1782 36.947C36.078 36.3532 36.9393 35.6815 37.7599 35.0559C38.3601 34.5953 38.9723 34.1138 39.6098 33.6608C41.8327 32.0775 44.3415 30.7704 47.0581 29.7779C47.1195 29.7438 47.203 29.792 47.2371 29.8534C47.2548 29.9192 47.223 29.9983 47.1616 30.0324C44.4614 31.0204 41.9647 32.3067 39.7747 33.8812C39.1537 34.3298 38.5415 34.8113 37.9413 35.2719C37.1086 35.9183 36.2638 36.5856 35.3476 37.1838C34.1164 37.9899 32.7677 38.6864 31.4518 39.374C31.4518 39.374 31.4354 39.3785 31.4189 39.3829L31.4145 39.3664Z" fill="currentColor"/>
<path id="Vector_112" d="M26.391 38.6667C26.391 38.6667 26.3745 38.6711 26.3581 38.6755C26.2878 38.6767 26.2164 38.6077 26.2152 38.5374C26.2193 38.2894 26.2114 38.0623 26.2155 37.8143C26.1979 37.7484 26.2835 37.6726 26.3537 37.6714C26.424 37.6702 26.4955 37.7392 26.4966 37.8095C26.4925 38.0575 26.5004 38.2847 26.4963 38.5327C26.4974 38.6029 26.4569 38.649 26.391 38.6667Z" fill="currentColor"/>
<path id="Vector_113" d="M26.9045 38.2113C26.9045 38.2113 26.9045 38.2113 26.888 38.2157C26.8221 38.2334 26.7507 38.1644 26.7331 38.0985C26.7131 37.8923 26.6887 37.6695 26.6687 37.4632C26.6511 37.3974 26.7202 37.326 26.7861 37.3083C26.8519 37.2907 26.9234 37.3597 26.941 37.4255C26.961 37.6318 26.9809 37.8381 27.0053 38.0609C27.023 38.1267 26.9703 38.1937 26.9045 38.2113Z" fill="currentColor"/>
<path id="Vector_114" d="M27.3774 37.8024C27.3774 37.8024 27.3609 37.8068 27.3444 37.8112C27.2742 37.8124 27.2027 37.7434 27.2016 37.6732C27.2069 37.4954 27.1584 37.3144 27.0605 37.1466C27.0428 37.0808 27.0537 36.9897 27.1152 36.9556C27.181 36.9379 27.2722 36.9488 27.3063 37.0102C27.413 37.2109 27.4539 37.4292 27.4618 37.6564C27.4794 37.7222 27.4224 37.7727 27.3565 37.7904L27.3774 37.8024Z" fill="currentColor"/>
<path id="Vector_115" d="M27.7769 37.4487C27.7769 37.4487 27.6484 37.4302 27.6187 37.3853L27.3535 36.8567C27.3535 36.8567 27.3468 36.6998 27.4082 36.6657C27.4697 36.6316 27.5653 36.6589 27.5994 36.7203L27.8645 37.2489C27.8645 37.2489 27.8713 37.4058 27.8098 37.4399C27.8098 37.4399 27.7934 37.4443 27.7769 37.4487Z" fill="currentColor"/>
<path id="Vector_116" d="M28.0659 36.9477C28.0262 36.7996 27.9536 36.6603 27.8975 36.5166L28.0659 36.9477Z" fill="currentColor"/>
<path id="Vector_117" d="M28.5818 36.6333C28.5225 36.5434 28.4631 36.4535 28.3828 36.3516L28.5818 36.6333Z" fill="currentColor"/>
<path id="Vector_118" d="M29.0195 36.3573C28.9063 36.2642 28.8052 36.1502 28.7534 36.0229L29.0195 36.3573Z" fill="currentColor"/>
<path id="Vector_119" d="M29.4497 36.1184C29.3453 36.0582 29.2695 35.9727 29.2266 35.8784L29.4497 36.1184Z" fill="currentColor"/>
<path id="Vector_120" d="M30.014 35.9848C29.9426 35.9157 29.8667 35.8303 29.7788 35.7656L30.014 35.9848Z" fill="currentColor"/>
<path id="Vector_121" d="M37.1773 32.355C37.1773 32.355 37.0488 32.3366 37.0147 32.2751C36.9376 32.1194 36.7992 31.9978 36.6157 31.9059C36.5531 31.8697 36.5146 31.7919 36.5507 31.7293C36.5869 31.6667 36.6648 31.6282 36.7319 31.6807C36.9735 31.7923 37.1626 31.971 37.2693 32.1716C37.2869 32.2375 37.2761 32.3286 37.2146 32.3627C37.2146 32.3627 37.2146 32.3627 37.1817 32.3715L37.1773 32.355Z" fill="currentColor"/>
<path id="Vector_122" d="M37.6697 31.888C37.5236 31.8037 37.3939 31.715 37.3213 31.5757L37.6697 31.888Z" fill="currentColor"/>
<path id="Vector_123" d="M38.5011 31.8944C38.5011 31.8944 38.4517 31.9077 38.41 31.8836C38.1936 31.8005 38.0222 31.6877 37.8793 31.5496C37.8287 31.4926 37.8396 31.4015 37.8802 31.3553C37.9372 31.3048 38.0284 31.3156 38.0745 31.3562C38.1757 31.4702 38.3218 31.5545 38.5008 31.63C38.5799 31.6617 38.6184 31.7395 38.5823 31.8021C38.5582 31.8439 38.5296 31.8691 38.4802 31.8824L38.5011 31.8944Z" fill="currentColor"/>
<path id="Vector_124" d="M39.1255 31.6566C39.1255 31.6566 39.0596 31.6743 39.0343 31.6458L38.5466 31.4061C38.5466 31.4061 38.4454 31.2921 38.4981 31.2251C38.5298 31.1461 38.6122 31.124 38.6792 31.1766L39.1626 31.3998C39.1626 31.3998 39.2637 31.5138 39.2111 31.5808C39.1869 31.6225 39.1584 31.6478 39.1255 31.6566Z" fill="currentColor"/>
<path id="Vector_125" d="M39.8381 31.4832C39.8381 31.4832 39.7887 31.4965 39.7678 31.4844C39.5723 31.4134 39.3603 31.3467 39.1648 31.2757C39.0901 31.2604 39.0516 31.1825 39.0834 31.1035C39.1151 31.0244 39.1975 31.0024 39.2557 31.022C39.4677 31.0887 39.6632 31.1598 39.8752 31.2264C39.9499 31.2417 39.9928 31.336 39.9566 31.3986C39.9325 31.4403 39.9084 31.4821 39.859 31.4953L39.8381 31.4832Z" fill="currentColor"/>
<path id="Vector_126" d="M40.5249 31.2816C40.5249 31.2816 40.4756 31.2949 40.4591 31.2993C40.2515 31.2491 40.0395 31.1824 39.844 31.1114C39.7649 31.0797 39.7429 30.9974 39.779 30.9348C39.8108 30.8557 39.8931 30.8337 39.9557 30.8698C40.1348 30.9453 40.3259 30.9999 40.517 31.0545C40.5917 31.0698 40.6467 31.1432 40.6149 31.2223C40.6117 31.276 40.5667 31.3057 40.5173 31.319L40.5249 31.2816Z" fill="currentColor"/>
<path id="Vector_127" d="M41.053 30.946C40.9036 30.9154 40.7707 30.8805 40.6499 30.8247L41.053 30.946Z" fill="currentColor"/>
<path id="Vector_128" d="M34.8534 36.3286C34.8534 36.3286 34.7667 36.3342 34.7414 36.3057C34.5612 36.16 34.3239 36.0649 34.0625 36.0114C33.9878 35.9962 33.9329 35.9227 33.9482 35.8481C33.9635 35.7734 34.0414 35.7349 34.1117 35.7337C34.4104 35.7948 34.6894 35.914 34.907 36.0674C34.974 36.1199 34.9796 36.2066 34.939 36.2528C34.9269 36.2736 34.8984 36.2989 34.8655 36.3077L34.8534 36.3286Z" fill="currentColor"/>
<path id="Vector_129" d="M34.9905 36.1156C34.9905 36.1156 34.8829 36.1092 34.8532 36.0643C34.7773 35.9788 34.6356 35.9109 34.4742 35.9013C34.4039 35.9024 34.3325 35.8334 34.3313 35.7632C34.3301 35.6929 34.3992 35.6215 34.4695 35.6203C34.7176 35.6244 34.9385 35.7239 35.0693 35.8829C35.1199 35.9399 35.109 36.031 35.0519 36.0815C35.0355 36.086 35.019 36.0904 35.0025 36.0948L34.9905 36.1156Z" fill="currentColor"/>
<path id="Vector_130" d="M35.2899 35.7176C35.1691 35.6618 35.0438 35.5895 34.9395 35.5293L35.2899 35.7176Z" fill="currentColor"/>
<path id="Vector_131" d="M35.6159 35.4186C35.54 35.3331 35.4313 35.2565 35.2939 35.2051L35.6159 35.4186Z" fill="currentColor"/>
<path id="Vector_132" d="M36.1086 35.2163C36.0448 35.11 35.9316 35.0169 35.7822 34.9863L36.1086 35.2163Z" fill="currentColor"/>
<path id="Vector_133" d="M36.5477 35.0104C36.5003 34.8997 36.3751 34.8274 36.2422 34.7925L36.5477 35.0104Z" fill="currentColor"/>
<path id="Vector_134" d="M36.8898 34.7071C36.8898 34.7071 36.781 34.6304 36.7349 34.5898L36.8898 34.7071Z" fill="currentColor"/>
</g>
<path id="Vector_135" d="M19.9751 21.3733C19.3988 21.5277 18.7619 21.522 18.1886 21.3582C17.669 21.1976 17.3327 20.8644 17.2971 20.4683C17.2672 20.1589 17.4316 19.8503 17.73 19.6468C17.967 19.4775 18.2349 19.4234 18.4698 19.3781C18.4698 19.3781 18.4654 19.3616 18.461 19.3452C18.3025 19.0173 18.0935 18.6323 18.1315 18.1813C18.1433 17.8959 18.2956 17.6082 18.5117 17.4268C18.6829 17.2752 18.9134 17.2134 19.1121 17.2307C19.402 17.2588 19.6328 17.4615 19.7922 17.5952L20.556 18.2723C20.7615 18.4466 20.9715 18.6372 21.2011 18.7697C21.7438 19.0828 22.0658 19.2964 22.0881 19.6431C22.1104 19.9899 21.7967 20.2679 21.4006 20.5681L21.2357 20.3477L21.3841 20.5725C21.1965 20.7286 20.988 20.8726 20.7631 21.0211C20.5217 21.1739 20.2506 21.2818 19.9707 21.3569L19.9751 21.3733ZM18.331 19.9796C18.2322 20.0061 18.1169 20.037 18.0478 20.1084C17.9293 20.1931 17.857 20.3183 17.8505 20.4258C17.8661 20.6157 18.133 20.7558 18.3494 20.8389C19.0601 21.0541 19.844 20.9499 20.487 20.5836C20.6835 20.4604 20.8755 20.3208 21.051 20.1855L21.228 20.385L21.0631 20.1647C21.4592 19.8645 21.5315 19.7393 21.5391 19.702C21.5171 19.6197 21.0996 19.3789 20.9161 19.287C20.6403 19.1139 20.3931 18.9156 20.1832 18.725L19.4193 18.0478C19.3017 17.9382 19.1677 17.8331 19.0392 17.8146C18.9689 17.8158 18.9074 17.8499 18.846 17.884C18.744 17.9642 18.676 18.1059 18.6619 18.2508C18.6501 18.5361 18.8042 18.8476 18.9494 19.1261C19.022 19.2654 19.0726 19.3224 19.0934 19.3344C19.0934 19.3344 19.1099 19.33 19.1264 19.3256C19.2669 19.3232 19.401 19.4284 19.4198 19.5644C19.4386 19.7005 19.3422 19.8674 19.2016 19.8698C19.1687 19.8786 19.1193 19.8919 19.0819 19.8842C18.9085 19.8955 18.7394 19.9231 18.5703 19.9508C18.488 19.9728 18.4221 19.9905 18.3398 20.0126L18.331 19.9796Z" fill="currentColor"/>
<path id="Vector_136" d="M15.0298 22.8746C13.8772 23.1834 12.8846 23.1672 12.0146 22.8183C10.7535 22.3273 9.94975 21.2376 9.1592 20.1972C8.4489 19.2588 7.78917 18.3774 6.82568 17.8772C6.72571 17.8334 6.67838 17.7226 6.68486 17.6151C6.69134 17.5075 6.77249 17.4152 6.86688 17.3723C8.34323 16.8885 9.91658 16.7668 11.4223 17.0512C12.1065 17.1677 12.7633 17.3797 13.3949 17.5632L18.7681 19.1745C18.9219 19.2215 18.9989 19.3772 18.9474 19.5145C18.9004 19.6682 18.7445 19.7452 18.6072 19.6938L13.234 18.0825C12.6189 17.8945 11.9665 17.699 11.3196 17.5901C10.0962 17.3712 8.81922 17.4136 7.6128 17.7192C8.39958 18.2844 9.00433 19.0923 9.5838 19.8718C10.3535 20.9001 11.0935 21.8835 12.1963 22.3111C13.3201 22.7507 14.7188 22.5699 16.4583 21.7511C16.9917 21.5023 17.5163 21.2207 18.032 20.9061C18.167 20.8171 18.3372 20.8596 18.4098 20.9989C18.4989 21.1338 18.4563 21.3039 18.3169 21.3765C17.8011 21.6911 17.2436 21.9816 16.6982 22.2512C16.1034 22.534 15.5403 22.7378 15.0134 22.879L15.0298 22.8746Z" fill="currentColor"/>
<path id="Vector_137" d="M18.4561 18.7997C18.3573 18.8262 18.2617 18.7989 18.1903 18.7298C15.8633 16.3022 12.9625 14.434 9.78917 13.3267C8.91153 13.0151 7.89774 12.7224 6.95918 12.9738L6.92625 12.9827C6.6134 13.0665 6.40051 13.1941 6.27113 13.3699C5.98383 13.7467 6.0964 14.2985 6.22751 14.7219C6.5491 15.6587 7.17914 16.4951 7.98679 17.0724C8.11645 17.1611 8.14407 17.33 8.05526 17.4597C7.96646 17.5893 7.79739 17.6169 7.66773 17.5282C6.77217 16.8864 6.07834 15.9435 5.70942 14.896C5.44838 14.1194 5.49165 13.4905 5.82717 13.0303C6.03772 12.7622 6.35705 12.5708 6.78075 12.4397L6.81368 12.4308C7.88397 12.144 9.00536 12.4432 9.9621 12.7865C13.1981 13.93 16.1867 15.8628 18.5599 18.331C18.6611 18.445 18.6558 18.6228 18.5581 18.7195C18.5296 18.7447 18.4846 18.7744 18.4352 18.7877L18.4561 18.7997Z" fill="currentColor"/>
<path id="Vector_138" d="M19.4079 17.8745C19.2762 17.9098 19.1345 17.8419 19.0783 17.6982C18.6621 16.5399 18.1788 15.329 17.4256 14.2963C16.8626 13.5124 15.903 12.4997 14.5278 12.1098C13.8381 11.9067 13.11 11.8901 12.3238 11.8538C11.6452 11.824 10.9337 11.8031 10.2571 11.6492C10.5387 12.1734 10.8654 12.6679 11.237 13.1327C11.3381 13.2467 11.3163 13.4289 11.1979 13.5136C11.0794 13.5982 10.9015 13.593 10.8168 13.4746C10.2682 12.8103 9.82603 12.0822 9.49472 11.3068C9.4518 11.2125 9.47033 11.0841 9.5559 11.0082C9.625 10.9368 9.75673 10.9015 9.85229 10.9288C10.6223 11.2339 11.4744 11.2525 12.3638 11.2787C13.1292 11.3029 13.9319 11.3348 14.6963 11.5532C16.2088 11.9945 17.2651 13.1048 17.8787 13.9456C18.666 15.0398 19.179 16.2956 19.6041 17.4868C19.6438 17.6349 19.5802 17.793 19.4365 17.8492C19.4365 17.8492 19.4365 17.8492 19.42 17.8536L19.4079 17.8745Z" fill="currentColor"/>
<path id="Vector_139" d="M7.29231 14.6132C7.29231 14.6132 7.14295 14.5827 7.12091 14.5004C7.05036 14.2371 7.02921 13.9606 6.99601 13.7049C6.97837 13.6391 7.03101 13.5721 7.11333 13.55C7.1792 13.5324 7.25064 13.6014 7.26828 13.6673C7.28061 13.9109 7.33028 14.1621 7.38436 14.4298C7.402 14.4956 7.35377 14.5791 7.28791 14.5967L7.29231 14.6132Z" fill="currentColor"/>
<path id="Vector_140" d="M7.62381 14.4006C7.62381 14.4006 7.60734 14.405 7.59088 14.4095C7.5206 14.4106 7.45357 14.3581 7.44799 14.2714C7.44889 14.0771 7.43332 13.8873 7.42981 13.6766C7.42864 13.6064 7.48127 13.5394 7.56801 13.5338C7.63828 13.5326 7.70532 13.5851 7.7109 13.6718C7.71 13.8661 7.72557 14.0559 7.72908 14.2666C7.74672 14.3324 7.68967 14.383 7.62381 14.4006Z" fill="currentColor"/>
<path id="Vector_141" d="M8.03847 14.2369C8.03172 14.08 8.0579 13.9143 8.10495 13.7605L8.03847 14.2369Z" fill="currentColor"/>
<path id="Vector_142" d="M8.57358 14.3228C8.5877 14.1779 8.6227 14.0451 8.63683 13.9002L8.57358 14.3228Z" fill="currentColor"/>
<path id="Vector_143" d="M9.15235 14.573C9.15235 14.573 9.15235 14.573 9.13588 14.5774C9.07002 14.5951 8.98211 14.5304 8.98094 14.4602C8.96537 14.2704 8.9992 14.0673 9.07919 13.9048C9.11536 13.8422 9.19328 13.8037 9.26031 13.8563C9.32294 13.8924 9.34498 13.9747 9.30881 14.0373C9.25294 14.1581 9.21794 14.2909 9.23674 14.4269C9.25438 14.4928 9.20174 14.5598 9.13588 14.5774L9.15235 14.573Z" fill="currentColor"/>
<path id="Vector_144" d="M9.63022 14.71C9.72343 14.5969 9.74962 14.4311 9.70993 14.283L9.63022 14.71Z" fill="currentColor"/>
<path id="Vector_145" d="M10.1892 14.7538C10.1892 14.7538 10.2318 14.5837 10.2427 14.4926L10.1892 14.7538Z" fill="currentColor"/>
<path id="Vector_146" d="M10.579 14.8261C10.626 14.6724 10.6566 14.5231 10.7037 14.3694L10.579 14.8261Z" fill="currentColor"/>
<path id="Vector_147" d="M11.3152 15.0698C11.4084 14.9567 11.4434 14.8238 11.4411 14.6834L11.3152 15.0698Z" fill="currentColor"/>
<path id="Vector_148" d="M11.9598 15.3024C12.02 15.1981 12.0715 15.0608 12.0736 14.9368L11.9598 15.3024Z" fill="currentColor"/>
<path id="Vector_149" d="M12.7717 15.6319C12.7717 15.6319 12.8352 15.4738 12.8131 15.3915L12.7717 15.6319Z" fill="currentColor"/>
<path id="Vector_150" d="M13.466 16.116C13.466 16.116 13.5416 15.937 13.4987 15.8427L13.466 16.116Z" fill="currentColor"/>
<path id="Vector_151" d="M13.886 13.534C13.886 13.534 13.8201 13.5516 13.774 13.5111C13.7113 13.4749 13.6893 13.3927 13.7255 13.3301C13.8263 13.1796 13.9019 13.0006 13.9445 12.8304C13.9598 12.7558 14.0378 12.7173 14.1124 12.7325C14.1871 12.7478 14.2256 12.8257 14.2103 12.9003C14.1601 13.1078 14.0724 13.3076 13.9639 13.4954C13.9354 13.5207 13.9233 13.5416 13.8904 13.5504L13.886 13.534Z" fill="currentColor"/>
<path id="Vector_152" d="M14.4891 13.7429C14.4891 13.7429 14.4397 13.7562 14.4189 13.7441C14.3442 13.7289 14.3057 13.651 14.321 13.5764L14.531 12.7794C14.531 12.7794 14.6242 12.6662 14.6989 12.6815C14.7735 12.6967 14.8121 12.7746 14.7968 12.8492L14.5868 13.6462C14.5868 13.6462 14.5385 13.7297 14.4891 13.7429Z" fill="currentColor"/>
<path id="Vector_153" d="M15.1879 13.9791C15.1879 13.9791 15.155 13.9879 15.1385 13.9923C15.0682 13.9935 14.9968 13.9245 15.0121 13.8498C15.025 13.6347 15.0918 13.4228 15.1838 13.2394C15.22 13.1768 15.3023 13.1548 15.365 13.1909C15.4276 13.227 15.4496 13.3093 15.4135 13.3719C15.3291 13.518 15.2864 13.6881 15.2646 13.8703C15.2614 13.9241 15.2252 13.9867 15.1594 14.0044L15.1879 13.9791Z" fill="currentColor"/>
<path id="Vector_154" d="M15.7834 14.4894C15.7834 14.4894 15.634 14.4589 15.612 14.3766C15.5547 14.1627 15.6126 13.9179 15.7211 13.7301C15.7573 13.6675 15.8396 13.6454 15.9023 13.6816C15.9649 13.7177 15.9869 13.8 15.9508 13.8626C15.8664 14.0086 15.8402 14.1744 15.8799 14.3225C15.8975 14.3883 15.8493 14.4718 15.7834 14.4894Z" fill="currentColor"/>
<path id="Vector_155" d="M16.3129 15.018C16.3129 15.018 16.2965 15.0224 16.28 15.0268C16.2142 15.0445 16.1427 14.9754 16.1415 14.9052C16.1172 14.6825 16.1795 14.4541 16.288 14.2663C16.3242 14.2037 16.4065 14.1817 16.4856 14.2134C16.5482 14.2495 16.5703 14.3318 16.5341 14.3944C16.4497 14.5405 16.4071 14.7106 16.4347 14.8796C16.4523 14.9454 16.3997 15.0124 16.3338 15.0301L16.3129 15.018Z" fill="currentColor"/>
<path id="Vector_156" d="M16.9022 15.3715C16.9328 15.2222 16.9469 15.0773 16.9775 14.928L16.9022 15.3715Z" fill="currentColor"/>
<path id="Vector_157" d="M17.5788 15.7896C17.5788 15.7896 17.5347 15.625 17.5709 15.5624L17.5788 15.7896Z" fill="currentColor"/>
<path id="Vector_158" d="M18.4649 17.8451C18.4649 17.8451 18.3573 17.8386 18.3276 17.7937L17.5603 16.9058C17.5603 16.9058 17.5206 16.7577 17.5776 16.7072C17.6347 16.6566 17.7258 16.6675 17.7764 16.7245L18.5437 17.6123C18.5437 17.6123 18.5834 17.7604 18.5264 17.811C18.5099 17.8154 18.4934 17.8198 18.4605 17.8286L18.4649 17.8451Z" fill="currentColor"/>
<path id="Vector_159" d="M18.77 17.5341C18.77 17.5341 18.6459 17.532 18.6118 17.4706C18.4292 17.1845 18.2511 16.9147 18.04 16.6538C17.9894 16.5968 18.0003 16.5057 18.0573 16.4552C18.1144 16.4046 18.2055 16.4155 18.2561 16.4725C18.4716 16.7498 18.6542 17.036 18.8367 17.3222C18.8708 17.3836 18.86 17.4747 18.7985 17.5088L18.7656 17.5176L18.77 17.5341Z" fill="currentColor"/>
<path id="Vector_160" d="M17.9607 18.8621C17.9607 18.8621 17.8948 18.8797 17.8531 18.8556C17.4235 18.6357 16.9895 18.3992 16.56 18.1792C16.3557 18.0752 16.1513 17.9713 15.9361 17.9584C15.8658 17.9596 15.7944 17.8905 15.7932 17.8203C15.792 17.7501 15.8611 17.6786 15.9314 17.6775C16.2169 17.6891 16.463 17.8172 16.6673 17.9212C17.0969 18.1412 17.5309 18.3776 17.9604 18.5976C18.023 18.6337 18.0451 18.716 18.0133 18.7951C17.9892 18.8368 17.9607 18.8621 17.9278 18.8709L17.9607 18.8621Z" fill="currentColor"/>
<path id="Vector_161" d="M17.5743 19.9883C17.5743 19.9883 17.5413 19.9971 17.5249 20.0015C17.0483 19.9352 16.5684 19.9227 16.1094 19.9222C16.0392 19.9234 15.9721 19.8709 15.9665 19.7842C15.9654 19.7139 16.0345 19.6425 16.1047 19.6413C16.5966 19.633 17.0809 19.6619 17.574 19.7238C17.6487 19.7391 17.6992 19.7961 17.6884 19.8872C17.6851 19.941 17.6445 19.9871 17.5787 20.0048L17.5743 19.9883Z" fill="currentColor"/>
<path id="Vector_162" d="M17.3674 20.4671C17.3674 20.4671 17.3345 20.4759 17.318 20.4803C16.8623 20.4261 16.4001 20.4794 15.9643 20.6314C15.8984 20.6491 15.8194 20.6173 15.7808 20.5395C15.7588 20.4572 15.795 20.3946 15.8729 20.3561C16.3416 20.1952 16.8576 20.1451 17.3507 20.207C17.4254 20.2223 17.4759 20.2793 17.4815 20.366C17.4783 20.4197 17.4377 20.4659 17.3718 20.4835L17.3674 20.4671Z" fill="currentColor"/>
<path id="Vector_163" d="M16.1651 21.5126C16.1651 21.5126 16.041 21.5106 16.0069 21.4492C15.9728 21.3878 15.9837 21.2967 16.0616 21.2582C16.5488 20.9689 17.079 20.7739 17.6356 20.6777C17.7015 20.6601 17.785 20.7082 17.7905 20.7949C17.8082 20.8607 17.7555 20.9277 17.6897 20.9454C17.166 21.0328 16.6688 21.2189 16.2145 21.4994C16.2145 21.4994 16.198 21.5038 16.1816 21.5082L16.1651 21.5126Z" fill="currentColor"/>
<path id="Vector_164" d="M9.73911 19.0015C9.73911 19.0015 9.72264 19.006 9.70617 19.0104C9.6359 19.0116 9.56446 18.9425 9.56329 18.8723C9.55654 18.7154 9.53332 18.5629 9.49364 18.4148C9.47159 18.3325 9.50776 18.2699 9.58568 18.2314C9.58568 18.2314 9.73064 18.2454 9.75268 18.3277C9.80118 18.5087 9.84968 18.6897 9.84438 18.8675C9.84555 18.9378 9.80497 18.9839 9.73911 19.0015Z" fill="currentColor"/>
<path id="Vector_165" d="M10.0867 18.7849C10.0515 18.6532 10.0941 18.4831 10.1709 18.3743L10.0867 18.7849Z" fill="currentColor"/>
<path id="Vector_166" d="M10.7017 18.9731C10.7017 18.9731 10.6523 18.9863 10.6314 18.9742C10.5567 18.959 10.5182 18.8811 10.5335 18.8065C10.5762 18.6363 10.6188 18.4662 10.6615 18.296C10.6768 18.2214 10.7547 18.1828 10.8294 18.1981C10.904 18.2134 10.9426 18.2912 10.9273 18.3659C10.8846 18.536 10.842 18.7062 10.7993 18.8764C10.7796 18.9345 10.7511 18.9598 10.7017 18.9731Z" fill="currentColor"/>
<path id="Vector_167" d="M11.2051 19.1378L11.1721 19.1466C11.1019 19.1478 11.0304 19.0787 11.0457 19.0041C11.0466 18.8098 11.1178 18.6144 11.2143 18.4475C11.2504 18.3849 11.3327 18.3628 11.3954 18.3989C11.458 18.4351 11.48 18.5173 11.4483 18.5964C11.3595 18.726 11.3289 18.8753 11.3148 19.0202C11.3115 19.074 11.2754 19.1366 11.2095 19.1542L11.2051 19.1378Z" fill="currentColor"/>
<path id="Vector_168" d="M11.8241 19.0777C11.9129 18.9481 11.9599 18.7944 11.9532 18.6375L11.8241 19.0777Z" fill="currentColor"/>
<path id="Vector_169" d="M12.3879 19.4028C12.3879 19.4028 12.3714 19.4072 12.355 19.4116C12.2847 19.4128 12.2177 19.3602 12.2121 19.2735C12.2042 19.0464 12.2874 18.8301 12.4212 18.6708C12.4782 18.6202 12.5605 18.5982 12.6111 18.6552C12.6782 18.7077 12.6837 18.7944 12.6267 18.845C12.5335 18.9582 12.4699 19.1163 12.4767 19.2732C12.4943 19.339 12.4373 19.3896 12.3714 19.4072L12.3879 19.4028Z" fill="currentColor"/>
<path id="Vector_170" d="M12.9846 19.719C12.9846 19.719 12.9681 19.7234 12.9516 19.7278C12.8858 19.7455 12.8143 19.6765 12.8087 19.5898C12.8052 19.3791 12.827 19.1969 12.8982 19.0014C12.9299 18.9224 13.0079 18.8839 13.0705 18.92C13.1496 18.9517 13.1881 19.0296 13.1519 19.0922C13.1049 19.2459 13.0787 19.4116 13.0854 19.5685C13.1031 19.6344 13.046 19.6849 12.9802 19.7026L12.9846 19.719Z" fill="currentColor"/>
<path id="Vector_171" d="M13.6962 20.0045C13.6962 20.0045 13.6962 20.0045 13.6797 20.0089C13.6138 20.0266 13.5424 19.9575 13.5248 19.8917C13.5092 19.7019 13.531 19.5197 13.5901 19.3451C13.6218 19.266 13.6833 19.2319 13.7624 19.2637C13.8415 19.2954 13.88 19.3732 13.8438 19.4358C13.7923 19.5731 13.7782 19.718 13.8014 19.8705C13.8191 19.9363 13.7664 20.0033 13.7006 20.0209L13.6962 20.0045Z" fill="currentColor"/>
<path id="Vector_172" d="M14.3214 20.2959C14.3214 20.2959 14.2884 20.3047 14.272 20.3092C14.1973 20.2939 14.1423 20.2204 14.1576 20.1458C14.1838 19.9801 14.21 19.8143 14.2153 19.6365C14.2306 19.5619 14.2876 19.5113 14.3579 19.5101C14.4326 19.5254 14.4831 19.5824 14.4843 19.6526C14.4625 19.8348 14.4363 20.0006 14.4146 20.1828C14.4113 20.2365 14.3707 20.2827 14.3214 20.2959Z" fill="currentColor"/>
<path id="Vector_173" d="M21.0521 20.2557C21.0521 20.2557 21.0191 20.2645 21.0027 20.2689C20.8204 20.2472 20.6272 20.3166 20.4176 20.3904L20.2694 20.4301C19.8292 20.5657 19.3879 20.6311 18.9201 20.5977C18.8498 20.5989 18.7783 20.5298 18.7936 20.4552C18.7925 20.3849 18.8616 20.3135 18.9362 20.3288C19.3667 20.3545 19.7751 20.298 20.1824 20.1713L20.3141 20.136C20.5402 20.0577 20.7663 19.9795 21.0024 20.0044C21.0771 20.0197 21.1277 20.0767 21.1288 20.1469C21.1256 20.2007 21.085 20.2468 21.0191 20.2645L21.0521 20.2557Z" fill="currentColor"/>
<path id="Vector_174" d="M21.6756 19.9478C21.6756 19.9478 21.6591 19.9523 21.6426 19.9567C21.064 19.9706 20.4633 19.9023 19.9064 19.7341C19.8317 19.7188 19.7932 19.6409 19.8085 19.5663C19.8238 19.4916 19.9017 19.4531 19.9764 19.4684C20.5124 19.6246 21.0802 19.7017 21.6424 19.6922C21.7126 19.691 21.7797 19.7436 21.7852 19.8303C21.8029 19.8961 21.7458 19.9467 21.68 19.9643L21.6756 19.9478Z" fill="currentColor"/>
<path id="Vector_175" d="M20.9963 19.389C20.9963 19.389 20.9633 19.3979 20.9304 19.4067C20.3912 19.3043 19.8793 19.1063 19.4036 18.8458C19.3409 18.8097 19.3189 18.7274 19.3551 18.6648C19.3912 18.6022 19.4736 18.5801 19.5527 18.6118C20.0075 18.8603 20.4985 19.0462 21.0048 19.1575C21.0795 19.1727 21.1345 19.2462 21.1192 19.3208C21.1159 19.3746 21.071 19.4043 21.0216 19.4175L20.9963 19.389Z" fill="currentColor"/>
</g>
</svg>
