<svg width="167" height="152" viewBox="0 0 167 152" fill="none" xmlns="http://www.w3.org/2000/svg">
<path d="M0.309915 36.9839C0.581714 38.0127 1.91918 39.2673 3.3933 40.4858L3.60334 40.6625C9.49691 45.6231 15.9126 50.119 22.1208 54.4806C23.2099 55.2505 24.3048 56.0103 25.3858 56.7823C33.3225 62.3812 40.7635 66.4945 48.1516 69.3663C49.3881 69.8479 50.6706 70.3087 51.9709 70.7391C58.6082 72.9495 65.5024 74.3095 72.1621 75.6284C75.6638 76.3198 79.2929 77.0377 82.8044 77.8641C92.6251 80.1793 105.372 83.742 116.821 90.8206C116.975 90.9173 117.175 90.8905 117.294 90.7558C117.413 90.6211 117.429 90.4193 117.33 90.2734C114.897 86.8577 110.871 84.9634 106.613 83.1649C103.313 81.7752 99.9269 80.3482 96.5623 79.1993C90.6555 77.1828 84.8796 75.7595 80.009 74.6387C78.6073 74.3125 77.181 73.9585 75.7467 73.6065C71.9837 72.6746 68.0933 71.7162 64.4128 71.2268C55.9854 70.117 46.6577 66.5108 35.9006 60.1953C31.8908 57.841 27.6427 55.3004 23.6577 52.3893C22.827 51.7833 21.9903 51.1875 21.1557 50.5997C19.1872 49.2023 17.1556 47.7614 15.2652 46.1714C14.2048 45.2822 13.1605 44.3886 12.1103 43.5053C10.9906 42.5543 9.87891 41.6013 8.74528 40.6626C8.62289 40.5573 8.43316 40.3925 8.18626 40.174C5.30947 37.6494 2.45787 35.3503 1.06176 35.5987C0.758004 35.6532 0.518234 35.8197 0.374628 36.0898C0.23103 36.3599 0.206773 36.6587 0.291712 36.9802L0.309915 36.9839ZM115.175 88.9511C104.182 82.6206 92.2769 79.3168 82.978 77.1217C79.4563 76.2894 75.8192 75.5736 72.3074 74.8763C65.6658 73.5613 58.7979 72.2029 52.2072 70.006C50.9149 69.5735 49.6425 69.1186 48.4243 68.6408C41.0949 65.7964 33.7026 61.7046 25.8189 56.1434C24.732 55.3815 23.6429 54.6116 22.5459 53.8438C16.3499 49.4962 9.94441 45.0061 4.07541 40.0734L3.86538 39.8968C1.18817 37.672 0.853893 36.7972 1.04693 36.4539C1.0765 36.4031 1.11031 36.3684 1.20085 36.353C2.43196 36.131 6.38613 39.6091 7.68584 40.7533C7.93273 40.9718 8.13261 41.1426 8.255 41.2478C9.3806 42.1886 10.5003 43.1396 11.6098 44.0847C12.6541 44.9781 13.7065 45.8695 14.7669 46.7588C16.6776 48.3606 18.7295 49.8134 20.7082 51.2167C21.5347 51.8066 22.3693 52.3943 23.2001 53.0003C27.2155 55.9292 31.4759 58.4838 35.5061 60.8498C46.3546 67.2185 55.7695 70.8619 64.3018 71.9784C67.9357 72.4543 71.8079 73.4089 75.5527 74.3371C76.9892 74.697 78.4155 75.0511 79.8253 75.3751C84.6776 76.4921 90.4251 77.9058 96.3036 79.9125C99.6398 81.0518 103.016 82.4728 106.267 83.841C109.633 85.2561 112.824 86.7259 115.154 88.9392L115.175 88.9511Z" fill="currentColor" />
<path d="M62.745 71.3577C62.7705 71.4541 62.8721 71.5133 62.9706 71.4958L71.7664 69.3784C74.102 68.813 76.5201 68.2343 78.918 67.8072C79.8635 67.6434 80.8294 67.4914 81.7631 67.3479C83.6729 67.0583 85.6571 66.7576 87.5662 66.2705C91.085 65.3666 94.4318 63.8118 97.6643 62.3129C103.791 59.4647 110.123 56.5191 115.862 52.7244C115.95 52.6667 115.971 52.5495 115.913 52.4616C115.855 52.3736 115.738 52.353 115.65 52.4106C109.934 56.1909 103.615 59.1243 97.5045 61.9682C94.288 63.4628 90.9573 65.0134 87.4707 65.9088C85.5776 66.3917 83.6116 66.6962 81.7099 66.9836C80.7762 67.1271 79.8001 67.2732 78.8546 67.437C76.4385 67.8604 74.0225 68.447 71.6789 69.0146L62.8831 71.132C62.7786 71.1596 62.7195 71.2612 62.745 71.3577Z" fill="currentColor" />
<path d="M62.2465 71.3261C62.272 71.4225 62.3817 71.4796 62.4781 71.4541L73.4748 68.1963C75.8589 67.4891 78.3233 66.7606 80.6428 65.7437C82.0301 65.1364 83.3577 64.4331 84.5909 63.7634C88.3988 61.7084 92.1846 59.5044 95.8361 57.2155C95.9241 57.1579 95.9549 57.0466 95.8972 56.9586C95.8396 56.8707 95.7283 56.8399 95.6403 56.8975C91.9947 59.1762 88.217 61.3781 84.4171 63.431C83.1817 64.0927 81.8703 64.7917 80.491 65.3968C78.1935 66.3994 75.7451 67.1236 73.369 67.8287L62.3643 71.0886C62.2679 71.1141 62.2088 71.2157 62.2364 71.3202L62.2465 71.3261Z" fill="currentColor" />
<path d="M62.0093 71.3714C62.0348 71.4679 62.1284 71.5291 62.2269 71.5117L76.5422 69.1312C77.3753 68.9972 78.1981 68.8572 79.002 68.8081C79.8825 68.7561 80.7826 68.8106 81.6484 68.8657L81.9793 68.8814C85.103 69.0536 88.2791 69.0657 91.4106 68.9091C92.4726 68.8607 93.7317 68.7774 94.951 68.5756C96.969 68.2403 98.9043 67.5914 100.706 66.6338C100.796 66.5842 100.837 66.4788 100.786 66.3807C100.736 66.2906 100.623 66.2518 100.533 66.3014C98.7664 67.2323 96.8735 67.8786 94.8957 68.2033C93.7005 68.3987 92.5099 68.4811 91.3975 68.5342C88.2741 68.6887 85.1162 68.6804 82.0085 68.504L81.6776 68.4882C80.7958 68.4374 79.8877 68.385 78.989 68.4333C78.1588 68.4806 77.3258 68.6147 76.5271 68.7483L62.1716 71.1394C62.073 71.1568 61.9956 71.2546 62.0131 71.3532C62.0131 71.3532 62.0152 71.3612 62.0173 71.3693L62.0093 71.3714Z" fill="currentColor" />
<path d="M88.2312 63.0594C88.2419 63.0996 88.2685 63.1356 88.3113 63.1673C88.5006 63.2978 88.6345 63.5118 88.6639 63.7534C88.6755 63.8621 88.7712 63.9314 88.8719 63.922C88.9725 63.9126 89.0499 63.8148 89.0405 63.7141C88.9936 63.3739 88.8058 63.0538 88.523 62.862C88.4396 62.8066 88.3169 62.8304 88.2616 62.9139C88.2299 62.9566 88.2206 63.0193 88.2334 63.0675L88.2312 63.0594Z" fill="currentColor" />
<path d="M88.8484 62.5957C88.8484 62.5957 88.8548 62.6198 88.8569 62.6278L89.2571 63.4593C89.2987 63.5515 89.4121 63.5903 89.5124 63.5467C89.6046 63.5051 89.6455 63.3997 89.5997 63.2914L89.2016 62.468C89.16 62.3758 89.0466 62.3369 88.9464 62.3806C88.8622 62.4201 88.8191 62.5174 88.8404 62.5978L88.8484 62.5957Z" fill="currentColor" />
<path d="M89.3872 62.1953C89.3872 62.1953 89.3914 62.2114 89.3936 62.2194L89.6981 62.9816C89.7316 63.076 89.8472 63.1228 89.9415 63.0893C90.0358 63.0558 90.0988 62.936 90.0492 62.8459L89.7446 62.0837C89.7111 61.9894 89.5956 61.9425 89.5012 61.976C89.4069 62.0096 89.3638 62.1069 89.3893 62.2034L89.3872 62.1953Z" fill="currentColor" />
<path d="M89.9583 61.9155C89.9583 61.9155 89.9834 61.9777 90.0079 62.0056C90.2532 62.2504 90.4346 62.5464 90.5457 62.8696C90.5712 62.966 90.6889 63.0209 90.7832 62.9874C90.8797 62.9619 90.9164 62.8404 90.901 62.7499C90.775 62.3705 90.5546 62.0246 90.2645 61.7401C90.1929 61.6644 90.074 61.67 89.9984 61.7416C89.9506 61.7886 89.9354 61.8614 89.9524 61.9257L89.9583 61.9155Z" fill="currentColor" />
<path d="M91.1736 62.48C91.197 62.5684 91.2825 62.6318 91.373 62.6165C91.4737 62.6071 91.5532 62.5173 91.5417 62.4085C91.4981 62.0159 91.4042 61.628 91.2423 61.2753C91.2007 61.1831 91.0852 61.1362 90.9929 61.1778C90.9007 61.2193 90.8336 61.323 90.8954 61.4271C91.0409 61.7498 91.122 62.0895 91.163 62.4398C91.1651 62.4478 91.1672 62.4559 91.1715 62.472L91.1736 62.48Z" fill="currentColor" />
<path d="M91.5086 61.1447C91.5999 61.4904 91.7657 61.8249 91.9953 62.1082C92.0588 62.186 92.1841 62.2045 92.2619 62.1409C92.3397 62.0774 92.3603 61.9601 92.2946 61.8743C92.0917 61.627 91.9382 61.3064 91.8698 61.0149C91.8444 60.9185 91.7406 60.8513 91.6442 60.8768C91.5316 60.9065 91.4827 61.014 91.5188 61.1506L91.5086 61.1447Z" fill="currentColor" />
<path d="M92.61 61.765C92.6355 61.8615 92.7392 61.9287 92.8357 61.9032C92.9321 61.8777 92.9993 61.774 92.9738 61.6775L92.6756 60.4837C92.6502 60.3873 92.5464 60.3201 92.45 60.3456C92.3535 60.3711 92.2863 60.4748 92.3118 60.5712L92.61 61.765Z" fill="currentColor" />
<path d="M93.2202 61.1139C93.235 61.1701 93.2499 61.2264 93.2648 61.2827C93.2881 61.3711 93.3715 61.4264 93.4621 61.4111C93.5467 61.4059 93.6224 61.3344 93.6333 61.2455C93.6862 60.8274 93.5741 60.4357 93.4608 60.1045C93.4294 60.0182 93.3379 59.9649 93.2474 59.9803C93.159 60.0036 93.0914 60.0731 93.0906 60.1679C93.0968 60.4844 93.1352 60.7924 93.2159 61.0978L93.2202 61.1139Z" fill="currentColor" />
<path d="M94.6658 60.9209C94.6891 61.0093 94.7725 61.0646 94.8652 61.0573C94.9659 61.0479 95.0453 60.9582 95.044 60.8553C95.0148 60.4847 95.0703 60.1089 95.205 59.7724C95.2481 59.675 95.1942 59.5689 95.0969 59.5258C95.0016 59.4908 94.8933 59.5366 94.8503 59.6339C94.6962 60.0272 94.6315 60.4656 94.6653 60.8866C94.6674 60.8946 94.6717 60.9107 94.6738 60.9187L94.6658 60.9209Z" fill="currentColor" />
<path d="M95.426 60.6426C95.443 60.7069 95.4921 60.7627 95.5649 60.7779C95.6661 60.8028 95.768 60.7328 95.7929 60.6317L96.0229 59.5821C96.0499 59.489 95.9859 59.3769 95.8767 59.3542C95.7755 59.3293 95.6736 59.3992 95.6488 59.5004L95.4187 60.55C95.4187 60.55 95.4175 60.6105 95.4239 60.6346L95.426 60.6426Z" fill="currentColor" />
<path d="M96.1282 60.5004C96.1473 60.5727 96.2044 60.6264 96.2853 60.6394C96.3923 60.6541 96.4862 60.5863 96.5009 60.4793L96.675 59.3155C96.6977 59.2063 96.6219 59.1145 96.5148 59.0998C96.4078 59.0851 96.3139 59.1529 96.2992 59.26L96.1171 60.4259C96.1171 60.4259 96.1138 60.4784 96.1201 60.5025L96.1282 60.5004Z" fill="currentColor" />
<path d="M96.9343 60.0379C96.9555 60.1182 97.0207 60.1698 97.1096 60.1807C97.2145 60.1874 97.3041 60.1035 97.3108 59.9986C97.3249 59.6939 97.4316 59.3819 97.6057 59.1296C97.6611 59.0462 97.6394 58.9315 97.5539 58.8681C97.4705 58.8128 97.3478 58.8366 97.2924 58.92C97.0748 59.2355 96.9567 59.602 96.9274 59.9795C96.9317 59.9955 96.93 60.0218 96.9343 60.0379Z" fill="currentColor" />
<path d="M97.8807 59.7791C97.8977 59.8434 97.9447 59.8912 98.0116 59.9165C98.1127 59.9414 98.2189 59.8876 98.2437 59.7864L98.552 58.7075C98.5769 58.6064 98.523 58.5002 98.4219 58.4754C98.3207 58.4505 98.2146 58.5043 98.1897 58.6055L97.8814 59.6844C97.8814 59.6844 97.8743 59.755 97.8828 59.7872L97.8807 59.7791Z" fill="currentColor" />
<path d="M99.1135 59.402C99.1284 59.4582 99.1754 59.506 99.2342 59.5335C99.3295 59.5685 99.4437 59.5125 99.4787 59.4173C99.6129 59.0465 99.6599 58.6385 99.6324 58.2417C99.623 58.141 99.5332 58.0615 99.4304 58.0629C99.3297 58.0723 99.2503 58.1621 99.2516 58.2649C99.2744 58.6114 99.2307 58.9669 99.1181 59.289C99.1025 59.3275 99.1029 59.3618 99.1135 59.402Z" fill="currentColor" />
<path d="M100.011 58.9926C100.028 59.0569 100.075 59.1046 100.142 59.13C100.244 59.1548 100.35 59.101 100.375 58.9998L100.601 58.166C100.628 58.0729 100.572 57.9587 100.471 57.9339C100.37 57.909 100.264 57.9628 100.239 58.064L100.012 58.8978C100.012 58.8978 100.003 58.9604 100.011 58.9926Z" fill="currentColor" />
<path d="M101.02 58.5801C101.035 58.6364 101.074 58.6863 101.131 58.7057C101.228 58.7487 101.336 58.7029 101.38 58.6056L101.849 57.5185C101.884 57.4233 101.846 57.3129 101.749 57.2698C101.652 57.2267 101.543 57.2725 101.5 57.3699L101.031 58.457C101.031 58.457 101.01 58.5399 101.02 58.5801Z" fill="currentColor" />
<path d="M102.212 57.9816C102.231 58.054 102.299 58.1136 102.377 58.1186C102.485 58.1333 102.576 58.0575 102.583 57.9525L102.664 57.2174C102.679 57.1104 102.603 57.0186 102.498 57.012C102.391 56.9973 102.299 57.0731 102.292 57.178L102.211 57.9131C102.211 57.9131 102.208 57.9656 102.212 57.9816Z" fill="currentColor" />
<path d="M103.144 57.5032C103.157 57.5514 103.185 57.5954 103.234 57.6169C103.325 57.6701 103.438 57.6404 103.491 57.549C103.645 57.2848 103.752 57.0071 103.819 56.7058C103.836 56.6067 103.782 56.5006 103.673 56.4778C103.571 56.453 103.47 56.5229 103.445 56.624C103.392 56.8788 103.294 57.1281 103.156 57.3538C103.132 57.3944 103.121 57.449 103.134 57.4973L103.144 57.5032Z" fill="currentColor" />
<path d="M104.222 57.0292C104.241 57.1015 104.298 57.1552 104.379 57.1682C104.486 57.1829 104.58 57.1151 104.595 57.0081C104.637 56.6788 104.731 56.3529 104.866 56.0507C104.909 55.9533 104.864 55.845 104.766 55.802C104.669 55.7589 104.561 55.8047 104.518 55.9021C104.367 56.2428 104.271 56.595 104.221 56.9606C104.219 56.9869 104.218 57.0131 104.224 57.0372L104.222 57.0292Z" fill="currentColor" />
<path d="M77.2564 70.2412C77.2713 70.2974 77.3204 70.3532 77.3771 70.3726C77.4724 70.4077 77.5866 70.3517 77.6216 70.2565C77.6933 70.0397 77.8865 69.8597 78.1137 69.8083C78.2182 69.7807 78.2773 69.6791 78.2518 69.5826C78.2263 69.4862 78.1226 69.419 78.0262 69.4445C77.6805 69.5358 77.3816 69.8039 77.2631 70.1362C77.2555 70.1726 77.2479 70.209 77.2585 70.2492L77.2564 70.2412Z" fill="currentColor" />
<path d="M78.2612 70.3971C78.276 70.4533 78.3252 70.5091 78.3819 70.5285C78.4771 70.5636 78.5913 70.5076 78.6263 70.4124C78.7331 70.1004 78.9634 69.8332 79.2599 69.6861C79.3521 69.6445 79.3888 69.523 79.3473 69.4308C79.3057 69.3386 79.1842 69.3019 79.092 69.3435C78.7033 69.5322 78.4075 69.8769 78.2737 70.282C78.2662 70.3184 78.2586 70.3548 78.2692 70.3949L78.2612 70.3971Z" fill="currentColor" />
<path d="M79.0722 70.4407C79.0849 70.4889 79.1116 70.5249 79.1544 70.5566C79.2458 70.6098 79.3583 70.5801 79.4116 70.4886C79.5852 70.202 79.8177 69.9428 80.0811 69.7356C80.1669 69.67 80.1774 69.5468 80.1138 69.469C80.0482 69.3832 79.9331 69.3706 79.8472 69.4363C79.5398 69.6723 79.2816 69.9641 79.0843 70.2913C79.0526 70.3341 79.0493 70.3866 79.062 70.4348L79.0722 70.4407Z" fill="currentColor" />
<path d="M80.1482 70.251C80.161 70.2992 80.1898 70.3432 80.2406 70.3727C80.332 70.426 80.4505 70.3861 80.4978 70.3048C80.6414 70.0347 80.9048 69.8275 81.2001 69.7409C81.2965 69.7154 81.3599 69.6299 81.3281 69.5093C81.3026 69.4129 81.1929 69.3559 81.0965 69.3813C80.7048 69.4934 80.3636 69.7641 80.1667 70.1257C80.1431 70.1663 80.1397 70.2188 80.1525 70.267L80.1482 70.251Z" fill="currentColor" />
<path d="M81.0103 70.324C81.0231 70.3722 81.0498 70.4081 81.0925 70.4398C81.184 70.4931 81.2986 70.4714 81.3497 70.3719C81.482 70.1564 81.7035 69.9861 81.9506 69.9122C82.0551 69.8846 82.1159 69.7568 82.0786 69.6806C82.0509 69.5761 81.9413 69.5191 81.847 69.5526C81.5115 69.6499 81.2181 69.8736 81.0305 70.1725C80.9988 70.2153 80.9976 70.2758 81.0103 70.324Z" fill="currentColor" />
<path d="M82.0299 70.4073C82.0299 70.4073 82.0427 70.4555 82.063 70.4673C82.1287 70.5532 82.2438 70.5658 82.3317 70.5081L82.9009 70.0912C82.9867 70.0255 82.9972 69.9024 82.9417 69.8225C82.876 69.7367 82.7609 69.7241 82.6729 69.7817L82.1038 70.1986C82.0399 70.2499 82.0167 70.3248 82.0359 70.3971L82.0299 70.4073Z" fill="currentColor" />
<path d="M83.1047 70.4069C83.1047 70.4069 83.1174 70.4551 83.1399 70.475C83.2056 70.5608 83.3207 70.5734 83.4086 70.5158L83.9676 70.093C84.0534 70.0273 84.0639 69.9041 84.0084 69.8242C83.9427 69.7384 83.8276 69.7258 83.7396 69.7834L83.1726 70.2084C83.1088 70.2596 83.0856 70.3346 83.1047 70.4069Z" fill="currentColor" />
<path d="M84.2449 70.1661C84.2449 70.1661 84.2534 70.1983 84.2576 70.2144C84.3072 70.3044 84.4265 70.3331 84.5166 70.2835L84.6727 70.1907C84.7628 70.1411 84.8016 70.0277 84.7499 69.9295C84.7003 69.8395 84.5868 69.8006 84.4887 69.8523L84.3246 69.9473C84.2506 69.9926 84.2135 70.0798 84.2347 70.1602L84.2449 70.1661Z" fill="currentColor" />
<path d="M60.366 70.7825C60.366 70.7825 60.3724 70.8066 60.3766 70.8226C60.4538 71.0172 60.6689 71.1152 60.8634 71.038C61.7762 70.685 63.5467 70.3892 64.601 70.2139L65.1362 70.1241C69.8136 69.3097 73.9791 66.8506 78.0126 64.478C79.5613 63.5702 81.1518 62.6255 82.7479 61.7997C86.1283 60.0467 89.7033 58.6723 93.385 57.7341C95.5674 57.1747 97.8384 56.7553 100.027 56.3491C103.708 55.6689 107.512 54.965 111.058 53.5808L111.642 53.3492C112.855 52.8653 114.115 52.3605 115.382 52.4042C115.608 52.4132 115.746 52.48 115.762 52.51C115.765 52.5523 115.686 52.6763 115.668 52.7068C111.976 58.7811 105.933 63.7998 98.6563 66.8488C92.1833 69.5563 84.7572 70.8046 76.571 70.5425C75.4615 70.5089 74.3515 70.441 73.2437 70.3811C70.9049 70.251 68.4954 70.1137 66.1057 70.2463C65.5899 70.2794 65.0037 70.4687 64.3895 70.6825C63.9479 70.8336 63.4821 70.991 63.0718 71.065C62.8666 71.102 62.7301 71.3015 62.7671 71.5066C62.7961 71.714 63.0036 71.8483 63.2088 71.8113C63.6754 71.7224 64.1652 71.5586 64.6309 71.4012C65.191 71.2102 65.729 71.0337 66.142 71.002C68.4814 70.874 70.8807 71.0054 73.1932 71.1339C74.3112 71.1997 75.4271 71.2575 76.5387 71.2991C84.8379 71.5657 92.3706 70.2979 98.9439 67.5467C106.369 64.4413 112.536 59.304 116.313 53.0955C116.404 52.9511 116.551 52.6971 116.515 52.3971C116.455 51.9402 116.035 51.6554 115.404 51.6416C113.982 51.596 112.644 52.1301 111.36 52.6412L110.785 52.8707C107.3 54.2297 103.529 54.9252 99.8877 55.5948C97.6832 56.0052 95.4042 56.4267 93.1875 56.9866C89.4496 57.9397 85.8183 59.329 82.3859 61.1128C80.7678 61.9531 79.1692 62.8999 77.6126 63.8099C73.6391 66.1494 69.5315 68.5674 64.9869 69.3639L64.4518 69.4537C63.2989 69.6465 61.5525 69.9359 60.5615 70.3181C60.3808 70.383 60.2786 70.582 60.3275 70.7668L60.366 70.7825Z" fill="currentColor" />
<path d="M98.7427 80.1622C98.7703 80.2667 98.8719 80.3258 98.9763 80.2982L106.718 78.2271C108.768 77.6856 110.877 77.1111 113.017 76.6833C113.85 76.515 114.687 76.3627 115.525 76.2184C117.209 75.9197 118.959 75.6121 120.639 75.1341C123.743 74.2539 126.669 72.8014 129.498 71.4006C134.856 68.7382 140.405 65.9824 145.394 62.5062C145.482 62.4486 145.503 62.3313 145.445 62.2434C145.387 62.1554 145.27 62.1348 145.182 62.1924C140.215 65.6543 134.683 68.4057 129.33 71.0581C126.517 72.4546 123.605 73.8948 120.541 74.7643C118.878 75.2381 117.144 75.5415 115.468 75.8381C114.621 75.9844 113.784 76.1367 112.944 76.3072C110.79 76.7473 108.67 77.3159 106.62 77.8574L98.8787 79.9285C98.7742 79.9561 98.715 80.0577 98.7427 80.1622Z" fill="currentColor" />
<path d="M98.2988 80.1419L98.3009 80.15C98.3285 80.2544 98.436 80.3034 98.5405 80.2758L108.204 77.1467C110.296 76.4736 112.459 75.7733 114.501 74.8125C115.617 74.2855 116.692 73.7005 117.96 72.9698C121.282 71.0604 124.58 69.0283 127.765 66.9231C127.852 66.8654 127.873 66.7482 127.815 66.6602C127.758 66.5723 127.641 66.5517 127.553 66.6093C124.368 68.7145 121.078 70.7445 117.763 72.6438C116.5 73.3643 115.443 73.9531 114.333 74.47C112.313 75.4163 110.166 76.1124 108.082 76.7833L98.4187 79.9125C98.3223 79.9379 98.2653 80.0476 98.2907 80.144L98.2988 80.1419Z" fill="currentColor" />
<path d="M98.088 80.189C98.1135 80.2855 98.207 80.3468 98.3056 80.3293L110.93 77.8968C111.642 77.7603 112.379 77.6174 113.102 77.5553C113.885 77.4945 114.682 77.5161 115.463 77.542L115.741 77.5545C118.523 77.6364 121.327 77.5749 124.093 77.3687C125.088 77.2949 126.153 77.194 127.217 76.9903C128.993 76.6501 130.695 76.0286 132.274 75.1385C132.364 75.0889 132.393 74.9695 132.343 74.8794C132.294 74.7894 132.172 74.7527 132.084 74.8103C130.541 75.6737 128.88 76.2846 127.144 76.6142C126.104 76.8116 125.047 76.9103 124.062 76.99C121.314 77.2 118.51 77.2615 115.744 77.1753L115.468 77.171C114.679 77.1472 113.864 77.1217 113.064 77.1868C112.315 77.2472 111.579 77.3901 110.859 77.5287L98.2342 79.9613C98.1297 79.9889 98.0604 80.0846 98.0859 80.181L98.0901 80.1971L98.088 80.189Z" fill="currentColor" />
<path d="M121.115 72.2486C121.128 72.2968 121.154 72.3327 121.195 72.3564C121.362 72.4671 121.481 72.6591 121.514 72.8482C121.515 72.951 121.621 73.0262 121.728 73.0067C121.826 72.9892 121.906 72.8994 121.886 72.7928C121.842 72.495 121.663 72.207 121.402 72.035C121.311 71.9818 121.196 72.0035 121.141 72.0869C121.109 72.1297 121.108 72.1902 121.121 72.2384L121.115 72.2486Z" fill="currentColor" />
<path d="M121.656 71.8216C121.656 71.8216 121.662 71.8457 121.666 71.8618L122.039 72.5888C122.088 72.6789 122.202 72.7177 122.292 72.6681C122.382 72.6185 122.421 72.5051 122.371 72.415L121.999 71.688C121.949 71.5979 121.836 71.5591 121.746 71.6087C121.669 71.646 121.626 71.7433 121.648 71.8237L121.656 71.8216Z" fill="currentColor" />
<path d="M122.118 71.4588C122.118 71.4588 122.123 71.4749 122.125 71.4829L122.414 72.1546C122.456 72.2468 122.571 72.2936 122.663 72.2521C122.756 72.2105 122.809 72.1191 122.761 72.0028L122.472 71.3311C122.43 71.2389 122.314 71.192 122.222 71.2336C122.138 71.273 122.093 71.3623 122.118 71.4588Z" fill="currentColor" />
<path d="M122.623 71.1878C122.623 71.1878 122.648 71.25 122.681 71.2758C122.897 71.4765 123.068 71.7324 123.168 72.0153C123.202 72.1097 123.312 72.1667 123.412 72.123C123.506 72.0895 123.571 71.9777 123.52 71.8796C123.396 71.5425 123.194 71.2346 122.933 70.9941C122.853 70.9206 122.735 70.9262 122.669 71.0037C122.621 71.0507 122.606 71.1235 122.621 71.1798L122.623 71.1878Z" fill="currentColor" />
<path d="M123.437 70.7232C123.437 70.7232 123.444 70.7473 123.446 70.7554C123.578 71.0298 123.667 71.3331 123.706 71.6411C123.711 71.76 123.813 71.8192 123.922 71.8077C124.022 71.7982 124.1 71.7004 124.088 71.5917C124.039 71.2435 123.942 70.9081 123.799 70.5934C123.757 70.5012 123.641 70.4543 123.543 70.506C123.459 70.5455 123.416 70.6428 123.437 70.7232Z" fill="currentColor" />
<path d="M123.964 70.4381C124.051 70.7676 124.217 71.0679 124.43 71.3211C124.501 71.3968 124.616 71.4094 124.694 71.3459C124.772 71.2823 124.782 71.1592 124.719 71.0814C124.543 70.87 124.406 70.6137 124.334 70.3404C124.306 70.2359 124.205 70.1768 124.1 70.2044C124.004 70.2299 123.937 70.3336 123.964 70.4381Z" fill="currentColor" />
<path d="M124.68 69.9568L124.958 71.0097C124.993 71.112 125.095 71.1712 125.199 71.1436C125.296 71.1181 125.363 71.0144 125.335 70.9099L125.057 69.8569C125.022 69.7546 124.92 69.6954 124.816 69.7231C124.719 69.7485 124.652 69.8523 124.68 69.9568Z" fill="currentColor" />
<path d="M125.467 70.3335C125.488 70.4139 125.508 70.4862 125.529 70.5666C125.552 70.655 125.641 70.7002 125.726 70.695C125.817 70.6797 125.886 70.6183 125.897 70.5294C125.937 70.1579 125.827 69.8085 125.716 69.5196C125.685 69.4333 125.594 69.38 125.505 69.4034C125.417 69.4268 125.351 69.5043 125.359 69.5969C125.366 69.8529 125.406 70.1004 125.469 70.3415L125.467 70.3335Z" fill="currentColor" />
<path d="M126.766 70.2052C126.789 70.2936 126.875 70.357 126.965 70.3417C127.066 70.3323 127.145 70.2425 127.134 70.1338C127.099 69.8076 127.141 69.4783 127.25 69.1744C127.285 69.0792 127.239 68.9709 127.134 68.93C127.039 68.8949 126.922 68.9429 126.889 69.0461C126.759 69.3987 126.716 69.7885 126.747 70.1672C126.749 70.1752 126.751 70.1832 126.756 70.1993L126.766 70.2052Z" fill="currentColor" />
<path d="M127.436 69.9423C127.455 70.0147 127.512 70.0683 127.585 70.0835C127.684 70.1003 127.786 70.0304 127.803 69.9314L127.978 68.9995C127.995 68.9005 127.925 68.7985 127.826 68.7817C127.727 68.7649 127.625 68.8348 127.608 68.9338L127.433 69.8657C127.433 69.8657 127.43 69.9182 127.438 69.9504L127.436 69.9423Z" fill="currentColor" />
<path d="M128.053 69.8049C128.072 69.8772 128.131 69.9389 128.21 69.9439C128.317 69.9587 128.409 69.8828 128.424 69.7758L128.553 68.7356C128.56 68.6306 128.5 68.5346 128.385 68.522C128.278 68.5073 128.184 68.5751 128.171 68.6902L128.042 69.7304C128.042 69.7304 128.039 69.7829 128.045 69.807L128.053 69.8049Z" fill="currentColor" />
<path d="M128.747 69.3724C128.768 69.4528 128.835 69.5124 128.922 69.5153C129.027 69.5219 129.117 69.4381 129.115 69.3352C129.12 69.0589 129.205 68.7957 129.351 68.5679C129.404 68.4764 129.383 68.3618 129.299 68.3064C129.208 68.2532 129.093 68.2749 129.038 68.3583C128.856 68.647 128.746 68.9772 128.742 69.3221C128.746 69.3381 128.751 69.3542 128.757 69.3783L128.747 69.3724Z" fill="currentColor" />
<path d="M129.593 69.1228C129.61 69.1871 129.659 69.2429 129.732 69.2581C129.833 69.283 129.937 69.2211 129.962 69.1199L130.215 68.1587C130.248 68.0555 130.178 67.9536 130.077 67.9287C129.976 67.9038 129.872 67.9657 129.847 68.0669L129.593 69.028C129.593 69.028 129.584 69.0907 129.593 69.1228Z" fill="currentColor" />
<path d="M130.677 68.768C130.692 68.8243 130.741 68.8801 130.797 68.8995C130.901 68.9324 131.007 68.8786 131.04 68.7753C131.148 68.4371 131.19 68.0736 131.149 67.7233C131.139 67.6226 131.05 67.5431 130.941 67.5547C130.84 67.5641 130.761 67.6538 130.772 67.7626C130.8 68.0647 130.77 68.3736 130.675 68.6652C130.668 68.7016 130.66 68.738 130.669 68.7702L130.677 68.768Z" fill="currentColor" />
<path d="M131.452 68.3825C131.469 68.4468 131.518 68.5026 131.591 68.5178C131.692 68.5426 131.796 68.4808 131.821 68.3796L132.005 67.6432C132.03 67.542 131.968 67.438 131.867 67.4131C131.766 67.3883 131.662 67.4501 131.637 67.5513L131.453 68.2877C131.453 68.2877 131.444 68.3504 131.452 68.3825Z" fill="currentColor" />
<path d="M132.338 67.9938C132.353 68.05 132.392 68.0999 132.449 68.1193C132.544 68.1544 132.652 68.1086 132.695 68.0112L133.083 67.0402C133.118 66.9449 133.081 66.8345 132.975 66.7936C132.88 66.7585 132.772 66.8043 132.729 66.9017L132.34 67.8728C132.34 67.8728 132.327 67.9536 132.338 67.9938Z" fill="currentColor" />
<path d="M133.387 67.4413C133.406 67.5137 133.474 67.5733 133.552 67.5783C133.657 67.5849 133.749 67.5091 133.756 67.4042L133.815 66.7521C133.83 66.645 133.746 66.5554 133.641 66.5487C133.536 66.542 133.445 66.6179 133.438 66.7228L133.378 67.3749C133.378 67.3749 133.381 67.4172 133.387 67.4413Z" fill="currentColor" />
<path d="M134.196 66.9866C134.209 67.0349 134.238 67.0788 134.286 67.1004C134.378 67.1536 134.49 67.1239 134.544 67.0324C134.672 66.8008 134.767 66.5435 134.816 66.2726C134.841 66.1715 134.763 66.0717 134.664 66.0549C134.562 66.03 134.463 66.1079 134.446 66.207C134.403 66.4334 134.323 66.6522 134.213 66.8533C134.189 66.894 134.186 66.9464 134.198 66.9947L134.196 66.9866Z" fill="currentColor" />
<path d="M135.138 66.5486C135.157 66.6209 135.225 66.6805 135.303 66.6855C135.41 66.7002 135.502 66.6244 135.509 66.5195C135.543 66.2266 135.614 65.9414 135.723 65.6717C135.766 65.5744 135.713 65.4682 135.623 65.423C135.526 65.38 135.418 65.4258 135.374 65.5231C135.255 65.8211 135.169 66.1449 135.135 66.472C135.133 66.4983 135.132 66.5245 135.136 66.5406L135.138 66.5486Z" fill="currentColor" />
<path d="M111.56 78.8486C111.575 78.9048 111.624 78.9606 111.689 78.9779C111.784 79.0129 111.898 78.957 111.923 78.8558C111.985 78.6675 112.142 78.5142 112.335 78.4632C112.431 78.4377 112.499 78.334 112.471 78.2295C112.446 78.133 112.342 78.0659 112.237 78.0935C111.924 78.1763 111.663 78.4258 111.566 78.7436C111.559 78.78 111.551 78.8164 111.56 78.8486Z" fill="currentColor" />
<path d="M112.451 78.9656C112.465 79.0219 112.515 79.0777 112.571 79.0971C112.675 79.13 112.781 79.0762 112.806 78.975C112.889 78.7037 113.091 78.461 113.342 78.3347C113.432 78.2851 113.46 78.1658 113.421 78.0816C113.371 77.9915 113.258 77.9527 113.168 78.0023C112.827 78.1782 112.567 78.4962 112.449 78.8628C112.442 78.8992 112.434 78.9356 112.443 78.9677L112.451 78.9656Z" fill="currentColor" />
<path d="M113.177 78.9799C113.19 79.0281 113.219 79.0721 113.267 79.0936C113.359 79.1468 113.471 79.1171 113.525 79.0257C113.672 78.7716 113.869 78.5392 114.102 78.3485C114.188 78.2829 114.191 78.1618 114.127 78.084C114.064 78.0062 113.938 77.9877 113.863 78.0593C113.593 78.2767 113.371 78.5418 113.199 78.8364C113.176 78.8771 113.164 78.9317 113.177 78.9799Z" fill="currentColor" />
<path d="M114.124 78.7902C114.137 78.8385 114.166 78.8824 114.217 78.912C114.306 78.9572 114.427 78.9253 114.47 78.828C114.587 78.5905 114.813 78.402 115.068 78.326C115.172 78.2984 115.234 78.2048 115.194 78.0864C115.166 77.9819 115.059 77.9329 114.954 77.9605C114.597 78.0721 114.302 78.3221 114.131 78.651C114.107 78.6917 114.104 78.7441 114.114 78.7843L114.124 78.7902Z" fill="currentColor" />
<path d="M114.885 78.8386C114.898 78.8869 114.926 78.9309 114.975 78.9524C115.067 79.0056 115.179 78.9759 115.232 78.8844C115.345 78.6914 115.528 78.5397 115.735 78.4765C115.84 78.4489 115.885 78.3595 115.861 78.2369C115.833 78.1324 115.726 78.0834 115.621 78.111C115.32 78.2078 115.057 78.4149 114.897 78.6893C114.873 78.7299 114.862 78.7845 114.875 78.8327L114.885 78.8386Z" fill="currentColor" />
<path d="M115.791 78.883C115.791 78.883 115.804 78.9312 115.826 78.9511C115.892 79.0369 116.007 79.0495 116.093 78.9839C116.256 78.8546 116.42 78.7254 116.583 78.5962C116.669 78.5305 116.682 78.4154 116.616 78.3296C116.551 78.2438 116.435 78.2312 116.35 78.2969C116.186 78.4261 116.022 78.5553 115.857 78.6765C115.793 78.7277 115.77 78.8026 115.789 78.875L115.791 78.883Z" fill="currentColor" />
<path d="M116.741 78.864C116.741 78.864 116.753 78.9122 116.776 78.9321C116.841 79.0179 116.956 79.0305 117.042 78.9648L117.533 78.5772C117.619 78.5115 117.632 78.3964 117.566 78.3106C117.5 78.2247 117.385 78.2121 117.299 78.2778L116.808 78.6655C116.745 78.7167 116.721 78.7916 116.741 78.864Z" fill="currentColor" />
<path d="M117.928 78.576C117.972 78.5472 118.024 78.5162 118.068 78.4874L117.928 78.576Z" fill="currentColor" />
<path d="M96.6014 79.7049C96.6014 79.7049 96.6099 79.7371 96.6141 79.7531C96.6913 79.9477 96.9123 80.0355 97.1068 79.9583C97.905 79.6271 99.4517 79.3302 100.385 79.1525L100.868 79.0593C104.998 78.226 108.638 75.9574 112.16 73.763C113.504 72.9265 114.9 72.059 116.295 71.2862C119.243 69.656 122.378 68.3721 125.618 67.4559C127.539 66.9141 129.533 66.4903 131.464 66.0835C134.705 65.3991 138.061 64.6931 141.181 63.3872L141.683 63.1688C142.749 62.715 143.846 62.2447 144.957 62.2521C145.129 62.2498 145.244 62.2967 145.269 62.3246C145.253 62.3288 145.199 62.4203 145.184 62.4588C142.05 67.9126 136.826 72.4829 130.454 75.3444C124.797 77.8878 118.242 79.1466 110.999 79.0999C110.025 79.0907 109.046 79.0654 108.066 79.0321C105.992 78.9609 103.844 78.9007 101.731 79.072C101.268 79.1084 100.75 79.2968 100.208 79.4916C99.8167 79.6379 99.4153 79.7784 99.0574 79.8557C98.8543 79.9008 98.7178 80.1002 98.7629 80.3033L98.7671 80.3193C98.8181 80.5122 99.0133 80.6326 99.2104 80.5977C99.6246 80.5055 100.056 80.3486 100.465 80.206C100.959 80.024 101.423 79.8585 101.791 79.8213C103.862 79.6526 105.986 79.7191 108.042 79.7865C109.03 79.8177 110.011 79.8511 110.993 79.8581C118.349 79.9094 125.007 78.615 130.766 76.0359C137.276 73.1121 142.626 68.4313 145.834 62.8373C145.917 62.695 146.045 62.4635 146.005 62.1817C145.957 61.773 145.532 61.4984 144.963 61.4938C143.689 61.4866 142.514 61.9862 141.379 62.4752L140.876 62.6855C137.826 63.9642 134.502 64.6618 131.293 65.3377C129.346 65.7487 127.343 66.1747 125.399 66.7228C122.102 67.6539 118.916 68.9687 115.921 70.6197C114.51 71.3967 113.108 72.2744 111.758 73.1211C108.296 75.2824 104.715 77.5099 100.72 78.3071L100.246 78.3981C99.2301 78.5891 97.6855 78.894 96.8171 79.2524C96.6387 79.3253 96.5525 79.5201 96.5992 79.6969L96.6014 79.7049Z" fill="currentColor" />
<path d="M116.309 90.2166C116.322 90.2648 116.361 90.3147 116.41 90.3362L123.63 93.8112C125.542 94.7335 127.511 95.6752 129.418 96.7447C130.164 97.1582 130.89 97.5942 131.623 98.0281C133.101 98.9017 134.629 99.8049 136.208 100.54C139.136 101.89 142.298 102.697 145.359 103.479C151.158 104.957 157.149 106.478 163.219 107.093C163.324 107.099 163.415 107.024 163.424 106.927C163.431 106.822 163.355 106.73 163.258 106.721C157.223 106.106 151.242 104.591 145.453 103.119C142.41 102.341 139.26 101.548 136.369 100.205C134.8 99.4759 133.282 98.5787 131.815 97.7109C131.081 97.2771 130.347 96.8433 129.6 96.4217C127.684 95.3543 125.703 94.3986 123.793 93.4844L116.573 90.0094C116.475 89.9663 116.365 90.0041 116.32 90.0934C116.296 90.1341 116.293 90.1865 116.303 90.2267L116.309 90.2166Z" fill="currentColor" />
<path d="M115.981 89.9163C115.995 89.9726 116.034 90.0225 116.091 90.0419C119.214 91.3493 122.337 92.6567 125.459 93.9642C127.499 94.8182 129.598 95.6997 131.752 96.3001C133.051 96.6619 134.404 96.9323 135.572 97.1567C139.348 97.8787 143.172 98.4852 146.953 98.9652C147.06 98.9799 147.151 98.904 147.166 98.797C147.181 98.6899 147.113 98.596 146.998 98.5835C143.227 98.1094 139.412 97.5008 135.646 96.7847C134.431 96.5468 133.135 96.2958 131.854 95.9378C129.718 95.3412 127.64 94.4715 125.62 93.6293C122.477 92.3101 119.354 91.0026 116.232 89.6952C116.134 89.6521 116.026 89.6979 115.983 89.7953C115.967 89.8338 115.962 89.8783 115.973 89.9184L115.981 89.9163Z" fill="currentColor" />
<path d="M115.789 89.8122C115.802 89.8604 115.831 89.9044 115.88 89.9259L127.033 96.3087C127.661 96.6673 128.299 97.0319 128.903 97.4654C129.533 97.9269 130.123 98.4675 130.698 98.9861L130.902 99.173C132.964 101.053 135.129 102.837 137.359 104.475C138.159 105.063 139.029 105.685 139.971 106.227C141.542 107.127 143.24 107.762 145.011 108.12C145.11 108.136 145.212 108.067 145.229 107.968C145.246 107.868 145.176 107.767 145.085 107.748C143.35 107.398 141.691 106.779 140.158 105.894C139.226 105.358 138.369 104.75 137.579 104.168C135.359 102.536 133.196 100.76 131.155 98.8913L130.95 98.7045C130.371 98.1698 129.771 97.6233 129.121 97.15C128.504 96.7025 127.856 96.332 127.218 95.9675L116.065 89.5847C115.973 89.5315 115.853 89.5633 115.807 89.6527C115.784 89.6933 115.772 89.7479 115.785 89.7961L115.789 89.8122Z" fill="currentColor" />
<path d="M138.332 99.5319C138.344 99.5801 138.371 99.6161 138.412 99.6397C138.503 99.6929 138.618 99.6712 138.671 99.5798C138.835 99.3215 138.879 99.0003 138.796 98.6869C138.771 98.5904 138.661 98.5334 138.565 98.5589C138.468 98.5844 138.409 98.686 138.437 98.7905C138.437 98.7905 138.441 98.8065 138.443 98.8146C138.492 98.9994 138.463 99.2136 138.36 99.3783C138.328 99.421 138.327 99.4815 138.34 99.5298L138.332 99.5319Z" fill="currentColor" />
<path d="M138.93 99.6143C138.947 99.6786 138.996 99.7344 139.069 99.7496C139.17 99.7744 139.274 99.7126 139.299 99.6114L139.486 98.8225C139.511 98.7213 139.449 98.6173 139.348 98.5924C139.246 98.5676 139.142 98.6295 139.118 98.7306L138.93 99.5195C138.93 99.5195 138.921 99.5821 138.93 99.6143Z" fill="currentColor" />
<path d="M139.487 99.5443C139.502 99.6005 139.551 99.6563 139.616 99.6736C139.711 99.7087 139.825 99.6527 139.85 99.5515L140.071 98.857C140.104 98.7537 140.05 98.6475 139.949 98.6227C139.854 98.5876 139.739 98.6436 139.715 98.7448L139.494 99.4393C139.494 99.4393 139.479 99.5121 139.487 99.5443Z" fill="currentColor" />
<path d="M140.144 99.9471C140.159 100.003 140.198 100.053 140.265 100.079C140.36 100.114 140.476 100.066 140.509 99.9624C140.636 99.628 140.677 99.2645 140.642 98.904C140.631 98.7953 140.535 98.726 140.434 98.7354C140.333 98.7448 140.256 98.8426 140.266 98.9433C140.3 99.2352 140.261 99.5463 140.154 99.8239C140.139 99.8625 140.141 99.9048 140.15 99.9369L140.144 99.9471Z" fill="currentColor" />
<path d="M140.78 100.046C140.791 100.086 140.82 100.13 140.86 100.153C140.952 100.207 141.066 100.185 141.122 100.101C141.32 99.8085 141.458 99.488 141.559 99.152C141.586 99.0588 141.53 98.9447 141.429 98.9198C141.328 98.8949 141.221 98.9488 141.197 99.0499C141.112 99.3475 140.989 99.6294 140.817 99.8898C140.787 99.9406 140.776 99.9952 140.788 100.043L140.78 100.046Z" fill="currentColor" />
<path d="M141.563 100.174C141.584 100.255 141.659 100.312 141.746 100.315C141.849 100.314 141.938 100.23 141.937 100.127C141.941 99.8505 142.004 99.5674 142.126 99.3117C142.169 99.2144 142.131 99.104 142.034 99.0609C141.936 99.0178 141.826 99.0556 141.783 99.153C141.64 99.4573 141.566 99.7951 141.558 100.124C141.562 100.14 141.566 100.156 141.571 100.172L141.563 100.174Z" fill="currentColor" />
<path d="M142.164 100.368C142.177 100.416 142.216 100.466 142.264 100.488C142.362 100.531 142.472 100.493 142.515 100.396L142.978 99.4135C143.021 99.3162 142.983 99.2058 142.886 99.1627C142.789 99.1196 142.678 99.1574 142.635 99.2548L142.172 100.237C142.172 100.237 142.153 100.328 142.164 100.368Z" fill="currentColor" />
<path d="M142.892 100.39C142.903 100.43 142.932 100.474 142.972 100.498C143.046 100.548 143.146 100.538 143.208 100.479C143.485 100.225 143.628 99.8864 143.731 99.5927C143.76 99.5076 143.724 99.4052 143.645 99.366C143.564 99.3187 143.465 99.3361 143.408 99.4115C143.193 99.6744 143.03 99.967 142.905 100.275C142.889 100.314 142.892 100.356 142.902 100.396L142.892 100.39Z" fill="currentColor" />
<path d="M144.051 100.936C144.062 100.976 144.09 101.02 144.131 101.044C144.217 101.107 144.331 101.085 144.393 100.992C144.573 100.729 144.824 100.508 145.108 100.347C145.198 100.297 145.227 100.178 145.177 100.088C145.127 99.9979 145.008 99.9692 144.918 100.019C144.59 100.209 144.297 100.467 144.087 100.78C144.056 100.823 144.046 100.885 144.059 100.934L144.051 100.936Z" fill="currentColor" />
<path d="M144.729 101.161C144.729 101.161 144.742 101.209 144.765 101.229C144.83 101.315 144.953 101.325 145.031 101.261L145.778 100.669C145.863 100.603 145.876 100.488 145.81 100.402C145.747 100.324 145.621 100.306 145.544 100.369L144.805 100.96C144.742 101.011 144.718 101.086 144.738 101.159L144.729 101.161Z" fill="currentColor" />
<path d="M145.282 101.461C145.282 101.461 145.297 101.518 145.319 101.538C145.391 101.613 145.512 101.616 145.59 101.552L146.367 100.848C146.442 100.777 146.445 100.656 146.381 100.578C146.31 100.502 146.189 100.5 146.111 100.563L145.334 101.267C145.278 101.316 145.263 101.389 145.28 101.453L145.282 101.461Z" fill="currentColor" />
<path d="M146.1 101.598C146.1 101.598 146.127 101.668 146.158 101.686C146.235 101.751 146.356 101.754 146.43 101.674C146.611 101.48 146.853 101.322 147.11 101.254C147.206 101.228 147.263 101.119 147.238 101.022C147.212 100.926 147.103 100.869 147.006 100.894C146.679 100.989 146.385 101.179 146.15 101.43C146.102 101.477 146.095 101.548 146.11 101.604L146.1 101.598Z" fill="currentColor" />
<path d="M146.897 101.946C146.897 101.946 146.908 101.987 146.922 102.009C146.98 102.097 147.097 102.117 147.185 102.06L148.006 101.49C148.094 101.432 148.125 101.321 148.057 101.227C148 101.139 147.882 101.119 147.794 101.176L146.981 101.744C146.915 101.787 146.886 101.872 146.905 101.944L146.897 101.946Z" fill="currentColor" />
<path d="M147.95 102.382C147.95 102.382 147.958 102.414 147.964 102.438C148.022 102.526 148.133 102.557 148.221 102.499C148.525 102.316 148.794 102.064 148.992 101.771C149.055 101.686 149.034 101.571 148.948 101.508C148.863 101.444 148.74 101.468 148.685 101.552C148.508 101.796 148.281 102.011 148.023 102.173C147.949 102.219 147.92 102.304 147.942 102.384L147.95 102.382Z" fill="currentColor" />
<path d="M148.799 102.605C148.799 102.605 148.81 102.645 148.824 102.667C148.882 102.755 148.999 102.775 149.085 102.71L149.708 102.27C149.796 102.212 149.809 102.097 149.751 102.009C149.694 101.921 149.576 101.901 149.491 101.966L148.867 102.406C148.801 102.449 148.772 102.534 148.791 102.607L148.799 102.605Z" fill="currentColor" />
<path d="M149.717 102.886C149.717 102.886 149.723 102.911 149.728 102.927C149.777 103.017 149.891 103.056 149.981 103.006L150.91 102.52C151 102.47 151.039 102.357 150.989 102.267C150.939 102.177 150.826 102.138 150.736 102.187L149.807 102.674C149.723 102.713 149.688 102.808 149.709 102.889L149.717 102.886Z" fill="currentColor" />
<path d="M150.87 103.149C150.87 103.149 150.887 103.214 150.917 103.232C150.989 103.307 151.11 103.31 151.186 103.238L151.657 102.778C151.733 102.706 151.735 102.585 151.664 102.51C151.592 102.434 151.471 102.432 151.396 102.503L150.924 102.963C150.876 103.01 150.853 103.085 150.87 103.149Z" fill="currentColor" />
<path d="M151.777 103.331C151.777 103.331 151.78 103.339 151.782 103.347C151.815 103.441 151.925 103.498 152.025 103.455C152.284 103.36 152.514 103.222 152.728 103.054C152.813 102.988 152.826 102.873 152.76 102.788C152.697 102.71 152.571 102.691 152.494 102.755C152.316 102.896 152.114 103.01 151.895 103.093C151.801 103.127 151.758 103.224 151.783 103.321L151.777 103.331Z" fill="currentColor" />
<path d="M152.781 103.616C152.781 103.616 152.796 103.672 152.829 103.698C152.9 103.774 153.021 103.776 153.097 103.705C153.31 103.502 153.55 103.336 153.808 103.207C153.898 103.158 153.937 103.044 153.887 102.954C153.838 102.864 153.724 102.825 153.634 102.875C153.346 103.02 153.078 103.211 152.835 103.43C152.779 103.479 152.764 103.552 152.781 103.616Z" fill="currentColor" />
<path d="M126.887 97.5766C126.887 97.5766 126.895 97.6088 126.91 97.6308C126.967 97.7187 127.079 97.7495 127.167 97.6919C127.337 97.5868 127.556 97.5718 127.735 97.6621C127.824 97.7073 127.943 97.6674 127.988 97.5781C128.033 97.4888 127.993 97.3703 127.896 97.3273C127.599 97.182 127.245 97.2069 126.963 97.376C126.889 97.4213 126.86 97.5064 126.881 97.5868L126.887 97.5766Z" fill="currentColor" />
<path d="M127.484 98.2444C127.484 98.2444 127.493 98.2765 127.507 98.2985C127.565 98.3865 127.676 98.4173 127.764 98.3596C128.008 98.2092 128.314 98.1628 128.587 98.2196C128.688 98.2445 128.79 98.1746 128.815 98.0734C128.831 97.9744 128.77 97.8704 128.668 97.8455C128.294 97.7638 127.89 97.8276 127.566 98.0336C127.492 98.0789 127.463 98.164 127.484 98.2444Z" fill="currentColor" />
<path d="M128.025 98.729L128.029 98.7451C128.065 98.8474 128.172 98.8964 128.275 98.8608C128.558 98.7602 128.853 98.7079 129.15 98.7241C129.255 98.7308 129.342 98.6389 129.341 98.536C129.342 98.4413 129.264 98.3415 129.153 98.345C128.808 98.3415 128.468 98.3884 128.147 98.5076C128.053 98.5411 128.001 98.6406 128.027 98.737L128.025 98.729Z" fill="currentColor" />
<path d="M128.864 99.204C128.864 99.204 128.868 99.22 128.87 99.2281C128.912 99.3203 129.019 99.3693 129.122 99.3336C129.37 99.2335 129.655 99.2358 129.898 99.3434C129.996 99.3865 130.104 99.3407 130.147 99.2433C130.19 99.146 130.144 99.0377 130.047 98.9946C129.706 98.8439 129.319 98.843 128.978 98.9847C128.894 99.0241 128.841 99.1156 128.866 99.212L128.864 99.204Z" fill="currentColor" />
<path d="M129.418 99.7369L129.422 99.753C129.449 99.8575 129.565 99.9043 129.659 99.8708C129.872 99.7974 130.106 99.8044 130.309 99.8884C130.406 99.9314 130.514 99.8856 130.558 99.7883C130.601 99.6909 130.555 99.5826 130.457 99.5396C130.167 99.4184 129.829 99.4048 129.538 99.5074C129.441 99.5329 129.392 99.6404 129.418 99.7369Z" fill="currentColor" />
<path d="M130.073 100.363C130.095 100.444 130.162 100.503 130.249 100.506L130.876 100.538C130.981 100.545 131.071 100.461 131.069 100.358C131.078 100.261 130.992 100.164 130.889 100.165L130.262 100.133C130.157 100.126 130.067 100.21 130.069 100.313C130.073 100.329 130.069 100.347 130.076 100.371L130.073 100.363Z" fill="currentColor" />
<path d="M130.799 100.963C130.82 101.043 130.888 101.103 130.974 101.105L131.6 101.129C131.705 101.136 131.794 101.052 131.793 100.949C131.802 100.853 131.716 100.755 131.613 100.756L130.988 100.732C130.883 100.726 130.793 100.809 130.794 100.912C130.799 100.928 130.795 100.947 130.801 100.971L130.799 100.963Z" fill="currentColor" />
<path d="M131.717 101.443C131.736 101.515 131.793 101.569 131.866 101.584L132.028 101.61C132.127 101.627 132.229 101.557 132.245 101.458C132.262 101.359 132.192 101.257 132.093 101.24L131.932 101.214C131.833 101.197 131.731 101.267 131.714 101.366C131.712 101.392 131.711 101.418 131.717 101.443Z" fill="currentColor" />
<path d="M114.963 88.6032C114.995 88.7237 115.083 88.8294 115.212 88.864C116.03 89.1294 117.408 89.9176 118.219 90.3827L118.643 90.623C122.319 92.6873 126.55 93.3408 130.654 93.9677C132.221 94.207 133.844 94.4576 135.409 94.7836C138.703 95.4697 141.917 96.538 144.973 97.9491C146.785 98.786 148.576 99.7744 150.305 100.719C153.212 102.316 156.218 103.964 159.434 105.006L159.961 105.176C161.058 105.522 162.202 105.882 163.041 106.615C163.175 106.734 163.223 106.851 163.227 106.867C163.219 106.869 163.107 106.899 163.075 106.907C157.146 109.007 150.196 109.063 143.508 107.081C137.556 105.317 131.765 102.015 126.301 97.25C125.563 96.6024 124.838 95.9426 124.103 95.2769C122.572 93.8757 120.997 92.4347 119.282 91.1852C118.907 90.9059 118.393 90.7151 117.858 90.5125C117.466 90.3665 117.065 90.2145 116.742 90.0333C116.561 89.9349 116.328 89.9965 116.232 90.1853C116.126 90.3682 116.195 90.5992 116.384 90.6955C116.756 90.8982 117.185 91.0599 117.597 91.2177C118.083 91.3988 118.551 91.576 118.849 91.7898C120.528 93.0056 122.086 94.4427 123.605 95.83C124.331 96.4978 125.068 97.1716 125.815 97.817C131.364 102.645 137.248 106.009 143.301 107.798C150.148 109.824 157.259 109.759 163.338 107.611C163.487 107.555 163.74 107.471 163.89 107.225C164.113 106.865 163.981 106.401 163.547 106.026C162.586 105.188 161.367 104.805 160.195 104.435L159.678 104.271C156.527 103.246 153.551 101.616 150.677 100.045C148.936 99.0861 147.137 98.0998 145.296 97.2532C142.19 95.8124 138.919 94.7248 135.562 94.0294C133.979 93.6996 132.349 93.4511 130.77 93.206C126.737 92.5862 122.571 91.95 119.016 89.9486L118.591 89.7083C117.689 89.19 116.331 88.4135 115.438 88.125C115.24 88.0571 115.027 88.1647 114.962 88.3713C114.938 88.4462 114.939 88.5147 114.959 88.5871L114.963 88.6032Z" fill="currentColor" />
<path d="M47.147 69.9242C47.147 69.9242 47.1763 70.0025 47.2169 70.0261C48.7291 71.226 49.885 72.9326 50.8147 74.3035C60.2662 88.2726 68.6688 103.121 75.7889 118.42C77.599 122.309 79.2369 126.133 79.3736 130.198C79.375 130.301 79.4648 130.381 79.5676 130.379C79.6704 130.378 79.7499 130.288 79.7485 130.185C79.6049 126.061 77.9543 122.19 76.1255 118.262C69.0012 102.947 60.5864 88.0849 51.1285 74.0916C50.1844 72.6988 49.0119 70.9621 47.4489 69.7327C47.3714 69.6672 47.2466 69.6829 47.1832 69.7685C47.1435 69.8134 47.1342 69.876 47.1491 69.9323L47.147 69.9242Z" fill="currentColor" />
<path d="M51.0592 75.4253C51.0592 75.4253 51.0864 75.4955 51.1169 75.5133C52.6212 76.8785 53.6449 78.8007 54.4601 80.3566C58.1651 87.383 61.6253 94.6546 64.7577 101.987C66.6517 106.422 68.337 110.784 68.1582 115.379C68.1537 115.492 68.2354 115.574 68.3383 115.573C68.4432 115.579 68.5328 115.495 68.5315 115.393C68.7152 110.718 67.0091 106.311 65.1045 101.835C61.9721 94.5028 58.4996 87.2172 54.7925 80.1828C53.9629 78.6049 52.9226 76.6527 51.3633 75.2418C51.2837 75.1683 51.1648 75.1739 51.0912 75.2535C51.0435 75.3005 51.0363 75.3712 51.0512 75.4274L51.0592 75.4253Z" fill="currentColor" />
<path d="M48.7192 71.4176C48.7192 71.4176 48.7319 71.4658 48.7544 71.4857L56.0823 81.1921C60.4627 86.9996 64.999 93.0067 70.3325 98.1583C70.9577 98.767 71.6069 99.3693 72.246 99.9657C74.7676 102.318 77.3769 104.741 79.1307 107.734C79.1803 107.824 79.2997 107.853 79.3898 107.803C79.4798 107.754 79.5085 107.634 79.4589 107.544C77.6763 104.507 75.0526 102.062 72.5085 99.69C71.8694 99.0936 71.2202 98.4912 70.5972 97.8906C65.2861 92.7589 60.7621 86.7657 56.3859 80.9743L49.058 71.2679C48.9923 71.182 48.8772 71.1695 48.7914 71.2351C48.7275 71.2864 48.7043 71.3613 48.7235 71.4336L48.7192 71.4176Z" fill="currentColor" />
<path d="M78.4803 117.184C78.5015 117.264 78.5769 117.322 78.6636 117.325C79.2323 117.329 79.7992 117.197 80.2957 116.928C80.3858 116.878 80.4267 116.773 80.375 116.675C80.3254 116.585 80.212 116.546 80.1219 116.595C79.6774 116.833 79.1748 116.949 78.6666 116.945C78.5638 116.947 78.4742 117.031 78.4756 117.133C78.4798 117.15 78.4841 117.166 78.4883 117.182L78.4803 117.184Z" fill="currentColor" />
<path d="M78.5701 116.515C78.5701 116.515 78.5744 116.531 78.5765 116.539C78.61 116.634 78.7256 116.681 78.8199 116.647C79.2171 116.491 79.6329 116.372 80.0534 116.304C80.152 116.287 80.2294 116.189 80.2098 116.082C80.1822 115.978 80.0967 115.914 79.9879 115.926C79.5433 116 79.1033 116.125 78.6821 116.288C78.5877 116.321 78.5447 116.419 78.5701 116.515Z" fill="currentColor" />
<path d="M78.5571 115.848L78.5614 115.864C78.5949 115.958 78.7126 116.013 78.8048 115.972L79.9684 115.527C80.0708 115.491 80.1278 115.381 80.0761 115.283C80.0425 115.189 79.9249 115.134 79.8327 115.176L78.669 115.621C78.5747 115.654 78.5316 115.752 78.5571 115.848Z" fill="currentColor" />
<path d="M78.6987 115.114C78.72 115.194 78.7953 115.252 78.874 115.257C79.2451 115.262 79.6106 115.148 79.9062 114.932C79.9781 114.879 79.9949 114.78 79.9656 114.702C79.9283 114.626 79.839 114.58 79.7506 114.604C79.5979 114.644 79.4392 114.695 79.2747 114.755C79.1262 114.812 78.9756 114.86 78.839 114.896C78.7506 114.92 78.6872 115.005 78.6945 115.098C78.6966 115.106 78.6987 115.114 78.7008 115.122L78.6987 115.114Z" fill="currentColor" />
<path d="M78.6636 114.135C78.6636 114.135 78.6679 114.151 78.67 114.159C78.7115 114.251 78.8271 114.298 78.9193 114.256L79.6671 113.93C79.7593 113.888 79.804 113.765 79.7646 113.681C79.723 113.588 79.6075 113.541 79.5153 113.583L78.7675 113.91C78.6833 113.949 78.6403 114.046 78.6636 114.135Z" fill="currentColor" />
<path d="M78.3892 113.519L78.3934 113.535C78.4269 113.63 78.5366 113.687 78.6389 113.651L79.3474 113.404C79.4418 113.37 79.4929 113.271 79.4674 113.174L79.4632 113.158C79.4296 113.064 79.32 113.007 79.2176 113.043L78.5091 113.29C78.4148 113.323 78.3637 113.423 78.3892 113.519Z" fill="currentColor" />
<path d="M78.2835 112.859C78.2835 112.859 78.2962 112.908 78.3085 112.921C78.3597 112.985 78.4448 113.014 78.5252 112.993L79.0852 112.802C79.1817 112.777 79.2248 112.679 79.2073 112.581C79.1738 112.487 79.0963 112.421 79.0058 112.436L78.9495 112.451C78.7379 112.464 78.4862 112.488 78.3197 112.704C78.28 112.748 78.2707 112.811 78.2856 112.867L78.2835 112.859Z" fill="currentColor" />
<path d="M77.7332 111.362C77.7438 111.402 77.7726 111.446 77.8133 111.47C77.8967 111.525 78.0194 111.501 78.0747 111.418C78.1656 111.274 78.297 111.153 78.4472 111.07C78.5351 111.013 78.5579 110.903 78.5083 110.813C78.4506 110.725 78.3393 110.695 78.2514 110.752C78.0573 110.864 77.8941 111.027 77.7635 111.216C77.734 111.267 77.7226 111.322 77.7353 111.37L77.7332 111.362Z" fill="currentColor" />
<path d="M70.1084 94.1849C70.1084 94.1849 70.1147 94.2091 70.1168 94.2171C70.1584 94.3093 70.2799 94.346 70.3721 94.3044L71.8705 93.5646C71.9627 93.5231 72.0075 93.3995 71.9579 93.3094C71.9163 93.2172 71.8029 93.1784 71.7026 93.222L70.2042 93.9619C70.12 94.0013 70.085 94.0965 70.1062 94.1769L70.1084 94.1849Z" fill="currentColor" />
<path d="M69.6107 93.3104C69.6107 93.3104 69.6234 93.3586 69.6458 93.3785C69.7115 93.4643 69.8347 93.4748 69.9103 93.4032C70.1298 93.2248 70.4021 93.0841 70.6834 93.0098C70.7879 92.9822 70.8471 92.8806 70.8195 92.7761C70.794 92.6796 70.6902 92.6125 70.5858 92.6401C70.2482 92.7292 69.9297 92.8908 69.6604 93.1081C69.6046 93.1572 69.5814 93.2321 69.6005 93.3045L69.6107 93.3104Z" fill="currentColor" />
<path d="M68.7821 92.7125L68.7863 92.7286C68.8118 92.825 68.9193 92.874 69.0158 92.8485C69.3775 92.753 69.7387 92.6231 70.0876 92.4793C70.1879 92.4357 70.2449 92.326 70.1953 92.2359C70.1537 92.1437 70.0462 92.0948 69.9519 92.1283C69.8356 92.1762 69.6368 92.2373 69.4401 92.3065C69.2252 92.3719 69.0205 92.4431 68.9041 92.4911C68.8179 92.5225 68.7667 92.622 68.7922 92.7184L68.7821 92.7125Z" fill="currentColor" />
<path d="M68.2325 91.8687C68.2325 91.8687 68.2388 91.8928 68.241 91.9009C68.2825 91.9931 68.404 92.0298 68.4962 91.9882L69.4398 91.5239C69.5298 91.4744 69.5687 91.3609 69.5271 91.2687C69.4855 91.1765 69.3641 91.1398 69.2719 91.1814L68.3283 91.6456C68.2441 91.6851 68.2091 91.7803 68.2303 91.8607L68.2325 91.8687Z" fill="currentColor" />
<path d="M67.9224 91.3144L67.9266 91.3305C67.9601 91.4248 68.0698 91.4818 68.1722 91.4462L68.9268 91.178C68.975 91.1653 69.0147 91.1204 69.0363 91.0717C69.0578 91.023 69.0611 90.9706 69.0404 90.9245C68.9967 90.8242 68.901 90.7549 68.7918 90.7322C68.6746 90.7116 68.562 90.7413 68.4885 90.8209C68.4547 90.8556 68.4331 90.9043 68.4378 90.9547L68.0525 91.0909C67.9582 91.1244 67.9071 91.2239 67.9325 91.3203L67.9224 91.3144Z" fill="currentColor" />
<path d="M67.4647 90.8506C67.4647 90.8506 67.469 90.8666 67.4732 90.8827C67.5148 90.9749 67.6304 91.0218 67.7204 90.9722C67.9349 90.8725 68.1493 90.7729 68.3578 90.6834C68.442 90.644 68.4872 90.5546 68.4638 90.4662C68.4405 90.3778 68.3469 90.3166 68.2564 90.3319L68.0672 90.3646C68.0008 90.3736 67.945 90.4227 67.9176 90.4816C67.8034 90.5375 67.679 90.5876 67.5648 90.6435C67.4807 90.683 67.4376 90.7803 67.4588 90.8607L67.4647 90.8506Z" fill="currentColor" />
<path d="M67.1271 90.4839C67.1271 90.4839 67.1335 90.508 67.1356 90.5161C67.1771 90.6083 67.2906 90.6471 67.3908 90.6034C67.5591 90.5245 67.7275 90.4457 67.8958 90.3668C67.988 90.3253 68.0349 90.2097 67.9853 90.1196C67.9437 90.0274 67.8282 89.9806 67.736 90.0221C67.5676 90.101 67.3993 90.1798 67.231 90.2587C67.1468 90.2981 67.1037 90.3955 67.125 90.4759L67.1271 90.4839Z" fill="currentColor" />
<path d="M66.7127 89.9572C66.7403 90.0617 66.8419 90.1208 66.9464 90.0932C67.1312 90.0444 67.3114 89.9452 67.4568 89.8122C67.5046 89.7652 67.5278 89.6903 67.5108 89.626C67.4917 89.5536 67.4265 89.5021 67.3558 89.4949L67.0587 89.4444C66.9516 89.4297 66.8578 89.4975 66.8409 89.5966C66.8355 89.641 66.8461 89.6812 66.8669 89.7273L66.8508 89.7315C66.7463 89.7591 66.6872 89.8607 66.7148 89.9652L66.7127 89.9572Z" fill="currentColor" />
<path d="M65.9829 89.3419C65.9829 89.3419 65.9935 89.3821 66.0058 89.3961C66.0634 89.484 66.1807 89.5046 66.2686 89.447C66.4365 89.3339 66.559 89.1467 66.5927 88.9487C66.6176 88.8475 66.5396 88.7477 66.4406 88.7309C66.3415 88.7141 66.2396 88.784 66.2228 88.883C66.206 88.9821 66.1447 89.0756 66.0568 89.1333C65.9908 89.1765 65.9617 89.2616 65.9829 89.3419Z" fill="currentColor" />
<path d="M65.667 88.7975C65.667 88.7975 65.6819 88.8538 65.7065 88.8817C65.778 88.9573 65.8991 88.9598 65.9769 88.8962L66.192 88.7018C66.2677 88.6302 66.2803 88.5151 66.2087 88.4394C66.1371 88.3637 66.022 88.3512 65.9464 88.4227L65.7312 88.6172C65.6754 88.6663 65.6602 88.7391 65.6772 88.8034L65.667 88.7975Z" fill="currentColor" />
<path d="M65.0056 88.3445C65.0289 88.4329 65.1145 88.4963 65.2152 88.4869C65.4246 88.466 65.6246 88.3444 65.7434 88.1754C65.8068 88.0899 65.7851 87.9752 65.6995 87.9118C65.614 87.8485 65.4993 87.8701 65.436 87.9557C65.3726 88.0412 65.2766 88.101 65.1759 88.1104C65.0752 88.1198 64.9978 88.2176 65.0073 88.3183C65.0094 88.3263 65.0115 88.3344 65.0136 88.3424L65.0056 88.3445Z" fill="currentColor" />
<path d="M64.6738 87.8045C64.6886 87.8607 64.7276 87.9106 64.7843 87.93C64.9304 87.9946 65.1093 87.9559 65.2387 87.8272C65.368 87.6984 65.4 87.5266 65.3356 87.3803C65.294 87.2881 65.1785 87.2412 65.0863 87.2828C64.9941 87.3243 64.9552 87.4378 64.9888 87.5321C64.9909 87.5401 64.949 87.577 64.933 87.5812C64.8356 87.5381 64.7273 87.5839 64.6842 87.6813C64.6686 87.7198 64.6632 87.7643 64.6738 87.8045Z" fill="currentColor" />
<path d="M64.169 87.1639C64.169 87.1639 64.1732 87.18 64.1774 87.1961C64.219 87.2883 64.3346 87.3351 64.4268 87.2936L64.936 87.0731C65.0282 87.0315 65.0751 86.9159 65.0335 86.8237C64.992 86.7315 64.8764 86.6847 64.7842 86.7262L64.275 86.9468C64.1908 86.9862 64.1456 87.0755 64.169 87.1639Z" fill="currentColor" />
<path d="M63.5422 86.5475C63.5655 86.6359 63.6409 86.6933 63.7336 86.6861C63.9874 86.6706 64.2446 86.6026 64.481 86.4886C64.5711 86.439 64.6099 86.3255 64.5603 86.2355C64.5108 86.1454 64.3973 86.1066 64.3072 86.1562C64.125 86.2473 63.916 86.3025 63.7125 86.3133C63.6096 86.3147 63.5302 86.4044 63.5337 86.5153C63.5379 86.5314 63.54 86.5394 63.5443 86.5555L63.5422 86.5475Z" fill="currentColor" />
<path d="M63.1297 86.0284C63.1552 86.1249 63.2589 86.192 63.3553 86.1666L63.9662 86.0052C64.1773 85.958 64.2119 85.8285 64.219 85.7578C64.2299 85.669 64.152 85.5692 64.0749 85.5379C63.9797 85.5029 63.8672 85.5326 63.8016 85.6101C63.7898 85.6304 63.778 85.6508 63.7742 85.669L63.2678 85.8028C63.1633 85.8304 63.1021 85.9239 63.1297 86.0284Z" fill="currentColor" />
<path d="M62.6588 85.3533C62.6588 85.3533 62.663 85.3694 62.6652 85.3774C62.7067 85.4696 62.8142 85.5186 62.9086 85.4851C63.0951 85.41 63.2982 85.365 63.5118 85.3601C63.6147 85.3587 63.6941 85.2689 63.6927 85.1661C63.6833 85.0654 63.6016 84.9838 63.4988 84.9852C63.2508 84.9905 63.0076 85.0462 62.7749 85.142C62.6806 85.1756 62.6376 85.2729 62.663 85.3694L62.6588 85.3533Z" fill="currentColor" />
<path d="M65.4525 108.295C65.478 108.392 65.5716 108.453 65.6782 108.433L66.6977 108.224C66.7942 108.199 66.8635 108.103 66.8439 107.997C66.8121 107.876 66.7227 107.831 66.6161 107.85L65.5966 108.059C65.4921 108.087 65.4308 108.181 65.4504 108.287L65.4525 108.295Z" fill="currentColor" />
<path d="M65.2827 107.652C65.3082 107.749 65.4119 107.816 65.5084 107.79L66.4289 107.564C66.5334 107.537 66.5925 107.435 66.5671 107.339C66.5255 107.247 66.4378 107.175 66.3414 107.201L65.4209 107.427C65.3164 107.454 65.2572 107.556 65.2827 107.652Z" fill="currentColor" />
<path d="M64.8523 106.838C64.8778 106.934 64.9714 106.995 65.07 106.978C65.3978 106.917 65.713 106.808 65.9929 106.631C66.0809 106.573 66.1015 106.456 66.0621 106.372C66.0044 106.284 65.8931 106.253 65.8052 106.311C65.5612 106.461 65.2942 106.557 65.0066 106.608C64.908 106.625 64.8387 106.721 64.8502 106.83L64.8545 106.846L64.8523 106.838Z" fill="currentColor" />
<path d="M64.4512 105.937L64.4554 105.953C64.4889 106.048 64.5986 106.105 64.701 106.069L65.4095 105.822C65.5038 105.788 65.5549 105.689 65.5294 105.592L65.5252 105.576C65.4916 105.482 65.382 105.425 65.2796 105.461L64.5711 105.708C64.4768 105.741 64.4257 105.841 64.4512 105.937Z" fill="currentColor" />
<path d="M64.125 105.19C64.125 105.19 64.1293 105.206 64.1314 105.214C64.1729 105.306 64.2805 105.355 64.3828 105.319L65.1429 105.007C65.2351 104.965 65.2883 104.874 65.2484 104.755C65.2069 104.663 65.0994 104.614 64.997 104.65L64.2369 104.962C64.1528 105.002 64.0995 105.093 64.125 105.19Z" fill="currentColor" />
<path d="M64.005 104.508L64.0093 104.524C64.0428 104.618 64.1605 104.673 64.2527 104.631L64.9227 104.368C65.025 104.333 65.0719 104.217 65.0303 104.125C64.9947 104.023 64.8791 103.976 64.7869 104.017L64.1169 104.28C64.0226 104.314 63.9795 104.411 64.005 104.508Z" fill="currentColor" />
<path d="M63.8188 103.706C63.8315 103.754 63.8705 103.804 63.9192 103.825C64.0165 103.868 64.1269 103.83 64.17 103.733C64.219 103.626 64.3327 103.535 64.4453 103.506C64.5497 103.478 64.6046 103.36 64.5813 103.272C64.5558 103.175 64.4521 103.108 64.3556 103.134C64.1225 103.195 63.923 103.351 63.825 103.566C63.8013 103.607 63.8039 103.649 63.8167 103.698L63.8188 103.706Z" fill="currentColor" />
<path d="M63.2918 103.045C63.2918 103.045 63.296 103.061 63.2982 103.069C63.3338 103.171 63.4494 103.218 63.5416 103.177L64.0551 102.972C64.2657 102.891 64.2859 102.739 64.2769 102.673C64.2739 102.596 64.1777 102.493 64.0948 102.472C63.9856 102.449 63.8853 102.493 63.8321 102.584C63.8203 102.604 63.8186 102.631 63.8148 102.649L63.4037 102.818C63.3094 102.851 63.2663 102.949 63.2918 103.045Z" fill="currentColor" />
<path d="M63.0506 102.49C63.0506 102.49 63.0569 102.514 63.059 102.522C63.1006 102.614 63.214 102.653 63.3143 102.609L63.3866 102.59C63.7876 102.415 63.8975 102.343 63.8551 102.182C63.8003 102.008 63.6133 102.049 63.541 102.068C63.4847 102.083 63.4407 102.111 63.4192 102.16C63.357 102.185 63.2949 102.21 63.2488 102.231C63.2005 102.244 63.1705 102.26 63.1566 102.272C63.0724 102.312 63.0374 102.407 63.0586 102.487L63.0506 102.49Z" fill="currentColor" />
<path d="M62.7706 101.79C62.7706 101.79 62.7855 101.846 62.8181 101.872C62.8897 101.947 63.0107 101.95 63.0864 101.878C63.176 101.794 63.2923 101.746 63.4053 101.751C63.5081 101.749 63.5977 101.666 63.5964 101.563C63.6089 101.448 63.5111 101.37 63.4083 101.372C63.1925 101.369 62.9738 101.452 62.8166 101.605C62.7688 101.652 62.7456 101.727 62.7626 101.792L62.7706 101.79Z" fill="currentColor" />
<path d="M62.7109 101.075C62.7109 101.075 62.7173 101.099 62.7215 101.115C62.7711 101.205 62.8846 101.244 62.9747 101.194C63.1108 101.124 63.2737 101.09 63.4252 101.11C63.5323 101.124 63.624 101.049 63.6307 100.944C63.6454 100.837 63.5696 100.745 63.4646 100.738C63.2344 100.713 62.9971 100.759 62.7928 100.864C62.7086 100.903 62.6736 100.999 62.6949 101.079L62.7109 101.075Z" fill="currentColor" />
<path d="M62.5891 100.385C62.5891 100.385 62.5934 100.401 62.5955 100.409C62.629 100.503 62.7446 100.55 62.8389 100.516L63.2982 100.335C63.3926 100.301 63.4555 100.181 63.4059 100.091C63.3724 99.9971 63.2568 99.9502 63.1625 99.9837L62.7031 100.165C62.6088 100.199 62.5658 100.296 62.5912 100.393L62.5891 100.385Z" fill="currentColor" />
<path d="M62.2211 99.7081C62.2211 99.7081 62.2254 99.7242 62.2275 99.7322C62.2691 99.8244 62.3766 99.8734 62.4709 99.8399C62.5872 99.792 62.7116 99.7419 62.8279 99.694C62.9303 99.6583 62.9788 99.5165 62.9356 99.4506C62.8999 99.3482 62.7844 99.3014 62.6922 99.3429C62.5678 99.393 62.4515 99.4409 62.3271 99.4909C62.2328 99.5245 62.1897 99.6218 62.2152 99.7183L62.2211 99.7081Z" fill="currentColor" />
<path d="M61.8727 98.8458C61.8727 98.8458 61.8812 98.8779 61.8833 98.886C61.9329 98.9761 62.0464 99.0149 62.1364 98.9653L62.6029 98.7131C62.693 98.6635 62.7318 98.55 62.6822 98.46C62.6326 98.3699 62.5192 98.3311 62.4291 98.3806L61.9626 98.6329C61.8865 98.6702 61.8515 98.7654 61.8727 98.8458Z" fill="currentColor" />
<path d="M44.8847 68.1314C44.9059 68.2118 44.9491 68.2778 45.0143 68.3293C49.7744 72.0589 53.0954 79.3243 54.6509 83.3244C55.4068 85.2743 56.1388 87.3939 57.0089 90.1993C57.329 91.2154 57.6329 92.2357 57.9449 93.2539C59.6598 98.9315 61.4317 104.792 64.4152 110.031C65.8317 112.529 67.5308 114.892 69.1824 117.173L78.3716 129.921C78.5174 130.115 78.725 130.412 79.0771 130.509C79.4132 130.609 79.7829 130.511 80.1783 130.218C81.8937 128.965 82.2033 126.622 82.2848 124.717C82.9153 109.821 76.6305 95.0155 65.4849 85.1139C64.0361 83.8286 62.4913 82.603 60.9936 81.4251C58.701 79.6147 56.333 77.7467 54.2902 75.6123C53.6031 74.8995 52.9377 74.1381 52.2946 73.3965C51.408 72.384 50.5049 71.3414 49.5121 70.3827C49.2813 70.1599 49.0522 69.9109 48.8251 69.67C48.4897 69.3115 48.1499 68.9369 47.7828 68.6212C47.6257 68.4821 47.382 68.5035 47.2509 68.6585C47.1119 68.8156 47.1333 69.0593 47.2883 69.1903C47.6207 69.4722 47.9481 69.8329 48.2713 70.1774C48.5127 70.4404 48.7521 70.6953 48.985 70.9261C49.9452 71.859 50.8542 72.8914 51.7205 73.8922C52.3716 74.6316 53.0413 75.4091 53.7406 76.1358C55.8182 78.304 58.2086 80.1919 60.5236 82.0222C62.0112 83.1941 63.5437 84.4058 64.9802 85.6772C75.9565 95.4257 82.1394 110.009 81.5202 124.687C81.4444 126.418 81.1803 128.543 79.7245 129.607C79.5448 129.74 79.3803 129.801 79.2871 129.774C79.1839 129.741 79.0648 129.583 78.9826 129.467L69.8179 116.747C68.1621 114.45 66.4774 112.109 65.0774 109.641C62.1414 104.484 60.3781 98.6558 58.6737 93.0183C58.3698 91.998 58.0557 90.9718 57.7437 89.9536C56.8693 87.1321 56.1331 84.9964 55.3628 83.0245C53.7801 78.9542 50.3866 71.5446 45.486 67.706C45.3229 67.5771 45.0813 67.6066 44.9524 67.7696C44.8751 67.8674 44.8566 67.9927 44.8842 68.0972L44.8847 68.1314Z" fill="currentColor" />
<path d="M77.6952 77.3997C77.7058 77.4399 77.7346 77.4839 77.7753 77.5075C79.0633 78.3796 80.0949 79.6806 80.9193 80.7182C89.361 91.3857 97.0063 102.814 103.641 114.681C105.333 117.699 106.877 120.679 107.226 123.923C107.236 124.024 107.334 124.101 107.434 124.092C107.535 124.082 107.612 123.985 107.603 123.884C107.234 120.568 105.68 117.548 103.971 114.499C97.3243 102.618 89.6748 91.1739 81.2187 80.4843C80.3777 79.4167 79.3237 78.0959 77.9929 77.1921C77.9095 77.1367 77.7868 77.1606 77.7314 77.244C77.6998 77.2867 77.6905 77.3494 77.7032 77.3976L77.6952 77.3997Z" fill="currentColor" />
<path d="M81.1747 81.5882C81.1747 81.5882 81.212 81.6644 81.2446 81.6901C82.4468 82.6279 83.3006 83.9071 84.2114 85.369C87.6148 90.7983 90.8335 96.4398 93.7908 102.133C95.579 105.582 97.199 108.98 97.3249 112.679C97.3263 112.781 97.416 112.861 97.5189 112.859C97.6217 112.858 97.7011 112.768 97.6998 112.665C97.5709 108.89 95.93 105.446 94.1233 101.959C91.1638 96.258 87.9349 90.6106 84.5273 85.1651C83.592 83.6753 82.7194 82.3581 81.4724 81.3806C81.3868 81.3172 81.2701 81.3309 81.2067 81.4164C81.1669 81.4613 81.1577 81.5239 81.1726 81.5802L81.1747 81.5882Z" fill="currentColor" />
<path d="M79.0446 78.5051C79.0446 78.5051 79.0595 78.5614 79.0819 78.5813L85.5579 85.9418C89.4318 90.3526 93.4466 94.9067 98.0426 98.7312C98.583 99.1818 99.1394 99.6281 99.6937 100.066C101.862 101.798 104.1 103.597 105.688 105.895C105.745 105.983 105.862 106.003 105.95 105.946C106.038 105.888 106.069 105.777 106.001 105.683C104.385 103.341 102.119 101.532 99.9359 99.7788C99.3794 99.3325 98.8332 98.8921 98.2928 98.4416C93.7193 94.6369 89.7226 90.0866 85.853 85.6918L79.377 78.3313C79.3054 78.2556 79.1903 78.2431 79.1066 78.3168C79.0508 78.3659 79.0276 78.4408 79.0446 78.5051Z" fill="currentColor" />
<path d="M105.722 113.512C105.746 113.601 105.821 113.658 105.914 113.651C106.379 113.623 106.831 113.477 107.221 113.228C107.309 113.171 107.34 113.059 107.282 112.971C107.224 112.883 107.113 112.853 107.025 112.91C106.685 113.12 106.289 113.251 105.89 113.27C105.79 113.279 105.71 113.369 105.712 113.472C105.716 113.488 105.718 113.496 105.72 113.504L105.722 113.512Z" fill="currentColor" />
<path d="M105.757 112.961C105.757 112.961 105.764 112.985 105.766 112.993C105.815 113.084 105.921 113.125 106.021 113.081C106.325 112.932 106.646 112.812 106.978 112.733C107.083 112.706 107.142 112.604 107.116 112.508C107.091 112.411 106.987 112.344 106.891 112.37C106.529 112.465 106.182 112.583 105.855 112.746C105.771 112.786 105.736 112.881 105.757 112.961Z" fill="currentColor" />
<path d="M105.712 112.432C105.712 112.432 105.718 112.456 105.72 112.464C105.762 112.556 105.878 112.603 105.976 112.551L106.885 112.122C106.978 112.08 107.017 111.967 106.973 111.866C106.931 111.774 106.816 111.727 106.718 111.779L105.808 112.208C105.724 112.248 105.681 112.345 105.702 112.426L105.712 112.432Z" fill="currentColor" />
<path d="M105.779 111.838C105.802 111.926 105.878 111.984 105.97 111.977C106.277 111.964 106.571 111.844 106.803 111.645C106.864 111.586 106.889 111.484 106.844 111.41C106.799 111.336 106.701 111.293 106.623 111.323C106.502 111.355 106.374 111.423 106.25 111.473C106.134 111.521 106.019 111.577 105.909 111.614C105.821 111.638 105.769 111.737 105.785 111.828L105.789 111.844L105.779 111.838Z" fill="currentColor" />
<path d="M105.692 111.052C105.692 111.052 105.698 111.077 105.702 111.093C105.752 111.183 105.865 111.222 105.955 111.172L106.536 110.864C106.626 110.814 106.663 110.693 106.615 110.611C106.566 110.521 106.452 110.482 106.362 110.531L105.782 110.84C105.697 110.879 105.662 110.974 105.684 111.055L105.692 111.052Z" fill="currentColor" />
<path d="M105.435 110.57C105.435 110.57 105.439 110.586 105.444 110.602C105.485 110.695 105.601 110.742 105.693 110.7L106.248 110.459C106.34 110.417 106.4 110.315 106.346 110.209C106.304 110.117 106.189 110.07 106.096 110.112L105.541 110.353C105.457 110.393 105.412 110.482 105.435 110.57Z" fill="currentColor" />
<path d="M105.305 110.045C105.305 110.045 105.32 110.102 105.343 110.121C105.394 110.185 105.485 110.204 105.563 110.175L106.004 109.99C106.089 109.95 106.134 109.861 106.108 109.764C106.083 109.668 105.991 109.615 105.893 109.632L105.844 109.645C105.671 109.673 105.456 109.705 105.328 109.902C105.296 109.945 105.295 110.005 105.308 110.053L105.305 110.045Z" fill="currentColor" />
<path d="M104.771 108.871C104.784 108.919 104.813 108.963 104.861 108.985C104.953 109.038 105.065 109.008 105.119 108.917C105.184 108.805 105.277 108.703 105.385 108.623C105.473 108.565 105.485 108.45 105.428 108.362C105.37 108.274 105.245 108.256 105.167 108.319C105.015 108.428 104.882 108.575 104.793 108.727C104.77 108.768 104.758 108.823 104.771 108.871Z" fill="currentColor" />
<path d="M97.6166 95.5245C97.6166 95.5245 97.6251 95.5567 97.6293 95.5728C97.6789 95.6628 97.7983 95.6915 97.8883 95.6419L99.0488 94.957C99.1388 94.9074 99.1696 94.7961 99.1179 94.698C99.0683 94.6079 98.949 94.5792 98.8589 94.6288L97.6985 95.3137C97.6245 95.3591 97.5873 95.4463 97.6085 95.5267L97.6166 95.5245Z" fill="currentColor" />
<path d="M97.1622 94.845C97.1622 94.845 97.1771 94.9013 97.2097 94.9271C97.2812 95.0028 97.4023 95.0052 97.4779 94.9336C97.6432 94.7781 97.8433 94.6565 98.0641 94.581C98.1664 94.5453 98.1993 94.4421 98.1819 94.3435C98.1543 94.239 98.0387 94.1921 97.9444 94.2257C97.6754 94.3139 97.4233 94.4665 97.2162 94.6588C97.1684 94.7058 97.1452 94.7807 97.1622 94.845Z" fill="currentColor" />
<path d="M96.4646 94.4189C96.4646 94.4189 96.4688 94.4349 96.471 94.443C96.5125 94.5352 96.6201 94.5842 96.7123 94.5426C97.0033 94.4399 97.2799 94.3152 97.5544 94.1825C97.6466 94.141 97.6934 94.0254 97.6417 93.9273C97.6002 93.8351 97.4867 93.7963 97.3865 93.84C97.2943 93.8815 97.1399 93.9481 96.9834 94.0066C96.821 94.0754 96.6505 94.1462 96.5583 94.1877C96.4741 94.2272 96.4391 94.3224 96.4604 94.4028L96.4646 94.4189Z" fill="currentColor" />
<path d="M95.9681 93.7761C95.9681 93.7761 95.9766 93.8083 95.9809 93.8244C96.0305 93.9144 96.1498 93.9431 96.2399 93.8935L96.9702 93.4684C97.0603 93.4188 97.097 93.2973 97.0394 93.2094C96.9898 93.1193 96.8704 93.0906 96.7804 93.1402L96.05 93.5653C95.976 93.6107 95.9389 93.6979 95.9601 93.7783L95.9681 93.7761Z" fill="currentColor" />
<path d="M95.6824 93.3444C95.6824 93.3444 95.6866 93.3605 95.6909 93.3766C95.7324 93.4688 95.848 93.5156 95.9402 93.4741L96.5336 93.2141C96.5818 93.2014 96.6216 93.1565 96.6329 93.1019C96.6545 93.0532 96.6477 92.9948 96.6188 92.9508C96.5692 92.8608 96.4858 92.8054 96.3788 92.7907C96.2738 92.784 96.1715 92.8197 96.1059 92.8972C96.0802 92.9298 96.0645 92.9683 96.065 93.0026L95.7884 93.1272C95.7042 93.1667 95.659 93.256 95.6824 93.3444Z" fill="currentColor" />
<path d="M95.2905 93.0008C95.2905 93.0008 95.299 93.0329 95.3033 93.049C95.3529 93.1391 95.4663 93.1779 95.5644 93.1262L96.0668 92.8473C96.1489 92.7998 96.2042 92.7164 96.1504 92.6102C96.119 92.524 96.0275 92.4707 95.9311 92.4962L95.7784 92.5366C95.7141 92.5535 95.6642 92.5925 95.6448 92.6492L95.3826 92.7959C95.3086 92.8412 95.2714 92.9284 95.2927 93.0088L95.2905 93.0008Z" fill="currentColor" />
<path d="M94.9945 92.7265C94.9945 92.7265 95.003 92.7587 95.0072 92.7748C95.0568 92.8648 95.1762 92.8935 95.2662 92.8439L95.6545 92.621C95.7445 92.5714 95.7732 92.452 95.7236 92.3619C95.674 92.2719 95.5547 92.2432 95.4646 92.2928L95.0764 92.5157C95.0024 92.5611 94.9652 92.6483 94.9864 92.7287L94.9945 92.7265Z" fill="currentColor" />
<path d="M94.6323 92.3318L94.6365 92.3479C94.6721 92.4502 94.7797 92.4992 94.882 92.4636C95.0385 92.405 95.1785 92.3164 95.2859 92.2021C95.3315 92.147 95.3547 92.0721 95.3195 92.004C95.3004 91.9317 95.2293 91.8903 95.1586 91.8832L94.9204 91.8601C94.8154 91.8535 94.7237 91.9293 94.7149 92.0262C94.7154 92.0605 94.7137 92.0867 94.7302 92.1167C94.6541 92.154 94.611 92.2514 94.6323 92.3318Z" fill="currentColor" />
<path d="M94.005 91.8787C94.005 91.8787 94.0178 91.9269 94.0402 91.9468C94.1059 92.0326 94.221 92.0452 94.3068 91.9795C94.4426 91.8749 94.5351 91.7043 94.5489 91.5287C94.5636 91.4216 94.4797 91.332 94.3748 91.3253C94.2698 91.3186 94.1781 91.3945 94.1714 91.4994C94.1643 91.5701 94.1229 91.6412 94.073 91.6802C94.0091 91.7314 93.9859 91.8063 94.005 91.8787Z" fill="currentColor" />
<path d="M93.7235 91.4627C93.7235 91.4627 93.7485 91.5249 93.7811 91.5507C93.8586 91.6162 93.9796 91.6186 94.0451 91.5411L94.2062 91.3696C94.2797 91.29 94.2741 91.1711 94.1945 91.0975C94.1149 91.024 93.996 91.0296 93.9224 91.1092L93.7614 91.2807C93.7136 91.3278 93.7065 91.3984 93.7213 91.4547L93.7235 91.4627Z" fill="currentColor" />
<path d="M93.1624 91.1295C93.1879 91.226 93.2815 91.2872 93.38 91.2698C93.559 91.2311 93.7188 91.1201 93.8075 90.9677C93.8608 90.8762 93.831 90.7637 93.7396 90.7105C93.6481 90.6573 93.5356 90.687 93.4824 90.7784C93.4469 90.8394 93.375 90.8928 93.3006 90.9039C93.1961 90.9315 93.1268 91.0272 93.1523 91.1236L93.1565 91.1397L93.1624 91.1295Z" fill="currentColor" />
<path d="M92.8646 90.718C92.8794 90.7742 92.9286 90.83 92.9853 90.8494C93.1191 90.9001 93.2777 90.8496 93.3851 90.7352C93.4903 90.6128 93.5244 90.4491 93.4401 90.3252C93.3905 90.2351 93.2771 90.1963 93.187 90.2459C93.0969 90.2955 93.05 90.411 93.1077 90.499C93.0124 90.4639 92.9042 90.5097 92.8691 90.605C92.8535 90.6435 92.854 90.6778 92.8625 90.7099L92.8646 90.718Z" fill="currentColor" />
<path d="M92.4186 90.2343C92.4186 90.2343 92.425 90.2584 92.4292 90.2744C92.4788 90.3645 92.5923 90.4033 92.6823 90.3537L93.0828 90.1448C93.1729 90.0952 93.2016 89.9758 93.1621 89.8916C93.1125 89.8016 92.9991 89.7627 92.909 89.8123L92.5166 90.0192C92.4324 90.0586 92.3974 90.1539 92.4186 90.2343Z" fill="currentColor" />
<path d="M91.8762 89.7755C91.8995 89.8639 91.9851 89.9273 92.0858 89.9179C92.2931 89.8889 92.5058 89.8155 92.6839 89.7083C92.7718 89.6507 92.7946 89.5415 92.745 89.4514C92.6873 89.3634 92.576 89.3326 92.4881 89.3903C92.3561 89.4767 92.1975 89.5272 92.0384 89.5435C91.9377 89.5529 91.8604 89.6507 91.8719 89.7594C91.874 89.7675 91.8762 89.7755 91.8783 89.7835L91.8762 89.7755Z" fill="currentColor" />
<path d="M91.5138 89.3811L91.5159 89.3892C91.5414 89.4856 91.6591 89.5405 91.7534 89.507L92.2352 89.3453C92.4361 89.2922 92.4462 89.1348 92.4516 89.0904C92.4443 88.9977 92.3685 88.906 92.2936 88.8828C92.2005 88.8558 92.0901 88.8936 92.0427 88.9748C92.0368 88.985 92.033 89.0032 92.0271 89.0134L91.6397 89.1415C91.5432 89.167 91.4942 89.2745 91.5197 89.371L91.5138 89.3811Z" fill="currentColor" />
<path d="M91.0937 88.8644C91.0937 88.8644 91.1001 88.8885 91.1043 88.9046C91.1539 88.9947 91.2673 89.0335 91.3596 88.9919C91.5038 88.9194 91.6565 88.8791 91.8236 88.8607C91.9243 88.8513 92.0016 88.7535 91.9922 88.6528C91.9786 88.536 91.885 88.4748 91.7843 88.4842C91.5749 88.5051 91.3761 88.5662 91.1938 88.6574C91.1096 88.6968 91.0746 88.7921 91.0958 88.8724L91.0937 88.8644Z" fill="currentColor" />
<path d="M94.7207 107.15C94.7462 107.246 94.8559 107.303 94.9523 107.278L95.7598 107.047C95.8563 107.022 95.9154 106.92 95.8878 106.816C95.8602 106.711 95.7506 106.654 95.6563 106.688L94.8487 106.918C94.7523 106.944 94.6931 107.045 94.7207 107.15Z" fill="currentColor" />
<path d="M94.5446 106.646L94.5467 106.654C94.5743 106.758 94.6899 106.805 94.7864 106.78L95.5131 106.536C95.6095 106.511 95.6687 106.409 95.6389 106.296C95.6113 106.192 95.4958 106.145 95.3993 106.171L94.6726 106.414C94.5762 106.44 94.5191 106.549 94.5446 106.646Z" fill="currentColor" />
<path d="M94.1447 106.012C94.1702 106.108 94.2739 106.175 94.3703 106.15C94.6356 106.08 94.8822 105.972 95.1058 105.809C95.1938 105.752 95.2064 105.637 95.1487 105.549C95.0911 105.461 94.9658 105.442 94.8881 105.506C94.7003 105.641 94.4998 105.729 94.2828 105.786C94.1783 105.814 94.1192 105.915 94.1447 106.012Z" fill="currentColor" />
<path d="M93.7705 105.311C93.7705 105.311 93.7748 105.327 93.779 105.343C93.8206 105.436 93.9362 105.482 94.0284 105.441L94.5837 105.2C94.6759 105.158 94.7431 105.054 94.6812 104.95C94.6396 104.858 94.5241 104.811 94.4319 104.853L93.8765 105.094C93.7924 105.133 93.7472 105.223 93.7705 105.311Z" fill="currentColor" />
<path d="M93.4621 104.73C93.4621 104.73 93.4685 104.754 93.4727 104.771C93.5143 104.863 93.6358 104.899 93.728 104.858L94.3209 104.564C94.4131 104.522 94.4621 104.415 94.4083 104.308C94.3667 104.216 94.2452 104.18 94.153 104.221L93.5601 104.515C93.4759 104.555 93.4409 104.65 93.4621 104.73Z" fill="currentColor" />
<path d="M93.3281 104.19C93.3281 104.19 93.3344 104.214 93.3366 104.222C93.3781 104.314 93.4916 104.353 93.5918 104.309L94.1107 104.06C94.2029 104.019 94.2418 103.905 94.1981 103.805C94.1565 103.713 94.0431 103.674 93.9429 103.718L93.4239 103.967C93.3397 104.006 93.3047 104.101 93.3259 104.182L93.3281 104.19Z" fill="currentColor" />
<path d="M93.1262 103.556C93.141 103.612 93.18 103.662 93.2469 103.687C93.3421 103.722 93.4504 103.676 93.4935 103.579C93.5226 103.494 93.5924 103.432 93.6786 103.401C93.7751 103.376 93.8321 103.266 93.8066 103.169L93.8045 103.161C93.779 103.065 93.6694 103.008 93.5649 103.036C93.3741 103.095 93.2088 103.25 93.1388 103.44C93.1231 103.479 93.1257 103.521 93.1342 103.553L93.1262 103.556Z" fill="currentColor" />
<path d="M92.6676 103.057C92.6676 103.057 92.674 103.081 92.6761 103.089C92.7177 103.182 92.8311 103.22 92.9314 103.177L93.334 102.976C93.5243 102.882 93.5204 102.737 93.5157 102.687C93.5157 102.687 93.5135 102.679 93.5114 102.671C93.4902 102.591 93.4106 102.517 93.3297 102.504C93.2307 102.487 93.1245 102.541 93.0874 102.628C93.0836 102.646 93.0798 102.665 93.076 102.683L92.7715 102.832C92.6873 102.871 92.6443 102.969 92.6655 103.049L92.6676 103.057Z" fill="currentColor" />
<path d="M92.4344 102.629C92.4344 102.629 92.4429 102.661 92.4471 102.677C92.4967 102.767 92.608 102.798 92.7061 102.746L92.7544 102.734C93.0788 102.562 93.1951 102.514 93.1361 102.323C93.0903 102.215 92.987 102.182 92.8284 102.233C92.7801 102.245 92.7383 102.282 92.7227 102.321C92.6766 102.342 92.6245 102.372 92.5865 102.391L92.5264 102.424C92.4524 102.47 92.4153 102.557 92.4365 102.637L92.4344 102.629Z" fill="currentColor" />
<path d="M92.1668 102.072C92.1668 102.072 92.194 102.142 92.2244 102.16C92.3019 102.225 92.423 102.228 92.4965 102.148C92.5561 102.081 92.6403 102.041 92.7249 102.036C92.8256 102.027 92.9051 101.937 92.9037 101.834C92.8862 101.736 92.8045 101.654 92.7017 101.655C92.5164 101.67 92.34 101.751 92.2229 101.894C92.1752 101.941 92.168 102.011 92.1829 102.068L92.1668 102.072Z" fill="currentColor" />
<path d="M92.0768 101.502C92.0768 101.502 92.0852 101.534 92.0997 101.556C92.1573 101.644 92.2686 101.675 92.3566 101.618C92.4606 101.556 92.5812 101.524 92.6941 101.528C92.7991 101.535 92.8887 101.451 92.8873 101.348C92.8919 101.235 92.8101 101.154 92.7073 101.155C92.5156 101.146 92.3147 101.199 92.1527 101.302C92.0787 101.347 92.0496 101.432 92.0708 101.512L92.0768 101.502Z" fill="currentColor" />
<path d="M91.9422 100.962C91.9422 100.962 91.9485 100.986 91.9507 100.994C91.9922 101.086 92.1057 101.125 92.2059 101.082L92.5645 100.909C92.6567 100.868 92.6977 100.762 92.6519 100.654C92.6103 100.562 92.4948 100.515 92.3967 100.567L92.038 100.739C91.9538 100.778 91.9108 100.876 91.932 100.956L91.9422 100.962Z" fill="currentColor" />
<path d="M91.5965 100.434C91.5965 100.434 91.6029 100.458 91.605 100.466C91.6466 100.558 91.768 100.595 91.8602 100.554L92.1406 100.411C92.2328 100.369 92.2776 100.246 92.228 100.155C92.1864 100.063 92.073 100.024 91.9727 100.068L91.6902 100.203C91.606 100.242 91.571 100.338 91.5923 100.418L91.5965 100.434Z" fill="currentColor" />
<path d="M91.2727 99.7632C91.2727 99.7632 91.2833 99.8034 91.2956 99.8173C91.3532 99.9053 91.4726 99.9339 91.5605 99.8763L91.9225 99.6517C92.0105 99.594 92.037 99.4667 91.9836 99.3948C91.926 99.3068 91.8067 99.2782 91.7267 99.3337L91.3648 99.5583C91.2907 99.6036 91.2616 99.6887 91.2829 99.7691L91.2727 99.7632Z" fill="currentColor" />
<path d="M75.7336 76.0951C75.757 76.1835 75.8125 76.2634 75.8857 76.3129C79.9183 79.0136 83.0219 84.6426 84.5093 87.7664C85.2415 89.3012 85.9553 90.9614 86.8172 93.1498C87.1302 93.9442 87.4352 94.7406 87.7504 95.543C89.4714 100.007 91.2589 104.625 93.9683 108.664C95.2705 110.598 96.7866 112.399 98.2456 114.146L106.384 123.828C106.519 123.981 106.718 124.212 107.029 124.285C107.33 124.351 107.646 124.242 107.961 123.97C109.286 122.837 109.398 120.916 109.349 119.364C108.959 107.343 103.008 95.7855 93.4335 88.4784C92.1847 87.5271 90.8764 86.6432 89.5985 85.777C87.6512 84.4599 85.6328 83.1015 83.8635 81.5139C83.2676 80.9835 82.6975 80.4204 82.1274 79.8573C81.3591 79.0973 80.5582 78.3115 79.7079 77.5989C79.5101 77.4362 79.3161 77.2552 79.12 77.0663C78.832 76.7898 78.5259 76.5096 78.2062 76.2759C78.0351 76.1491 77.8037 76.1845 77.6769 76.3556C77.5996 76.4534 77.573 76.5808 77.6188 76.689C77.1966 76.3277 76.7545 75.9887 76.3049 75.6862C76.1279 75.5696 75.8986 75.613 75.782 75.79C75.7207 75.8835 75.7081 75.9986 75.7336 76.0951ZM107.307 110.66C108.057 113.497 108.495 116.425 108.589 119.384C108.636 120.765 108.543 122.466 107.463 123.388C107.323 123.511 107.221 123.546 107.185 123.539C107.13 123.527 107.019 123.402 106.958 123.332L98.8278 113.648C97.3731 111.917 95.8692 110.131 94.5937 108.232C91.9275 104.259 90.1608 99.687 88.4504 95.2635C88.1433 94.459 87.8302 93.6646 87.5172 92.8703C86.651 90.6658 85.933 88.9896 85.1885 87.4408C83.998 84.9522 81.8005 80.8981 78.9034 77.906C79.0054 77.9994 79.1155 78.0907 79.2176 78.1841C80.0455 78.8768 80.8341 79.6487 81.5923 80.4029C82.1725 80.9718 82.7447 81.5429 83.3507 82.0793C85.1549 83.7007 87.1957 85.079 89.1633 86.4079C90.4289 87.2601 91.7372 88.144 92.9656 89.0835C100.008 94.4543 105.055 102.167 107.302 110.67L107.307 110.66Z" fill="currentColor" />
<path d="M105.468 85.3762C105.479 85.4164 105.508 85.4604 105.549 85.484C106.541 86.1503 107.29 87.0619 108.175 88.1692C115.237 97.0948 121.643 106.666 127.202 116.608C128.617 119.132 129.91 121.619 130.199 124.337C130.208 124.438 130.306 124.515 130.407 124.506C130.507 124.497 130.585 124.399 130.575 124.298C130.272 121.523 128.958 118.99 127.532 116.426C121.959 106.462 115.549 96.8749 108.467 87.9375C107.757 87.0416 106.879 85.9321 105.758 85.1707C105.675 85.1153 105.552 85.1392 105.497 85.2226C105.465 85.2653 105.456 85.328 105.468 85.3762Z" fill="currentColor" />
<path d="M108.381 88.8801C108.381 88.8801 108.418 88.9562 108.451 88.982C109.53 89.8146 110.307 91.0625 110.931 92.0584C113.787 96.6178 116.487 101.339 118.956 106.095C120.451 108.985 121.803 111.826 121.913 114.91C121.914 115.013 122.004 115.092 122.107 115.091C122.21 115.089 122.289 114.999 122.288 114.897C122.175 111.736 120.8 108.841 119.289 105.921C116.818 101.157 114.113 96.4199 111.247 91.8545C110.609 90.8367 109.807 89.5608 108.681 88.6805C108.595 88.6171 108.478 88.6308 108.415 88.7163C108.375 88.7612 108.366 88.8239 108.381 88.8801Z" fill="currentColor" />
<path d="M106.598 86.2988C106.598 86.2988 106.613 86.3551 106.635 86.375L112.057 92.5437C115.31 96.2328 118.668 100.058 122.513 103.255C122.966 103.634 123.435 104.009 123.904 104.384C125.714 105.832 127.581 107.333 128.911 109.243C128.968 109.331 129.086 109.352 129.173 109.294C129.261 109.237 129.29 109.117 129.224 109.031C127.866 107.077 125.976 105.556 124.144 104.088C123.675 103.713 123.216 103.344 122.756 102.967C118.93 99.782 115.579 95.9812 112.344 92.2959L106.922 86.1272C106.851 86.0515 106.735 86.0389 106.652 86.1126C106.596 86.1617 106.573 86.2367 106.59 86.301L106.598 86.2988Z" fill="currentColor" />
<path d="M128.945 115.623C128.969 115.711 129.044 115.769 129.137 115.762C129.525 115.736 129.913 115.608 130.245 115.4C130.333 115.342 130.366 115.239 130.306 115.143C130.248 115.055 130.137 115.024 130.049 115.082C129.769 115.259 129.444 115.362 129.113 115.381C129.013 115.39 128.933 115.48 128.935 115.583C128.939 115.599 128.941 115.607 128.943 115.615L128.945 115.623Z" fill="currentColor" />
<path d="M128.97 115.161C128.97 115.161 128.976 115.185 128.978 115.193C129.02 115.285 129.141 115.322 129.233 115.281C129.484 115.154 129.759 115.056 130.034 114.992C130.139 114.964 130.198 114.862 130.172 114.766C130.147 114.67 130.043 114.602 129.947 114.628C129.649 114.706 129.35 114.811 129.076 114.944C128.992 114.983 128.957 115.079 128.978 115.159L128.97 115.161Z" fill="currentColor" />
<path d="M128.929 114.716C128.929 114.716 128.936 114.74 128.938 114.748C128.98 114.84 129.093 114.879 129.193 114.835L129.951 114.481C130.043 114.439 130.082 114.326 130.038 114.225C129.996 114.133 129.881 114.086 129.783 114.138L129.025 114.493C128.941 114.532 128.898 114.63 128.919 114.71L128.929 114.716Z" fill="currentColor" />
<path d="M128.995 114.217C129.019 114.305 129.094 114.362 129.187 114.355C129.451 114.346 129.705 114.235 129.901 114.063C129.97 114.002 129.987 113.903 129.942 113.829C129.896 113.755 129.799 113.712 129.713 113.743C129.608 113.771 129.502 113.825 129.394 113.87C129.302 113.912 129.201 113.956 129.115 113.987C129.027 114.01 128.976 114.11 128.991 114.2L128.995 114.217Z" fill="currentColor" />
<path d="M128.916 113.559C128.916 113.559 128.922 113.583 128.926 113.599C128.976 113.689 129.089 113.728 129.179 113.678L129.662 113.422C129.752 113.372 129.793 113.267 129.741 113.168C129.692 113.078 129.578 113.04 129.488 113.089L128.998 113.348C128.913 113.387 128.878 113.482 128.9 113.563L128.916 113.559Z" fill="currentColor" />
<path d="M128.704 113.15C128.704 113.15 128.709 113.166 128.713 113.182C128.755 113.275 128.87 113.321 128.962 113.28L129.423 113.072C129.516 113.031 129.562 112.915 129.521 112.823C129.479 112.731 129.364 112.684 129.271 112.725L128.81 112.933C128.726 112.972 128.681 113.062 128.704 113.15Z" fill="currentColor" />
<path d="M128.598 112.714C128.598 112.714 128.613 112.77 128.635 112.79C128.687 112.854 128.778 112.873 128.856 112.843L129.219 112.687C129.303 112.648 129.348 112.558 129.323 112.462C129.297 112.366 129.206 112.312 129.107 112.33L129.14 112.519L129.067 112.34C128.926 112.36 128.729 112.395 128.612 112.572C128.581 112.615 128.577 112.667 128.592 112.724L128.598 112.714Z" fill="currentColor" />
<path d="M128.149 111.732C128.162 111.78 128.191 111.824 128.24 111.846C128.331 111.899 128.444 111.869 128.497 111.778C128.55 111.686 128.624 111.607 128.709 111.541C128.797 111.483 128.808 111.36 128.76 111.278C128.703 111.19 128.585 111.17 128.498 111.227C128.368 111.322 128.252 111.438 128.17 111.58C128.146 111.621 128.135 111.676 128.147 111.724L128.149 111.732Z" fill="currentColor" />
<path d="M122.151 100.548C122.151 100.548 122.159 100.58 122.163 100.596C122.213 100.686 122.332 100.715 122.423 100.665L123.389 100.092C123.479 100.042 123.51 99.931 123.458 99.8328C123.408 99.7428 123.289 99.7141 123.199 99.7637L122.233 100.337C122.159 100.382 122.121 100.47 122.143 100.55L122.151 100.548Z" fill="currentColor" />
<path d="M121.77 99.9862C121.77 99.9862 121.785 100.042 121.818 100.068C121.889 100.144 122.01 100.146 122.086 100.075C122.223 99.9439 122.388 99.8489 122.568 99.784C122.673 99.7564 122.703 99.6451 122.686 99.5465C122.66 99.4501 122.543 99.3952 122.448 99.4287C122.22 99.5064 122.004 99.6322 121.824 99.8C121.777 99.847 121.753 99.9219 121.77 99.9862Z" fill="currentColor" />
<path d="M121.185 99.6249C121.185 99.6249 121.189 99.641 121.191 99.6491C121.233 99.7413 121.34 99.7902 121.432 99.7487C121.675 99.6587 121.916 99.5608 122.144 99.4488C122.236 99.4073 122.283 99.2917 122.232 99.1936C122.19 99.1014 122.077 99.0626 121.976 99.1063C121.9 99.1436 121.776 99.1936 121.643 99.2458C121.503 99.3001 121.365 99.3624 121.289 99.3997C121.204 99.4392 121.169 99.5344 121.191 99.6148L121.185 99.6249Z" fill="currentColor" />
<path d="M120.776 99.0881C120.776 99.0881 120.785 99.1202 120.789 99.1363C120.839 99.2264 120.958 99.2551 121.048 99.2055L121.658 98.8465C121.748 98.7969 121.779 98.6856 121.727 98.5875C121.678 98.4974 121.558 98.4687 121.468 98.5183L120.858 98.8773C120.784 98.9226 120.747 99.0098 120.768 99.0902L120.776 99.0881Z" fill="currentColor" />
<path d="M120.536 98.7301C120.536 98.7301 120.54 98.7462 120.544 98.7623C120.586 98.8545 120.701 98.9014 120.794 98.8598L121.295 98.6414C121.343 98.6287 121.383 98.5838 121.394 98.5292C121.408 98.4826 121.409 98.4221 121.38 98.3781C121.341 98.294 121.249 98.2407 121.152 98.2319C121.055 98.2231 120.961 98.2567 120.895 98.3342C120.876 98.3566 120.86 98.3951 120.858 98.4214L120.644 98.521C120.56 98.5604 120.515 98.6498 120.538 98.7382L120.536 98.7301Z" fill="currentColor" />
<path d="M120.201 98.4403C120.201 98.4403 120.21 98.4725 120.214 98.4885C120.264 98.5786 120.377 98.6174 120.475 98.5657L120.895 98.3343C120.978 98.2868 121.029 98.1873 120.981 98.1053C120.95 98.019 120.85 97.9679 120.762 97.9912L120.641 98.0231C120.585 98.038 120.533 98.0689 120.511 98.1176L120.301 98.2333C120.225 98.2706 120.19 98.3658 120.211 98.4462L120.201 98.4403Z" fill="currentColor" />
<path d="M119.96 98.2114C119.96 98.2114 119.969 98.2436 119.973 98.2596C120.022 98.3497 120.136 98.3885 120.232 98.3288L120.562 98.1469C120.652 98.0973 120.691 97.9839 120.631 97.8879C120.582 97.7978 120.468 97.759 120.372 97.8188L120.042 98.0006C119.968 98.046 119.931 98.1332 119.952 98.2135L119.96 98.2114Z" fill="currentColor" />
<path d="M119.657 97.8787L119.662 97.8948C119.697 97.9971 119.805 98.0461 119.907 98.0105C120.042 97.9663 120.166 97.882 120.259 97.7799C120.305 97.7249 120.336 97.6478 120.293 97.5819C120.274 97.5095 120.202 97.4681 120.132 97.461L119.93 97.4456C119.825 97.4389 119.733 97.5147 119.724 97.6116C119.729 97.6277 119.727 97.6539 119.731 97.67C119.665 97.7132 119.636 97.7983 119.655 97.8707L119.657 97.8787Z" fill="currentColor" />
<path d="M119.128 97.5028C119.128 97.5028 119.141 97.5511 119.163 97.5709C119.229 97.6568 119.352 97.6672 119.43 97.6037C119.552 97.5113 119.632 97.361 119.642 97.2036C119.657 97.0965 119.573 97.0069 119.468 97.0002C119.363 96.9936 119.272 97.0694 119.265 97.1744C119.262 97.2268 119.232 97.2776 119.188 97.3064C119.124 97.3577 119.101 97.4326 119.12 97.505L119.128 97.5028Z" fill="currentColor" />
<path d="M118.889 97.153C118.889 97.153 118.914 97.2151 118.939 97.243C119.019 97.3166 119.137 97.311 119.211 97.2314L119.346 97.0924C119.42 97.0128 119.414 96.8939 119.337 96.8284C119.257 96.7549 119.138 96.7605 119.065 96.8401L118.929 96.979C118.882 97.026 118.866 97.0988 118.881 97.1551L118.889 97.153Z" fill="currentColor" />
<path d="M118.42 96.8731C118.446 96.9695 118.539 97.0308 118.646 97.0112C118.801 96.9789 118.938 96.8823 119.023 96.7481C119.077 96.6566 119.047 96.5441 118.955 96.4909C118.864 96.4376 118.751 96.4674 118.698 96.5588C118.667 96.6016 118.625 96.6384 118.568 96.6533C118.472 96.6788 118.403 96.7745 118.422 96.8811L118.424 96.8891L118.42 96.8731Z" fill="currentColor" />
<path d="M118.174 96.5255C118.188 96.5818 118.227 96.6316 118.294 96.657C118.418 96.7017 118.563 96.6635 118.664 96.5593C118.763 96.4471 118.778 96.3057 118.72 96.1835C118.67 96.0934 118.557 96.0546 118.458 96.1063C118.39 96.1415 118.351 96.2207 118.362 96.2951C118.286 96.2982 118.209 96.3355 118.18 96.4205C118.165 96.4591 118.167 96.5014 118.176 96.5335L118.174 96.5255Z" fill="currentColor" />
<path d="M117.801 96.1249C117.801 96.1249 117.81 96.1571 117.812 96.1651C117.861 96.2552 117.975 96.294 118.065 96.2444C118.177 96.1804 118.283 96.1266 118.397 96.0706C118.487 96.021 118.528 95.9156 118.477 95.8175C118.427 95.7274 118.313 95.6886 118.223 95.7382C118.109 95.7942 117.997 95.8582 117.893 95.9201C117.817 95.9574 117.782 96.0526 117.803 96.133L117.801 96.1249Z" fill="currentColor" />
<path d="M117.346 95.7378C117.37 95.8262 117.455 95.8896 117.556 95.8801C117.739 95.8575 117.912 95.7948 118.068 95.7019C118.156 95.6443 118.178 95.5351 118.129 95.445C118.071 95.3571 117.96 95.3263 117.872 95.3839C117.76 95.4479 117.636 95.498 117.511 95.5138C117.41 95.5232 117.333 95.621 117.344 95.7297C117.346 95.7378 117.348 95.7458 117.351 95.7538L117.346 95.7378Z" fill="currentColor" />
<path d="M117.043 95.4054L117.046 95.4134C117.071 95.5099 117.181 95.5669 117.285 95.5393L117.689 95.4069C117.877 95.3399 117.886 95.2087 117.889 95.1562C117.886 95.0796 117.818 94.9858 117.735 94.9647C117.642 94.9377 117.54 94.9733 117.482 95.0487C117.482 95.0487 117.47 95.069 117.473 95.0771L117.163 95.176C117.067 95.2014 117.01 95.3111 117.035 95.4075L117.043 95.4054Z" fill="currentColor" />
<path d="M116.689 94.9746C116.689 94.9746 116.695 94.9987 116.697 95.0067C116.739 95.0989 116.86 95.1356 116.952 95.0941C117.067 95.0381 117.201 94.994 117.328 94.9862C117.429 94.9768 117.506 94.879 117.497 94.7783C117.483 94.6615 117.389 94.6003 117.289 94.6097C117.114 94.6301 116.947 94.6828 116.787 94.7595C116.702 94.799 116.667 94.8942 116.689 94.9746Z" fill="currentColor" />
<path d="M119.728 110.285C119.755 110.39 119.865 110.447 119.959 110.413L120.63 110.219C120.727 110.193 120.786 110.091 120.758 109.987C120.731 109.882 120.621 109.825 120.527 109.859L119.856 110.053C119.759 110.079 119.7 110.181 119.728 110.285Z" fill="currentColor" />
<path d="M119.583 109.868L119.585 109.876C119.611 109.972 119.728 110.027 119.823 109.994L120.431 109.79C120.535 109.762 120.574 109.649 120.549 109.552C120.523 109.456 120.405 109.401 120.311 109.435L119.703 109.638C119.606 109.664 119.557 109.771 119.583 109.868Z" fill="currentColor" />
<path d="M119.245 109.338C119.271 109.434 119.374 109.501 119.479 109.474C119.712 109.412 119.918 109.315 120.108 109.187C120.194 109.121 120.207 109.006 120.149 108.918C120.083 108.832 119.966 108.812 119.88 108.877C119.737 108.984 119.568 109.063 119.383 109.112C119.279 109.14 119.22 109.241 119.247 109.346L119.245 109.338Z" fill="currentColor" />
<path d="M118.935 108.749C118.935 108.749 118.939 108.765 118.941 108.773C118.983 108.865 119.098 108.912 119.191 108.871L119.66 108.661C119.752 108.619 119.819 108.515 119.757 108.411C119.716 108.319 119.6 108.272 119.508 108.314L119.045 108.514C118.96 108.553 118.917 108.65 118.941 108.739L118.935 108.749Z" fill="currentColor" />
<path d="M118.678 108.267C118.678 108.267 118.685 108.291 118.689 108.307C118.731 108.399 118.844 108.438 118.944 108.394L119.439 108.152C119.531 108.11 119.58 108.003 119.526 107.897C119.485 107.804 119.363 107.768 119.271 107.809L118.776 108.052C118.692 108.091 118.657 108.186 118.678 108.267Z" fill="currentColor" />
<path d="M118.56 107.816C118.56 107.816 118.566 107.84 118.568 107.848C118.61 107.941 118.723 107.979 118.823 107.936L119.258 107.726C119.35 107.685 119.389 107.571 119.345 107.471C119.304 107.379 119.19 107.34 119.09 107.384L118.655 107.593C118.571 107.633 118.528 107.73 118.549 107.81L118.56 107.816Z" fill="currentColor" />
<path d="M118.393 107.284C118.408 107.34 118.447 107.39 118.506 107.418C118.601 107.453 118.709 107.407 118.752 107.31C118.772 107.253 118.828 107.204 118.89 107.179C118.994 107.151 119.043 107.044 119.016 106.939C118.988 106.835 118.881 106.786 118.776 106.813C118.609 106.866 118.464 106.999 118.398 107.171C118.382 107.21 118.385 107.252 118.393 107.284Z" fill="currentColor" />
<path d="M118.007 106.862C118.007 106.862 118.013 106.886 118.017 106.902C118.059 106.994 118.172 107.033 118.272 106.989L118.607 106.824C118.781 106.735 118.781 106.606 118.777 106.555C118.772 106.471 118.672 106.385 118.591 106.372C118.494 106.363 118.396 106.415 118.359 106.502C118.361 106.51 118.347 106.523 118.349 106.531L118.107 106.655C118.022 106.694 117.987 106.79 118.009 106.87L118.007 106.862Z" fill="currentColor" />
<path d="M117.816 106.499C117.816 106.499 117.825 106.531 117.831 106.556C117.889 106.644 118 106.674 118.088 106.617L118.136 106.604C118.385 106.47 118.513 106.401 118.45 106.229C118.421 106.15 118.341 106.077 118.158 106.134C118.11 106.147 118.076 106.181 118.051 106.214C118.018 106.222 117.991 106.247 117.958 106.255C117.92 106.274 117.89 106.291 117.882 106.293C117.808 106.338 117.779 106.423 117.8 106.504L117.816 106.499Z" fill="currentColor" />
<path d="M117.592 106.043C117.592 106.043 117.62 106.113 117.65 106.131C117.728 106.196 117.849 106.199 117.922 106.119C117.97 106.072 118.03 106.039 118.099 106.038C118.199 106.029 118.279 105.939 118.277 105.836C118.268 105.735 118.178 105.656 118.075 105.657C117.914 105.665 117.754 105.742 117.649 105.865C117.601 105.912 117.594 105.982 117.609 106.039L117.592 106.043Z" fill="currentColor" />
<path d="M117.517 105.564C117.517 105.564 117.526 105.596 117.54 105.618C117.598 105.706 117.709 105.737 117.797 105.679C117.879 105.632 117.968 105.608 118.062 105.609C118.167 105.616 118.257 105.532 118.255 105.429C118.26 105.316 118.178 105.234 118.075 105.236C117.91 105.228 117.741 105.272 117.593 105.363C117.519 105.408 117.49 105.494 117.511 105.574L117.517 105.564Z" fill="currentColor" />
<path d="M117.396 105.106C117.396 105.106 117.402 105.13 117.405 105.138C117.446 105.23 117.56 105.269 117.66 105.225L117.958 105.086C118.051 105.045 118.087 104.923 118.046 104.831C118.004 104.739 117.891 104.7 117.791 104.744L117.492 104.883C117.408 104.922 117.365 105.019 117.386 105.1L117.396 105.106Z" fill="currentColor" />
<path d="M117.116 104.664C117.116 104.664 117.122 104.688 117.125 104.696C117.166 104.788 117.282 104.835 117.38 104.783C117.464 104.744 117.54 104.707 117.624 104.667C117.716 104.626 117.765 104.518 117.712 104.412C117.67 104.32 117.549 104.283 117.456 104.325C117.38 104.362 117.304 104.399 117.22 104.439C117.136 104.478 117.093 104.575 117.114 104.656L117.116 104.664Z" fill="currentColor" />
<path d="M116.838 104.101C116.838 104.101 116.849 104.141 116.861 104.155C116.919 104.243 117.038 104.271 117.126 104.214L117.428 104.022C117.516 103.965 117.547 103.853 117.489 103.765C117.432 103.677 117.312 103.649 117.232 103.704L116.931 103.896C116.857 103.941 116.827 104.026 116.849 104.107L116.838 104.101Z" fill="currentColor" />
<path d="M103.796 84.2875C103.82 84.3759 103.875 84.4558 103.949 84.5052C107.314 86.7632 109.907 91.4693 111.154 94.0721C111.77 95.3625 112.369 96.7519 113.083 98.5753C113.346 99.2453 113.609 99.9153 113.866 100.595C115.309 104.333 116.802 108.195 119.073 111.584C120.166 113.213 121.432 114.719 122.661 116.182L129.478 124.278C129.588 124.404 129.767 124.623 130.058 124.684C130.323 124.743 130.608 124.651 130.889 124.413C132.018 123.444 132.113 121.82 132.075 120.505C131.747 110.411 126.753 100.716 118.72 94.5924C117.675 93.7937 116.566 93.0463 115.498 92.3225C113.866 91.2231 112.189 90.0839 110.714 88.7626C110.218 88.3175 109.74 87.842 109.264 87.3744C108.614 86.7378 107.95 86.0792 107.234 85.4858C107.069 85.3489 106.908 85.1938 106.738 85.0408C106.487 84.8062 106.236 84.5716 105.969 84.3755C105.798 84.2487 105.559 84.2862 105.44 84.4551C105.402 84.508 105.375 84.5669 105.366 84.6295C105.046 84.3616 104.712 84.1059 104.368 83.8786C104.191 83.762 103.961 83.8053 103.845 83.9823C103.784 84.0759 103.771 84.191 103.796 84.2875ZM130.24 113.234C130.867 115.605 131.23 118.055 131.315 120.526C131.351 121.668 131.283 123.071 130.4 123.829C130.274 123.939 130.221 123.936 130.213 123.938C130.175 123.922 130.097 123.823 130.062 123.789L123.252 115.683C122.035 114.233 120.781 112.741 119.707 111.15C117.481 107.835 116.006 104.011 114.574 100.314C114.309 99.6358 114.054 98.9637 113.789 98.2857C113.06 96.4402 112.467 95.0407 111.839 93.7363C110.939 91.8589 109.363 88.9217 107.284 86.5216C107.78 86.9667 108.259 87.4423 108.724 87.9039C109.213 88.3854 109.691 88.8609 110.199 89.3199C111.711 90.6831 113.417 91.832 115.069 92.9432C116.127 93.6611 117.226 94.4026 118.258 95.1874C124.148 99.6762 128.363 106.129 130.24 113.234Z" fill="currentColor" />
</svg>
